/* XPM */
static char *_0729_8f075352550df4b33d298ea64675efe054c1429526203b0af3c7149646ca1cd7[] = {
/* columns rows colors chars-per-pixel */
"50 50 185 2 ",
"   c #2D202C",
".  c #2D202D",
"X  c #2D212D",
"o  c #2E202D",
"O  c #2E212D",
"+  c #2E212E",
"@  c #2E222E",
"#  c #2E222F",
"$  c #2E2230",
"%  c #2E2330",
"&  c #2E2331",
"*  c #2F2331",
"=  c #2F2431",
"-  c #2F2432",
";  c #2F2533",
":  c #2F2534",
">  c #2F2634",
",  c #2F2635",
"<  c #302634",
"1  c #302736",
"2  c #302837",
"3  c #302838",
"4  c #302939",
"5  c #312939",
"6  c #312A3A",
"7  c #312B3B",
"8  c #31293D",
"9  c #312B3C",
"0  c #312C3D",
"q  c #322D3E",
"w  c #322D3F",
"e  c #322E3F",
"r  c #322F41",
"t  c #332F42",
"y  c #342F47",
"u  c #333043",
"i  c #333144",
"p  c #343245",
"a  c #343347",
"s  c #343549",
"d  c #35364A",
"f  c #35364B",
"g  c #35374B",
"h  c #35384C",
"j  c #35384D",
"k  c #36394F",
"l  c #383655",
"z  c #383756",
"x  c #363950",
"c  c #363A51",
"v  c #363B51",
"b  c #373B52",
"n  c #373C53",
"m  c #383857",
"M  c #39395A",
"N  c #3A3A5C",
"B  c #3A3A5D",
"V  c #3A3B5D",
"C  c #384059",
"Z  c #39415A",
"A  c #39425C",
"S  c #3A435D",
"D  c #39445D",
"F  c #3A4762",
"G  c #3B4763",
"H  c #3B4863",
"J  c #3B4864",
"K  c #3C4964",
"L  c #3C4965",
"P  c #3C4B68",
"I  c #3C4C69",
"U  c #3E506E",
"Y  c #3E506F",
"T  c #3E516F",
"R  c #3F4572",
"E  c #3F4773",
"W  c #3F4674",
"Q  c #3E5170",
"!  c #3E5271",
"~  c #3F5373",
"^  c #40587A",
"/  c #40597B",
"(  c #41597C",
")  c #415A7C",
"_  c #415B7E",
"`  c #425C80",
"'  c #425E82",
"]  c #436084",
"[  c #436085",
"{  c #436185",
"}  c #446186",
"|  c #446389",
" . c #446489",
".. c #44648A",
"X. c #45658B",
"o. c #45668D",
"O. c #466590",
"+. c #466890",
"@. c #466991",
"#. c #476A92",
"$. c #476A93",
"%. c #476B94",
"&. c #476C94",
"*. c #476C95",
"=. c #486C95",
"-. c #486D97",
";. c #486E98",
":. c #486F99",
">. c #496B9E",
",. c #49709B",
"<. c #4C61A6",
"1. c #4C62A6",
"2. c #4D63A9",
"3. c #4E65AD",
"4. c #4E65AE",
"5. c #4E66AE",
"6. c #4A74A1",
"7. c #4A75A1",
"8. c #4A76A3",
"9. c #4B77A5",
"0. c #4B78A5",
"q. c #4B78A6",
"w. c #4C79A8",
"e. c #4C7AA8",
"r. c #4C7AA9",
"t. c #4C7BAA",
"y. c #4D7DAC",
"u. c #4D7DAD",
"i. c #4D7EAD",
"p. c #4E7FAF",
"a. c #4F66B0",
"s. c #4F67B0",
"d. c #4F67B1",
"f. c #5068B3",
"g. c #4E7FB0",
"h. c #517BBB",
"j. c #527EBF",
"k. c #527EC0",
"l. c #4E81B3",
"z. c #4E82B3",
"x. c #4F82B4",
"c. c #4F84B6",
"v. c #4F84B7",
"b. c #5085B7",
"n. c #5085B8",
"m. c #5086B9",
"M. c #5086BA",
"N. c #5087BB",
"B. c #5088BB",
"V. c #5088BC",
"C. c #5188BC",
"Z. c #5189BD",
"A. c #5189BE",
"S. c #518ABE",
"D. c #518ABF",
"F. c #528BC1",
"G. c #528CC1",
"H. c #528DC2",
"J. c #538EC5",
"K. c #538FC5",
"L. c #538FC6",
"P. c #5390C7",
"I. c #5390C8",
"U. c #5491C9",
"Y. c #5492C9",
"T. c #5492CA",
"R. c #5493CB",
"E. c #5594CD",
"W. c #5595CE",
"Q. c #5595CF",
"!. c #5596CF",
"~. c #5596D0",
"^. c #5696D0",
"/. c #5697D0",
"(. c #5696D1",
"). c #5697D1",
"_. c #5698D1",
"`. c #5698D2",
"'. c #5698D3",
"]. c #5699D3",
"[. c #5699D4",
"{. c #5799D4",
"}. c #579AD4",
"|. c #579AD5",
" X c None",
/* pixels */
" X X X X X X X X X X X X X X X X X X X X X X X X X X X X X X X X X X X X X X X X X X X X X X X X X X",
" X X X X X X X X X X X X# # # # # # # #  X X X X X X X X X X X X X X X X X X X X X X X X X X X X X X",
" X X X X X X X X X X# # # # # # # # # # # #  X X X X X X X X X X X X X X X X X X X X X X X X X X X X",
" X X X X X X X X X# # # # # # # # # # # # # #  X X X X X X X X X X X X X X X X X X X X X X X X X X X",
" X X X X X X X X# # # # # # # # # # # # # # # # #  X X X X X X X X X X X X X X X X X X X X X X X X X",
" X X X X X X X# # # # # # # # # # # # # # # # # # #  X X X X X X X X X X X X X X X X X X X X X X X X",
" X X X X X X# # # # # # # # # + + # # # # # # # # #  X X X X X X X X X X X X X X X X X X X X X X X X",
" X X X X X# # # # # # # # # 4 j j w # # # # # # # # #  X X X X X X X X X X X X X X X X X X X X X X X",
" X X X X# # # # # # # ; Z *.z.V.B.b.,.L 1 # # # # # # #  X X X X X X X X X X X X X X X X X X X X X X",
" X X X X# # # # # # q  .H.!.].].].[.^.L.-.a # # # # # #  X X X X X X X X X X X X X X X X X X X X X X",
" X X X# # # # # # u ,.!.`.`.`.`.`.`.`.`./.r.g # # # # # #  X X X X X X X X X X X X X X X X X X X X X",
" X X X# # # # + 9 =.~.`.`.`.`.`.`.`.`.`.`.`.0.p + # # # #  X X X X X X X X X X X X X X X X X X X X X",
" X X X# # # # & ^ W.`.`.`.`.`.`.`.`.`.`.`.`.).o.< @ # # # # # # # # # # # # # # # # # # # #  X X X X",
" X X# # # # + v D.[.`.`.`.`.`.`.`.`.`.`.`.`.'.P.H . # # # # # # # # # # # # # # # # # # # # #  X X X",
" X X# # # # > #.].`.`.`.`.`.`.`.`.`.`.`.`.`.`.{.9.6 + # # # # # # # # # # # # # # # # # # # # #  X X",
" X X# # # + b G.].`.`.`.`.`.`.`.`.`.`.`.`.`.`.'.T.G + # # # # # # # # # # # # # # # # # # # # #  X X",
" X# # # # # ` `.`.`.`.`.`.`.].[.{.].`.`.`.`.`.`.}.:.- # # # # # # # # # # # # # # # # # # # # # #  X",
" X# # # + 9 e.}.`.`.`.`.`.`.x.' _ w.Q.`.`.`.`.`.].C.s + # # # # # # # # # # # # # # # # # # # # #  X",
" X# # # O n I.`.`.`.`.`.!.&.d 2 1 t ] E.`.`.`.`.'.R.I - > > > > > > > > > > > > > > > : = # # # # # ",
" X# # # + T !.`.`.`.`.].u.i + @ @ O 6 ;.`.`.`.`.`.`.K.Z.A.A.A.A.A.A.A.A.A.A.A.A.A.A.S.m.Q % # # # # ",
" X# # # + X.].`.`.`.].U.J + # # # # + x Z.].`.`.`.`.`.].].].].].].].].].].].].].].].].[.v.s O # # # ",
"# # # # = 7.|.`.`.`.}.t.6 @ # # # # # , %.[.`.`.`.`.`.`.`.`.`.`.`.`.`.`.`.`.`.`.`.`.`.`.E.A   # # # ",
"# # # + 7 y.|.`.`.`.`.} # # # # # # # o U ^.`.`.`.`.`.`.`.`.`.`.`.`.`.`.`.`.`.`.`.`.`.`.`.F   # # # ",
"# # # + e p.}.`.`.`./.Y + # # # # # # . Z L.].`.`.`.`.`.`.`.`.`.`.`.`.`.`.`.`.`.`.`.`.`.`.F   # # # ",
"# # # O a n.[.`.`.`.!.D . # # # # # # O n G.].`.`.`.`.`.`.`.`.`.`.`.`.`.`.`.`.`.`.`.`.`.`.F   # # # ",
"# # # O a n.[.`.`.`.!.D . # # # # # # O n G.].`.`.`.`.`.`.`.`.`.`.`.`.`.`.`.`.`.`.`.`.`.`.F   # # # ",
"# # # + e g.}.`.`.`./.Y + # # # # # # . Z L.].`.`.`.`.`.`.`.`.`.`.`.`.`.`.`.`.`.`.`.`.`.`.F   # # # ",
"# # # @ 5 t.|.`.`.`.'...# # # # # # # . ! _.`.`.`.`.`.`.`.`.`.`.`.`.`.`.`.`.`.`.`.`.`.`.`.F   # # # ",
"# # # # % 6.|.`.`.`.}.i.0 + # # # # # , *.}.`.`.`.`.`.`.`.`.`.`.`.`.`.`.`.`.`.`.`.`.`.'.T.C   # # # ",
" X# # # + X.].`.`.`.].Y.K + # # # # + c G.].`.`.`.`.!.E.E.E.E.E.E.E.E.E.W.(.(.(.(.(.(.^.9.q + # # # ",
" X# # # + T !.`.`.`.`.].u.p + + @ O 7 ;.'.`.`.`.`.].8./ ) ) ) ) ) ) ) ( O.h.j.j.j.j.k.>.d # # # # # ",
" X# # # O n I.`.`.`.`.`./.;.f 3 2 i | E.`.`.`.`.'.R.P # = = = = = = = % m 1.5.5.5.5.s.E O # # # # # ",
" X# # # + 9 e.}.`.`.`.`.`.`.n.{ ' p.).`.`.`.`.`.].N.s + # # # # # # # + l <.4.3.3.3.a.R X # # # #  X",
" X# # # # # ` `.`.`.`.`.`.`.'.[.[.].`.`.`.`.`.`.}.*.- # # # # # # # # + l <.4.3.3.3.a.R X # # # #  X",
" X X# # # + b D.].`.`.`.`.`.`.`.`.`.`.`.`.`.`.'.T.G + # # # # # # # # + l <.4.3.3.3.a.R X # # #  X X",
" X X# # # # : +.].`.`.`.`.`.`.`.`.`.`.`.`.`.`.{.9.6 + # # # # # # # # + z 2.d.d.d.d.f.W X # # #  X X",
" X X# # # # + k M.[.`.`.`.`.`.`.`.`.`.`.`.`.'.P.H . # # # # # # # # # # 8 M B N N N V y @ # # #  X X",
" X X X# # # # $ ~ W.`.`.`.`.`.`.`.`.`.`.`.`.).o.< @ # # # # # # # # # # +             O # # # #  X X",
" X X X# # # # + 5 #.~.`.`.`.`.`.`.`.`.`.`.`.9.p + # # # #  X X X# # # # # # # # # # # # # # # #  X X",
" X X X# # # # # @ w -.E.`.`.`.`.`.`.`.'.~.q.s # # # # # #  X X X# # # # # # # # # # # # # # # #  X X",
" X X X X# # # # # # 0 [ F.W.].].].[.!.J.$.r # # # # # #  X X X X X# # # # # # # # # # # # # #  X X X",
" X X X X X# # # # # # * b @.l.N.B.c.-.S : # # # # # # #  X X X X X# # # # # # # # # # # # # #  X X X",
" X X X X X# # # # # # # # # 1 f h 7 # # # # # # # # #  X X X X X X X# # # # # # # # # # # #  X X X X",
" X X X X X X# # # # # # # # # @ + # # # # # # # # #  X X X X X X X X X X# # # # # # # #  X X X X X X",
" X X X X X X X# # # # # # # # # # # # # # # # # # #  X X X X X X X X X X X X X X X X X X X X X X X X",
" X X X X X X X X# # # # # # # # # # # # # # # # #  X X X X X X X X X X X X X X X X X X X X X X X X X",
" X X X X X X X X X# # # # # # # # # # # # # #  X X X X X X X X X X X X X X X X X X X X X X X X X X X",
" X X X X X X X X X X# # # # # # # # # # # #  X X X X X X X X X X X X X X X X X X X X X X X X X X X X",
" X X X X X X X X X X X X# # # # # # # #  X X X X X X X X X X X X X X X X X X X X X X X X X X X X X X",
" X X X X X X X X X X X X X X X X X X X X X X X X X X X X X X X X X X X X X X X X X X X X X X X X X X"
};
