/* XPM */
static char *_207_1d1f681e9189d0fa01cc5d764fc959040511e1f9062b82985de0603ff8d94b36[] = {
/* columns rows colors chars-per-pixel */
"50 50 221 2 ",
"   c #271B28",
".  c #2A1E2B",
"X  c #2B1E2C",
"o  c #2B1F2C",
"O  c #2B1F2D",
"+  c #2C1F2D",
"@  c #2C202D",
"#  c #2D202E",
"$  c #2D212E",
"%  c #2E212F",
"&  c #2E222F",
"*  c #2F2330",
"=  c #302431",
"-  c #322633",
";  c #332734",
":  c #342835",
">  c #342935",
",  c #352935",
"<  c #352936",
"1  c #362A37",
"2  c #372B38",
"3  c #372C38",
"4  c #382C39",
"5  c #382D39",
"6  c #392D3A",
"7  c #392E3A",
"8  c #3A2F3B",
"9  c #3C313D",
"0  c #3D323E",
"q  c #3E323E",
"w  c #3E333F",
"e  c #3F333F",
"r  c #3F3440",
"t  c #403541",
"y  c #403641",
"u  c #423742",
"i  c #423743",
"p  c #443945",
"a  c #453A46",
"s  c #473D48",
"d  c #483D49",
"f  c #493E4A",
"g  c #4A404B",
"h  c #4B404C",
"j  c #4B414C",
"k  c #4C424D",
"l  c #4D424D",
"z  c #4D434E",
"x  c #4F4550",
"c  c #504651",
"v  c #524853",
"b  c #534A54",
"n  c #544A55",
"m  c #554C56",
"M  c #574E58",
"N  c #584F59",
"B  c #594F59",
"V  c #5A505A",
"C  c #5A515B",
"Z  c #5D545E",
"A  c #5E555F",
"S  c #605760",
"D  c #605761",
"F  c #615861",
"G  c #615862",
"H  c #645B65",
"J  c #645C65",
"K  c #665D66",
"L  c #675E67",
"P  c #675E68",
"I  c #675F68",
"U  c #69616A",
"Y  c #6C646D",
"T  c #6E656E",
"R  c #6E666F",
"E  c #706871",
"W  c #726A73",
"Q  c #736A73",
"!  c #736B74",
"~  c #746C74",
"^  c #746C75",
"/  c #766E77",
"(  c #766F77",
")  c #787078",
"_  c #7C747C",
"`  c #7C757D",
"'  c #7D767E",
"]  c #7E767E",
"[  c #7E777F",
"{  c #7F7880",
"}  c #807880",
"|  c #817981",
" . c #837C84",
".. c #857E85",
"X. c #857E86",
"o. c #878087",
"O. c #878088",
"+. c #888189",
"@. c #888289",
"#. c #8A838B",
"$. c #8A848B",
"%. c #8B848B",
"&. c #8C858C",
"*. c #8E878E",
"=. c #8E888E",
"-. c #908990",
";. c #908A91",
":. c #928C93",
">. c #938D94",
",. c #948D94",
"<. c #948E94",
"1. c #948E95",
"2. c #958F95",
"3. c #969096",
"4. c #979197",
"5. c #979198",
"6. c #979298",
"7. c #989298",
"8. c #989299",
"9. c #999399",
"0. c #99939A",
"q. c #99949A",
"w. c #9C969C",
"e. c #9C979D",
"r. c #9D989E",
"t. c #9E999F",
"y. c #A09AA0",
"u. c #A29DA3",
"i. c #A39EA4",
"p. c #A8A3A8",
"a. c #A8A3A9",
"s. c #A9A4A9",
"d. c #ABA6AC",
"f. c #ACA7AC",
"g. c #ACA8AD",
"h. c #ADA9AE",
"j. c #AFABB0",
"k. c #B2ADB2",
"l. c #B4B0B4",
"z. c #B5B1B6",
"x. c #B6B2B6",
"c. c #B6B2B7",
"v. c #B7B2B7",
"b. c #BAB6BA",
"n. c #BBB8BC",
"m. c #C0BCC0",
"M. c #C0BDC0",
"N. c #C0BDC1",
"B. c #C1BDC1",
"V. c #C3BFC3",
"C. c #C3C0C3",
"Z. c #C4C1C4",
"A. c #C4C1C5",
"S. c #C7C4C7",
"D. c #C8C5C8",
"F. c #C8C5C9",
"G. c #C9C6CA",
"H. c #CAC7CA",
"J. c #CAC7CB",
"K. c #CBC8CC",
"L. c #CCC9CC",
"P. c #CDCACD",
"I. c #CECBCE",
"U. c #CFCCCF",
"Y. c #CFCDD0",
"T. c #D0CDD0",
"R. c #D2CFD2",
"E. c #D3D0D3",
"W. c #D3D1D4",
"Q. c #D5D2D5",
"!. c #D5D3D5",
"~. c #D6D4D6",
"^. c #D7D5D7",
"/. c #D8D6D8",
"(. c #D9D7DA",
"). c #DAD8DA",
"_. c #DBD9DB",
"`. c #DBD9DC",
"'. c #DDDBDD",
"]. c #DFDEDF",
"[. c #E0DFE0",
"{. c #E1DFE1",
"}. c #E3E1E3",
"|. c #E4E3E4",
" X c #E5E4E6",
".X c #E6E4E6",
"XX c #E7E6E7",
"oX c #E8E6E8",
"OX c #E9E8E9",
"+X c #EAE8EA",
"@X c #EAE9EA",
"#X c #EBE9EB",
"$X c #ECEBEC",
"%X c #EDECED",
"&X c #EEEDEE",
"*X c #EFEEEF",
"=X c #F0EFF0",
"-X c #F1F0F1",
";X c #F1F1F2",
":X c #F2F1F2",
">X c #F2F2F3",
",X c #F3F2F3",
"<X c #F4F3F4",
"1X c #F5F4F5",
"2X c gray96",
"3X c #F6F5F6",
"4X c #F7F6F7",
"5X c gray97",
"6X c #F8F8F8",
"7X c #F9F8F9",
"8X c #F9F9F9",
"9X c gray98",
"0X c #FBFAFB",
"qX c #FBFBFB",
"wX c #FCFBFC",
"eX c gray99",
"rX c #FDFCFD",
"tX c #FDFDFD",
"yX c #FEFEFE",
"uX c white",
"iX c None",
/* pixels */
"iXiXiXiXiXiXiXiXiXiXiXiXiXiXiXiXiXiXiXiX& & & & & & & & & & iXiXiXiXiXiXiXiXiXiXiXiXiXiXiXiXiXiXiXiX",
"iXiXiXiXiXiXiXiXiXiXiXiXiXiXiXiX& & & & & & & & & & & & & & & & & & iXiXiXiXiXiXiXiXiXiXiXiXiXiXiXiX",
"iXiXiXiXiXiXiXiXiXiXiXiXiX& & & & & $ @ o X + & = = & + X o @ $ & & & & & iXiXiXiXiXiXiXiXiXiXiXiXiX",
"iXiXiXiXiXiXiXiXiXiXiX& & & & $ o @ 2 k U  .7.i.d.d.i.8...U l 6 $ o $ & & & & iXiXiXiXiXiXiXiXiXiXiX",
"iXiXiXiXiXiXiXiXiX& & & & $ + 4 S 7.S.XX5XyXuXuXuXuXuXuXyX5XoXG.8.G 8 + $ & & & & iXiXiXiXiXiXiXiXiX",
"iXiXiXiXiXiXiXiX& & & $ @ w ` Z.;XuXuXuXuXuXuXuXuXuXuXuXuXuXuXuXuX,XS.] e @ $ & & & iXiXiXiXiXiXiXiX",
"iXiXiXiXiXiXiX& & & @ < W H.9XuXuXuXuXuXuXuXuXuXuXuXuXuXuXuXuXuXuXuXuX0XL.^ < @ & & & iXiXiXiXiXiXiX",
"iXiXiXiXiXiX& & & + p s.1XuXuXuXuXuXuXuXuXuXuXuXuXuXuXuXuXuXuXuXuXuXuXuXuX2Xg.j @ & & & iXiXiXiXiXiX",
"iXiXiXiXiX& & & # B F.yXuXuXuXuXuXuXuXuXuXuXuXuXuXuXuXuXuXuXuXuXuXuXuXuXuXuXuXE.Z # & & & iXiXiXiXiX",
"iXiXiXiX& & & @ D _.uXuXuXuXuXuXuXuXuXuXuXuXuXuXuXuXuXuXuXuXuXuXuXuXuXuXuXuXuXuX'.H # & & & iXiXiXiX",
"iXiXiX& & & @ n /.uXuXuXuXuXuXuXuXuXuXuXuXuXuXuXuXuXuXuXuXuXuXuXuXuXuXuXuXuXuXuXuX`.N @ & & & iXiXiX",
"iXiXiX& & $ q M.uXuXuXuXuXuXuXuXuXuXuXuXuXuXuXuXuXuXuXuXuXuXuXuXuXuXuXuXuXuXuXuXuXuXD.i # & & & iXiX",
"iXiX& & & & =.qXuXuXuXwXB.I.7XuXuXuXuXuXuXuXuXuXuXuXuXuXuXuXuXuX[.x.=XuXuXuXuXuXuXuXeX3.* & & & iXiX",
"iXiX& & @ x {.uXuXuXuX%Xv 0 / N.>XuXuXuXuXuXuXuXuXuXuXuXuXqXQ.*.h 7 m.uXuXuXuXuXuXuXuX Xn @ & & iXiX",
"iX& & & $ 1.tXuXuXuXuX#Xh o o 3 I k.$XyXuXuXuXuXuXuXuX1XD.[ u @ o < n.uXuXuXuXuXuXuXuXyXq.& & & & iX",
"iX& & $ 9 P.uXuXuXuXuX9X*.* @ $ o = C I.uXuXuXuXuXuX+X) 3 o @ $ . G @XuXuXuXuXuXuXuXuXuX!.r $ & & iX",
"iX& & @ N &XuXuXuXuXuXuX*X>.g 1 < s +.oXuXuXuXuXuXuX5Xf.m 5 > r ! ^.uXuXuXuXuXuXuXuXuXuX-XA @ & & iX",
"& & & o ) 8XuXuXuXuXuXuXuXtX}.Y.U.{.rXuXuXuXuXuXuXuXuXuX#XR.I.(.5XuXuXuXuXuXuXuXuXuXuXuXqX} o & & & ",
"& & & . &.yXuXuXuXuXuXuXuXuXuXuXuXuXuXuXuXuXtXeXuXuXuXuXuXuXuXuXuXuXuXuXuXuXuXuXuXuXuXuXuX>.. & & & ",
"& & & . 4.uXuXuXuXuXuXuXuXuXuXuXuXuX&XK.s.;.| _ $.t.m. XeXuXuXuXuXuXuXuXuXuXuXuXuXuXuXuXuX4.. & & & ",
"& & & . 4.uXuXuXuXuXuXuXuXuXuXuX].9.V 7 * o o o o @ < k } L.qXuXuXuXuXuXuXuXuXuXuXuXuXuXuX4.. & & & ",
"& & & . 4.uXuXuXuXuXuXuXuXuX1Xp.z $ O $ & & & & & & $ @ o q O..XuXuXuXuXuXuXuXuXuXuXuXuXuX4.. & & & ",
"& & & . 4.uXuXuXuXuXuXuXuX-Xo.; @ & & & & & & & & & & & & $ $ G /.uXuXuXuXuXuXuXuXuXuXuXuX4.. & & & ",
"& & & . 4.uXuXuXuXuXuXuX4X#.= $ & & & & & & & & & & & & & & & + F |.uXuXuXuXuXuXuXuXuXuXuX4.. & & & ",
"& & & . 4.uXuXuXuXuXuXuXc.2 $ & & & & & & & & & & & & & & & & & $ ..8XuXuXuXuXuXuXuXuXuXuX4.. & & & ",
"& & & . 4.uXuXuXuXuXuX:XJ o & & & & & & & & & & & & & & & & & & $ t T.uXuXuXuXuXuXuXuXuXuX4.. & & & ",
"& & & . 4.uXuXuXuXuXuXI.9 $ & & & & & & & & & & & & & & & & & & & $ 0.uXuXuXuXuXuXuXuXuXuX4.. & & & ",
"& & & . 4.uXuXuXuXuXuXh.& . . . . . . . . . . . . . . . . . . . .   ( 8XuXuXuXuXuXuXuXuXuX4.. & & & ",
"& & & . 4.uXuXuXuXuXuXW.2.>.,.,.,.,.,.,.,.,.,.,.,.,.,.,.,.,.,.,.,.:.l.9XuXuXuXuXuXuXuXuXuX4.. & & & ",
"& & & . 4.uXuXuXuXuXuXuXuXuXuXuXuXuXuXuXuXuXuXuXuXuXuXuXuXuXuXuXuXuXuXuXuXuXuXuXuXuXuXuXuX4.. & & & ",
"& & & . 4.uXuXuXuXuXuXuXuXuXuXuXuXuXuXuXuXuXuXuXuXuXuXuXuXuXuXuXuXuXuXuXuXuXuXuXuXuXuXuXuX4.. & & & ",
"& & & . 4.uXuXuXuXuXuXuXuXuXuXuXuXuXuXuXuXuXuXuXuXuXuXuXuXuXuXuXuXuXuXuXuXuXuXuXuXuXuXuXuX4.. & & & ",
"& & & . 4.uXuXuXuXuXuXuXuXuXuXuXuXuXuXuXuXuXuXuXuXuXuXuXuXuXuXuXuXuXuXuXuXuXuXuXuXuXuXuXuX4.. & & & ",
"& & & . 4.uXuXuXuXuXuXuXuXuXuXuXuXuXuXuXuXuXuXuXuXuXuXuXuXuXuXuXuXuXuXuXuXuXuXuXuXuXuXuXuX4.. & & & ",
"& & & . 4.uXuXuXuXuXuXuXuXuXuXuXuXuXuXuXuXuXuXuXuXuXuXuXuXuXuXuXuXuXuXuXuXuXuXuXuXuXuXuXuX4.. & & & ",
"& & & . 4.uXuXuXuXuXuXuXuXuXuXuXuXuXuXuXuXuXuXuXuXuXuXuXuXuXuXuXuXuXuXuXuXuXuXuXuXuXuXuXuX4.. & & & ",
"& & & . 4.uXuXuXuXuXuXuXuXuXuXuXuXuXuXuXuXuXuXuXuXuXuXuXuXuXuXuXuXuXuXuXuXuXuXuXuXuXuXuXuX4.. & & & ",
"& & & . 4.uXuXuXuXuXuXuXuXuXuXuXuXuXuXuXuXuXuXuXuXuXuXuXuXuXuXuXuXuXuXuXuXuXuXuXuXuXuXuXuX4.. & & & ",
"& & & . 4.uXuXuXuXuXuXuXuXuXuXuXuXuXuXuXuXuXuXuXuXuXuXuXuXuXuXuXuXuXuXuXuXuXuXuXuXuXuXuXuX4.. & & & ",
"& & & . 4.uXuXuXuXuXuXuXuXuXuXuXuXuXuXuXuXuXuXuXuXuXuXuXuXuXuXuXuXuXuXuXuXuXuXuXuXuXuXuXuX4.. & & & ",
"& & & . 4.uXuXuXuXuXuXuXuXuXuX6X1X2XeXuXuXuXuXuXuXuXuXuXuXuXuXtX2X1X6XuXuXuXuXuXuXuXuXuXuX4.. & & & ",
"& & & . 4.uXuXuXuXuXuXuXuX@Xu.R K P ' m.8XuXuXuXuXuXuXuXuXqXA.{ L K T r.OXuXuXuXuXuXuXuXuX4.. & & & ",
"& & & . 4.uXuXuXuXuXuXuX%XE & X o o . 8 a.tXuXuXuXuXuXuXyXj.0 . o o X $ Y #XuXuXuXuXuXuXuX4.. & & & ",
"& & & . 4.uXuXuXuXuXuXuXb.> $ & & & & o M *XuXuXuXuXuXuX:XD X & & & & $ ; v.uXuXuXuXuXuXuX5.. & & & ",
"& & & X X.tXuXuXuXuXuXuXe.$ & & & & & $ y '.uXuXuXuXuXuX{.a # & & & & & @ 5.uXuXuXuXuXuXyX@.. & & & ",
"iX& & $ d J.uXuXuXuXuX).m @ & & & & & & = %.<XuXuXuXuX3X-.= & & & & & & @ n ~.uXuXuXuXuXP.f # & & iX",
"iX& & & $ f <.N.S.C.y.b $ & & & iXiX& & $ : Q z.S.S.z.~ < $ & & & iX& & & $ c w.V.S.B.6.j $ & & & iX",
"iXiX& & & @ $ > 1 < * @ & & & iXiXiX& & & & @ - 1 1 - @ $ & & & iXiXiX& & & @ & < 1 , & @ & & & iXiX",
"iXiXiX& & & & & $ % & & & & iXiXiXiXiX& & & & & $ $ & & & & & iXiXiXiXiX& & & & % $ & & & & & iXiXiX",
"iXiXiXiXiX& & & & & & & iXiXiXiXiXiXiXiXiX& & & & & & & & iXiXiXiXiXiXiXiXiX& & & & & & & iXiXiXiXiX"
};
