/* XPM */
static char *_5902_f10684e0447423c456ab635ebe9fd2d2ec94072459e73ed1f20b383ffb3298d6[] = {
/* columns rows colors chars-per-pixel */
"50 50 150 2 ",
"   c #2E202E",
".  c #2E212E",
"X  c #2E212F",
"o  c #2E222F",
"O  c #2E232F",
"+  c #2D2330",
"@  c #2E2330",
"#  c #2D2430",
"$  c #2D2530",
"%  c #2E2530",
"&  c #2C2631",
"*  c #2D2631",
"=  c #2C2731",
"-  c #2D2731",
";  c #2E2631",
":  c #2B2932",
">  c #2B2933",
",  c #2B2A33",
"<  c #2D2832",
"1  c #2D2932",
"2  c #2D2A33",
"3  c #2D2B33",
"4  c #2A2B34",
"5  c #2D2B34",
"6  c #2A2C34",
"7  c #2A2D35",
"8  c #292E35",
"9  c #2D2C34",
"0  c #2D2D34",
"q  c #2D2E35",
"w  c #293036",
"e  c #283237",
"r  c #2C3036",
"t  c #2F3136",
"y  c #2C3236",
"u  c #2C3337",
"i  c #273438",
"p  c #2C3538",
"a  c #2C3638",
"s  c #2C3739",
"d  c #25393B",
"f  c #26383A",
"g  c #243B3C",
"h  c #233F3E",
"j  c #2B383A",
"k  c #2B3B3B",
"l  c #2B3C3B",
"z  c #303337",
"x  c #303739",
"c  c #303839",
"v  c #30393A",
"b  c #303B3B",
"n  c #22413F",
"m  c #2B403D",
"M  c #2A413E",
"N  c #2A443F",
"B  c #2A453F",
"V  c #1F4B44",
"C  c #1E4C45",
"Z  c #1E4D45",
"A  c #1E4E45",
"S  c #1D4F46",
"D  c #1B5649",
"F  c #1B564A",
"G  c #1A574A",
"H  c #1B574A",
"J  c #1C5448",
"K  c #1C5549",
"L  c #1A584B",
"P  c #1A594B",
"I  c #1A5A4B",
"U  c #195C4C",
"Y  c #195C4D",
"T  c #185D4D",
"R  c #185E4D",
"E  c #185F4E",
"W  c #224340",
"Q  c #214440",
"!  c #214541",
"~  c #214641",
"^  c #2A4640",
"/  c #294841",
"(  c #294A42",
")  c #294B42",
"_  c #294C43",
"`  c #295145",
"'  c #285246",
"]  c #285346",
"[  c #285547",
"{  c #285748",
"}  c #275A49",
"|  c #275D4B",
" . c #275E4B",
".. c #275E4C",
"X. c #275F4C",
"o. c #285848",
"O. c #285849",
"+. c #166551",
"@. c #166651",
"#. c #156752",
"$. c #166652",
"%. c #27604C",
"&. c #27614D",
"*. c #26624D",
"=. c #26634E",
"-. c #26644E",
";. c #26654F",
":. c #26664F",
">. c #256B52",
",. c #256F54",
"<. c #257054",
"1. c #257154",
"2. c #247355",
"3. c #257355",
"4. c #247456",
"5. c #247556",
"6. c #247657",
"7. c #247958",
"8. c #247A58",
"9. c #23805C",
"0. c #23825D",
"q. c #23835D",
"w. c #22845D",
"e. c #22855E",
"r. c #22865E",
"t. c #22875F",
"y. c #22885F",
"u. c #228960",
"i. c #228B61",
"p. c #218D61",
"a. c #228C61",
"s. c #218D62",
"d. c #218E62",
"f. c #218F62",
"g. c #218F63",
"h. c #219063",
"j. c #219163",
"k. c #219164",
"l. c #219264",
"z. c #399364",
"x. c #399464",
"c. c #3A9F69",
"v. c #3A9F6A",
"b. c #3AA06A",
"n. c #3AA16B",
"m. c #3AA26B",
"M. c #3BAF71",
"N. c #3BB071",
"B. c #3BB172",
"V. c None",
/* pixels */
"o o o o o o o o o o o o o o o o o o o o o o o o o o o o o o o o o o o o o o o o o o o o o o o o o o ",
"o o o o X . . . . . . . . . . . . . . . . . . . . . . . . . . . . . . . . . . . . . . . . X o o o o ",
"o o o % t z z z z z z z z z z z z z z z z z z z z z z z z z z z z z z z z z z z z z z z z t % o o o ",
"o o . c x.b.b.b.b.b.b.b.b.b.b.b.b.b.b.b.b.b.b.b.b.b.b.b.b.b.b.b.b.b.b.b.b.b.b.b.b.b.b.b.b.x.c . o o ",
"o o   b m.B.N.N.N.N.N.N.N.N.N.N.N.N.N.N.N.N.N.N.N.N.N.N.N.N.N.N.N.N.N.N.N.N.N.N.N.N.N.N.B.m.b   o o ",
"o o   b n.N.M.M.M.M.M.M.M.M.M.M.M.M.M.M.M.M.M.M.M.M.M.M.M.M.M.M.M.M.M.M.M.M.M.M.M.M.M.M.N.n.b   o o ",
"o o   b n.N.M.M.M.M.M.M.M.M.M.M.M.M.M.M.M.M.M.M.M.M.M.M.M.M.M.M.M.M.M.M.M.M.M.M.M.M.M.M.N.n.b   o o ",
"o o   b n.N.M.M.M.M.M.M.M.M.M.M.M.M.M.M.M.M.M.M.M.M.M.M.M.M.M.M.M.M.M.M.M.M.M.M.M.M.M.M.N.n.b   o o ",
"o o   b m.B.N.N.N.N.N.N.N.N.N.N.N.N.N.N.N.N.N.N.N.N.N.N.N.N.N.N.N.N.N.N.N.N.N.N.N.N.N.N.B.m.b   o o ",
"o o . c z.v.c.c.c.c.c.c.c.c.c.c.c.c.c.c.c.c.c.c.c.c.c.c.c.c.c.c.c.c.c.c.c.c.c.c.c.c.c.c.v.z.c . o o ",
"o o o ; x v v v v v v v v v v v v v v v v v v v v v v v v v v v v v v v v v v v v v v v v x ; o o o ",
"o o o o . . . . . . . . . . . . . . . . . . . . . . . . . . . . . . . . . . . . . . . . . . o o o o ",
"o o o o o o o o o o o o o o o o o o o o o o o o o o o o o o o o o o o o o o o o o o o o o o o o o o ",
"o o X 9 { | | | | | | | | | | | | | | | | | | | | | | | | | | | | | | | | | | | | | | | | { 9 X o o ",
"o o . a r.l.j.j.j.j.j.j.j.j.j.j.j.j.j.j.j.j.j.j.j.j.j.j.j.j.j.j.j.j.j.j.j.j.j.j.j.j.j.j.l.r.a . o o ",
"o o . p e.j.h.h.h.h.h.h.h.h.h.h.h.h.h.h.h.h.h.h.h.h.h.h.h.h.h.h.h.h.h.h.h.h.h.h.h.h.h.h.j.e.p . o o ",
"o o . p e.j.h.h.h.h.h.h.h.h.h.h.h.h.h.h.h.h.h.h.h.h.h.h.h.h.h.h.h.h.h.h.h.h.h.h.h.h.h.h.j.e.p . o o ",
"o o . p e.j.h.h.h.h.h.h.h.h.h.h.h.h.h.h.h.h.h.h.h.h.h.h.h.h.h.h.h.h.h.h.h.h.h.h.h.h.h.h.j.e.p . o o ",
"o o . p e.j.h.h.h.h.h.h.h.h.h.h.h.h.h.h.h.j.l.l.k.k.l.l.j.h.h.h.h.h.h.h.h.h.h.h.h.h.h.h.j.e.p . o o ",
"o o . p e.j.h.h.h.h.h.h.h.h.h.h.h.h.h.j.h.e.3.=. ...-.2.r.h.j.h.h.h.h.h.h.h.h.h.h.h.h.h.j.e.p . o o ",
"o o . p e.j.h.h.h.h.h.h.h.h.h.h.h.h.j.9.o.a - o X X o < s } 0.j.h.h.h.h.h.h.h.h.h.h.h.h.j.e.p . o o ",
"o o . p e.j.h.h.h.h.h.h.h.h.h.h.h.f.>.p o . o o o o o o . o j <.h.h.h.h.h.h.h.h.h.h.h.h.j.e.p . o o ",
"o o . p e.j.h.h.h.h.h.h.h.h.h.h.h.:.2 . o X o = , , & o X o . 0 >.h.h.h.h.h.h.h.h.h.h.h.j.e.p . o o ",
"o o . p e.j.h.h.h.h.h.h.h.h.h.j.5.q . o o 7 ~ H Y Y F Q 4 o o . r 7.j.h.h.h.h.h.h.h.h.h.j.e.p . o o ",
"o o . p e.j.h.h.h.h.h.h.h.h.h.i.N . o o i P +.@.@.@.@.+.G e o o . / p.h.h.h.h.h.h.h.h.h.j.e.p . o o ",
"o o . p e.j.h.h.h.h.h.h.h.h.k.6.1 o X 6 L @.+.+.+.+.+.+.$.D , o X 5 7.k.h.h.h.h.h.h.h.h.j.e.p . o o ",
"o o . p e.j.h.h.h.h.h.h.h.h.j.X.o o o n +.+.+.+.+.+.+.+.+.+.h X o o ;.k.h.h.h.h.h.h.h.h.j.e.p . o o ",
"o o . p e.j.h.h.h.h.h.h.h.h.h.] X o # A $.+.+.+.+.+.+.+.+.$.V + o X o.h.h.h.h.h.h.h.h.h.j.e.p . o o ",
"o o . p e.j.h.h.h.h.h.h.h.h.h.` X o # S @.+.+.+.+.+.+.+.+.$.C + o X { h.h.h.h.h.h.h.h.h.j.e.p . o o ",
"o o . p e.j.h.h.h.h.h.h.h.h.j.| X o o ! @.+.+.+.+.+.+.+.+.+.W o o o &.j.h.h.h.h.h.h.h.h.j.e.p . o o ",
"o o . p e.j.h.h.h.h.h.h.h.h.k.1.* o X w T @.+.+.+.+.+.+.@.U 8 X o < 4.k.h.h.h.h.h.h.h.h.j.e.p . o o ",
"o o . p e.j.h.h.h.h.h.h.h.h.h.t.l . o o g E +.+.+.+.+.+.R d o o   m u.h.h.h.h.h.h.h.h.h.j.e.p . o o ",
"o o . p e.j.h.h.h.h.h.h.h.h.h.j.>.< X o O f E +.+.+.+.U i o o X 2 ,.j.h.h.h.h.h.h.h.h.h.j.e.p . o o ",
"o o . p e.j.h.h.h.h.h.h.h.h.h.h.d.O.% o X : P @.+.+.@.J * o o - | d.h.h.h.h.h.h.h.h.h.h.j.e.p . o o ",
"o o . p e.j.h.h.h.h.h.h.h.h.h.h.j.y.k . X > I @.+.+.@.J & o . B i.j.h.h.h.h.h.h.h.h.h.h.j.e.p . o o ",
"o o . p e.j.h.h.h.h.h.h.h.h.h.h.h.a.m . X > I @.+.+.@.J & o . ) d.h.h.h.h.h.h.h.h.h.h.h.j.e.p . o o ",
"o o . p e.j.h.h.h.h.h.h.h.h.h.h.h.i.m . X > I #.$.$.#.K & o . ( d.h.h.h.h.h.h.h.h.h.h.h.j.e.p . o o ",
"o o . p e.j.h.h.h.h.h.h.h.h.h.h.h.s.^   o $ n A Z Z A h # o   _ d.h.h.h.h.h.h.h.h.h.h.h.j.e.p . o o ",
"o o . p e.j.h.h.h.h.h.h.h.h.h.h.h.j.%.o o o o @ @ @ @ o o o O *.j.h.h.h.h.h.h.h.h.h.h.h.j.e.p . o o ",
"o o . p e.j.h.h.h.h.h.h.h.h.h.h.h.j.e.M X . X X X X X X . X N t.j.h.h.h.h.h.h.h.h.h.h.h.j.e.p . o o ",
"o o . p e.j.h.h.h.h.h.h.h.h.h.h.h.h.j.0.] y 2 2 2 2 2 2 u [ w.j.h.h.h.h.h.h.h.h.h.h.h.h.j.e.p . o o ",
"o o . p e.j.h.h.h.h.h.h.h.h.h.h.h.h.h.j.f.q.8.7.7.7.7.8.w.g.j.h.h.h.h.h.h.h.h.h.h.h.h.h.j.e.p . o o ",
"o o . p e.j.h.h.h.h.h.h.h.h.h.h.h.h.h.h.h.j.k.k.k.k.k.k.j.h.h.h.h.h.h.h.h.h.h.h.h.h.h.h.j.e.p . o o ",
"o o . p e.j.h.h.h.h.h.h.h.h.h.h.h.h.h.h.h.h.h.h.h.h.h.h.h.h.h.h.h.h.h.h.h.h.h.h.h.h.h.h.j.e.p . o o ",
"o o . p e.j.h.h.h.h.h.h.h.h.h.h.h.h.h.h.h.h.h.h.h.h.h.h.h.h.h.h.h.h.h.h.h.h.h.h.h.h.h.h.j.e.p . o o ",
"o o . a r.j.j.j.j.j.j.j.j.j.j.j.j.j.j.j.j.j.j.j.j.j.j.j.j.j.j.j.j.j.j.j.j.j.j.j.j.j.j.j.j.r.a . o o ",
"o o X 3 ' { { { { { { { { { { { { { { { { { { { { { { { { { { { { { { { { { { { { { { { { ' 3 X o o ",
"o o o o . . . . . . . . . . . . . . . . . . . . . . . . . . . . . . . . . . . . . . . . . . o o o o ",
"o o o o o o o o o o o o o o o o o o o o o o o o o o o o o o o o o o o o o o o o o o o o o o o o o o ",
"V.o o o o o o o o o o o o o o o o o o o o o o o o o o o o o o o o o o o o o o o o o o o o o o o o V."
};
