/* XPM */
static char *_2376_f6eee88c8df69b274cd9574e7aac9f2aa106469508d067a2e2f4a1c6d04d04db[] = {
/* columns rows colors chars-per-pixel */
"50 50 137 2 ",
"   c #2B1F2F",
".  c #2E222F",
"X  c #32252F",
"o  c #3C2D2F",
"O  c #2F2230",
"+  c #352330",
"@  c #3A2030",
"#  c #36243D",
"$  c #44332F",
"%  c #48372F",
"&  c #4E3B2F",
"*  c #503D2F",
"=  c #422230",
"-  c #4B2330",
";  c #512331",
":  c #5C2331",
">  c #5E2932",
",  c #682833",
"<  c #732432",
"1  c #7D2433",
"2  c #732C34",
"3  c #57432F",
"4  c #5D472F",
"5  c #654E2F",
"6  c #6F562E",
"7  c #70562F",
"8  c #73582F",
"9  c #7A5A2F",
"0  c #664C35",
"q  c #3C2547",
"w  c #2D2F54",
"e  c #2E3054",
"r  c #323353",
"t  c #3A3952",
"y  c #41254E",
"u  c #44294C",
"i  c #422651",
"p  c #472759",
"a  c #48275A",
"s  c #423E50",
"d  c #4D2862",
"f  c #54296E",
"g  c #582A75",
"h  c #5B2B7A",
"j  c #5F3170",
"k  c #47424F",
"l  c #4A454E",
"z  c #554C4C",
"x  c #5F534A",
"c  c #63564A",
"v  c #6E5E48",
"b  c #756346",
"n  c #786546",
"m  c #7D6945",
"M  c #852433",
"N  c #8D2433",
"B  c #952334",
"V  c #9F2534",
"C  c #A62535",
"Z  c #AF2535",
"A  c #B02535",
"S  c #AF3438",
"D  c #B13438",
"F  c #CC2F39",
"G  c #CD3139",
"H  c #E63C3C",
"J  c #E93C3C",
"K  c #8C5927",
"L  c #965F26",
"P  c #BB5A32",
"I  c #8C6D2E",
"U  c #906F2E",
"Y  c #9C7F3F",
"T  c #B26F24",
"R  c #A47F2E",
"E  c #B47124",
"W  c #BD7523",
"Q  c #BC7824",
"!  c #A57A3C",
"~  c #C85A32",
"^  c #CC7E22",
"/  c #CA6534",
"(  c #DC6235",
")  c #EE6A37",
"_  c #856F43",
"`  c #8D7441",
"'  c #907741",
"]  c #957A40",
"[  c #9F813F",
"{  c #AF882E",
"}  c #B0882E",
"|  c #BE8F2C",
" . c #BD932E",
".. c #A5853D",
"X. c #AC8B3C",
"o. c #B08D3B",
"O. c #B5913A",
"+. c #BB9539",
"@. c #BF9838",
"#. c #F4961E",
"$. c #F7981E",
"%. c #F8991E",
"&. c #CB8123",
"*. c #C0952E",
"=. c #C79B2D",
"-. c #CA9D2D",
";. c #C59D37",
":. c #C99F36",
">. c #C09938",
",. c #F59B20",
"<. c #CEA02E",
"1. c #D3A42D",
"2. c #DCAB2D",
"3. c #CCA236",
"4. c #D1A535",
"5. c #D6A934",
"6. c #DDAE32",
"7. c #E4B12D",
"8. c #EEBA2E",
"9. c #F3BE2D",
"0. c #F9BB2B",
"q. c #E5B431",
"w. c #E8B630",
"e. c #ECB830",
"r. c #F6C02D",
"t. c #FBC32D",
"y. c #D59F41",
"u. c #DBA342",
"i. c #622C86",
"p. c #672D8E",
"a. c #682D8F",
"s. c #6F3785",
"d. c #713787",
"f. c #713788",
"g. c #723889",
"h. c #692D91",
"j. c None",
/* pixels */
"j.j.j.j.j.j.j.j.j.j.j.j.j.j.j.j.j.. . . . . . . . . . . . . . O j.j.j.j.j.j.j.j.j.j.j.j.j.j.j.j.j.j.",
"j.j.j.j.j.j.j.j.j.j.j.j.j.j.j.O . . . X . . . . . . . . . . . . . . . j.j.j.j.j.j.j.j.j.j.j.j.j.j.j.",
"j.j.j.j.j.j.j.j.j.j.j.j.j.j.j.. . O . . . . . . . . . . . . . .   . . . . j.j.j.j.j.j.j.j.j.j.j.j.j.",
"j.j.j.j.j.j.j.j.j.j.j.j.j.j.j.. . . > 2 2 2 , > : : : : : : ; @ X . . . . O j.j.j.j.j.j.j.j.j.j.j.j.",
"j.j.j.j.j.j.j.j.j.j.j.j.j.j.j.. . + D J H H G C C Z Z Z C Z C C M > X   . . . j.j.j.j.j.j.j.j.j.j.j.",
"j.j.j.j.j.j.j.j.j.j.j.j.j.j.j.. . + D J J J G Z A Z Z Z A A Z Z A C M - . . . O j.j.j.j.j.j.j.j.j.j.",
"j.j.j.j.j.j.j.j.j.j.j.j.j.j.j.. . + D J J J G Z A A Z Z Z Z Z Z A Z A B - . O . . j.j.j.j.j.j.j.j.j.",
"j.j.j.j.j.j.j.j.j.j.j.j.j.j.j.. . + D J H J G Z Z Z A Z Z Z Z Z Z Z Z A B @ O O . j.j.j.j.j.j.j.j.j.",
"j.j.j.j.j.j.j.j.j.j.j.j.j.j.j.. O @ D J J J G Z Z A Z Z Z Z Z A Z Z Z Z A M + O . . j.j.j.j.j.j.j.j.",
"j.j.j.j.j.j.j.j.j.j.j.j.j.j.j.. O @ D J H J G Z A Z A Z A Z Z Z Z Z Z Z Z C -   . O j.j.j.j.j.j.j.j.",
"j.j.j.j.j.j.j.j.j.j.j.j.O . . . O + D J J J G Z A A Z Z A Z Z Z Z Z Z Z Z Z < + . . . j.j.j.j.j.j.j.",
"j.j.j.j.j.j.j.j.j.j.. . . . . . . + D J H J G Z A A A Z Z Z Z A Z Z Z Z Z Z N + . . . . . j.j.j.j.j.",
"j.j.j.j.j.j.j.j.. . . . .   O . . + S J J J F Z Z Z A A Z C Z Z Z Z Z Z Z Z B + . . O . . . . j.j.j.",
"j.j.j.j.j.j.j.. . O   X % 5 8 8 8 8 / ) ) ) ( ~ ~ ~ ~ ~ / ~ ~ ~ ~ ~ ~ ~ ~ ~ P K 6 4 o   O . . . j.j.",
"j.j.j.j.j.j.. . . . & R 2.9.r.r.r.r.r.r.t.t.r.r.0.0.t.r.r.r.r.r.t.t.t.0.9.9.r.r.r.9.1.I o . . . j.j.",
"j.j.j.j.j.j.. . . 3 1.t.t.t.t.t.t.t.t.t.t.t.t.t.t.t.t.t.t.t.t.t.t.t.t.t.t.t.t.r.r.r.r.r.} o   . . j.",
"j.j.j.j.j.. . . X U <.<.<.<.<.<.<.<.-.-.<.<.<.<.=.<.<.<.=.<.<.=.<.-.-.1.r.t.r.t.t.t.r.t.r.U X . . j.",
"j.j.. . . . . . . X X X X X X X X X X X X X X X X X X X X X X X X X X $ 9 2.t.t.r.t.r.t.r.2.% . . . ",
"j.. . . . . . . . . . . . . O O . . X X . . . O . . . . . . . . . O . . . 8 8.t.t.r.t.t.t.9.5 . . O ",
". . . . X X X X . X X X . . X X . X . X . X X X X . X X X X . X . X . . . X =.t.r.t.t.r.r.9.6   . . ",
". . . % {  . .=. .=. . .*.*.*.*.*. . . . .*.*.*.*.*. . . . . .Q W W K . . .  .t.t.t.t.t.r.r.6   . . ",
". . O * w.t.t.t.t.t.t.t.t.t.t.t.t.t.t.t.t.t.t.t.t.t.t.t.t.t.t.,.$.%.E . . O  .t.t.r.r.t.r.9.6   . X ",
". . . & 7.t.r.3.' O.r.t.;.` +.r.t.t.t.r.+.` 3.r.r.X.Y 3.t.t.0.%.#.$.E . . O  .t.t.t.r.t.t.9.7   . . ",
". . . & 7.t.4.l e t ' ..t e s 3.t.t.t.@.s e k .._ t e z 2.t.r.,.#.$.E . . .  .t.r.t.t.r.r.r.7 . . . ",
". . . & 7.t.3.t r e t t e r r O.t.t.t...r r r t r r e k 3.t.0.,.#.$.T . . .  .t.t.r.r.t.r.9.7   O . ",
"O . . & 7.r.8.m r r e r r r v w.t.t.t.6.c r r r r r t _ r.r.0.,.#.$.T . . X  .t.t.t.t.r.r.9.7   . . ",
". . . & 7.r.t.6.z e r r r l 4.t.t.t.r.t.;.t e r r e c 7.t.r.0.,.#.$.T . . X | t.r.t.t.t.t.9.6   . . ",
". . . & 7.t.9.] t r r r r r m e.t.t.t.q.v t r r r e t [ r.r.0.,.#.$.T . . .  .r.t.r.r.t.r.r.6   . . ",
". . . & 7.t.3.s r r r e r r r +.t.t.t...r r r e r r r k 5.t.9.,.#.$.E . . X  .t.t.t.r.t.t.9.6   O . ",
". . . & 7.t.4.s e r m _ t e t @.t.t.t.O.t e t ` b r w l 6.t.0.,.$.$.T . . .  .t.r.t.t.r.t.0.7 . . . ",
". . O & 7.t.r.X.n [ e.9...n ..r.t.t.t.8.[ m X.r.q.] m +.r.r.0.,.#.$.E . . .  .t.t.t.t.r.t.9.7   . . ",
"O . . & 8.t.t.t.t.t.t.t.t.r.t.t.t.t.t.t.t.t.t.t.t.t.t.t.t.t.t.,.$.%.E . . X  .t.t.t.t.t.t.9.7   . . ",
". . . %  .<.<.<.<.<.<.<.<.<.<.<.<.<.<.<.<.<.-.<.<.<.<.<.-.<.-.^ ^ ^ L   O O ! u.u.u.u.y.u.y.0   . . ",
". . . . o o o o o o o o o o o o o o o o o o o o o o o o o o o o o o + . O O j g.f.f.f.f.g.s.u . . . ",
"j.. . . . . . . . . . . . . O . . . . . . . O . . . O . O O O O . . . X O q i.h.p.p.p.p.h.i.q O . O ",
"j.j.. O O . . . O O O O O O O O O O . + O O O O O O O O O O O O O O O + q h p.p.p.p.p.p.p.p.y . . . ",
"j.j.j.j.j.. . . i f f f f f f f f f f f f f f f f f f f f f f f f f f g i.p.p.p.p.p.p.p.p.i.i . . . ",
"j.j.j.j.j.. . . d h.h.p.p.p.p.p.h.p.p.h.h.p.p.h.p.p.p.p.h.p.p.h.p.p.p.p.p.p.p.p.p.p.p.p.p.p.q . . . ",
"j.j.j.j.j.. . O d p.p.p.p.p.p.p.p.p.p.p.p.p.p.p.p.p.p.p.p.p.p.p.p.p.p.p.p.p.p.p.p.p.p.p.p.i.i . . . ",
"j.j.j.j.j.. . . d h.p.p.p.p.p.p.p.p.p.p.p.p.p.p.p.p.p.p.p.p.p.p.p.p.p.p.p.p.p.p.p.p.p.p.p.p.y . O . ",
"j.j.j.j.j.. O . d p.p.p.p.p.p.p.p.p.p.p.p.p.p.p.p.p.p.p.p.p.p.p.p.p.p.p.p.p.p.p.p.p.p.p.p.p.q . X . ",
"j.j.j.j.j.. . . d h.p.p.p.p.p.p.p.p.p.p.p.p.p.p.p.p.p.p.p.p.p.p.p.p.p.p.p.p.p.p.p.p.p.p.p.p.y . . . ",
"j.j.j.j.j.. . . d h.p.p.p.p.p.p.p.p.p.p.p.p.p.p.p.p.p.p.p.p.p.p.p.p.p.p.p.p.p.p.p.p.p.p.p.i.y . . . ",
"j.j.j.j.j.. . . d p.p.p.p.p.p.p.p.p.p.p.p.p.p.p.p.p.p.p.p.p.p.p.p.p.p.p.p.p.p.p.p.h.p.p.p.p.y . . . ",
"j.j.j.j.j.. O . d p.p.p.p.p.p.p.p.p.p.p.p.p.p.p.p.p.p.p.p.p.p.p.p.p.p.p.p.p.p.p.p.p.p.p.p.p.y . O . ",
"j.j.j.j.j.. . . d p.p.p.p.p.p.p.p.p.p.p.p.p.p.p.p.p.p.p.p.p.p.p.p.p.p.p.p.p.p.p.p.p.p.p.p.p.q . . . ",
"j.j.j.j.j.. . . q a p p p p a a p p a p a a p p a p a a a a a a p p a a p p p p a a p p p p # . . . ",
"j.j.j.j.j.. . O . O . . O . O O . . . . . . . . . . . . . . . . . . . X . . . . . . . . . . . . . . ",
"j.j.j.j.j.j.. X O . . . . . . . . . . O . . . . . . . . . X . . . . . . . . . . X . . . . . . . X j.",
"j.j.j.j.j.j.j.. . . . . . . . O X . . . . . . . O . . . . . . O . . X . . . . . . . . . . . . . j.j."
};
