/* XPM */
static char *_4334_4ea430c4f31f55c404faf1373df63322059a5abde6219b658398e9b09bb68add[] = {
/* columns rows colors chars-per-pixel */
"50 50 120 2 ",
"   c #2C1F2C",
".  c #2E222F",
"X  c #2E2332",
"o  c #2D2934",
"O  c #2F2739",
"+  c #2C2D39",
"@  c #312532",
"#  c #312A36",
"$  c #352D38",
"%  c #382E39",
"&  c #2A343D",
"*  c #33303A",
"=  c #3C333E",
"-  c #2E2E4F",
";  c #312C43",
":  c #312E48",
">  c #293840",
",  c #333144",
"<  c #31304C",
"1  c #35384E",
"2  c #2F3051",
"3  c #323253",
"4  c #363A50",
"5  c #383F57",
"6  c #433B45",
"7  c #453F4B",
"8  c #26464B",
"9  c #235657",
"0  c #3E5271",
"q  c #1D706B",
"w  c #1B7972",
"e  c #206160",
"r  c #4A444C",
"t  c #424557",
"y  c #4F4B55",
"u  c #534E56",
"i  c #4E5258",
"p  c #545057",
"a  c #53545A",
"s  c #575660",
"d  c #646367",
"f  c #67676B",
"g  c #68686C",
"h  c #696D77",
"j  c #666D7E",
"k  c #6E7073",
"l  c #6B7079",
"z  c #76797B",
"x  c #787B7D",
"c  c #18867B",
"v  c #168A7E",
"b  c #51887F",
"n  c #45678E",
"m  c #476D97",
"M  c #486E97",
"N  c #486F99",
"B  c #7B7F82",
"V  c #4A76A3",
"C  c #4C7CAB",
"Z  c #168E82",
"A  c #149789",
"S  c #149889",
"D  c #2C9B8D",
"F  c #0DAF9B",
"G  c #11A795",
"H  c #0FB09C",
"J  c #3DA195",
"K  c #2CB5A1",
"L  c #37BAA7",
"P  c #37BBA9",
"I  c #38BAA8",
"U  c #589D8F",
"Y  c #599D90",
"T  c #7E8384",
"R  c #7F8A94",
"E  c #5AA395",
"W  c #71AB9F",
"Q  c #5087BB",
"!  c #6D91AD",
"~  c #4EBDAB",
"^  c #63BEAA",
"/  c #65C0AB",
"(  c #7AC5B3",
")  c #538EC5",
"_  c #5390C7",
"`  c #5491C8",
"'  c #5497D2",
"]  c #5698D3",
"[  c #7BA8C7",
"{  c #828887",
"}  c #838888",
"|  c #888F8E",
" . c #808B95",
".. c #848F98",
"X. c #8F9795",
"o. c #859098",
"O. c #8D999F",
"+. c #919A97",
"@. c #98A29E",
"#. c #8E9AA0",
"$. c #99A7AA",
"%. c #9CAAAC",
"&. c #9BACB3",
"*. c #A3AFAA",
"=. c #A4B1AB",
"-. c #AFBEB7",
";. c #ADBDBA",
":. c #B5C4BC",
">. c #81B2D2",
",. c #BBCDC4",
"<. c #BACDC8",
"1. c #BED0C6",
"2. c #BED3C9",
"3. c #BDD9CE",
"4. c #C0D2C9",
"5. c #C4DACF",
"6. c #C7DBD0",
"7. c #C9DDD2",
"8. c #CBE0D4",
"9. c None",
/* pixels */
"9.9.9.9.9.9.9.9.9.9.9.9.9.9.9.9.X . . . . . . . . . . . . . . . . 9.9.9.9.9.9.9.9.9.9.9.9.9.9.9.9.9.",
"9.9.9.9.9.9.9.9.9.9.9.9.9.9.9.. . . . . . . . . . . . . . . . . . . . 9.9.9.9.9.9.9.9.9.9.9.9.9.9.9.",
"9.9.9.9.9.9.9.9.9.9.9.9.9.9.9.. . X $ * * * + + + + + + & + o . . . . . . 9.9.9.9.9.9.9.9.9.9.9.9.9.",
"9.9.9.9.9.9.9.9.9.9.9.9.9.9.9.. . # b E E E D A S S S S A S v w 9 & . . . . X 9.9.9.9.9.9.9.9.9.9.9.",
"9.9.9.9.9.9.9.9.9.9.9.9.9.9.9.. . # E / / / K H H H H H F H H H H S e + . . . . 9.9.9.9.9.9.9.9.9.9.",
"9.9.9.9.9.9.9.9.9.9.9.9.9.9.9.X . * Y / ^ ^ K H H H H H F F H H H H H c > . . . 9.9.9.9.9.9.9.9.9.9.",
"9.9.9.9.9.9.9.9.9.9.9.9.9.9.9.. . # Y / ^ ^ K H H H H H H H H H H H H H Z & . . . 9.9.9.9.9.9.9.9.9.",
"9.9.9.9.9.9.9.9.9.9.9.9.9.9.9.. . # Y / ^ ^ K H H H H H H H H H H H H H H w X . . . 9.9.9.9.9.9.9.9.",
"9.9.9.9.9.9.9.9.9.9.9.9.9.9.. . . $ U / ^ ^ K H H H H H H H H H H H H H H G 8 . . X 9.9.9.9.9.9.9.9.",
"9.9.9.9.9.9.9.9.9.9.. . . . . . . # U ^ ^ ^ K H H H H H H H H H H H H H H H q . . . . . 9.9.9.9.9.9.",
"9.9.9.9.9.9.9.9.. . . X . .     . o U ^ ^ ^ K F H H H H F F H H F F F H F H v X .   . . @ . 9.9.9.9.",
"9.9.9.9.9.9.9.X . . . @ 6 r u u u a W ( ( ( ~ L L L L L L L L L I L L L I I J i y r %   . . . 9.9.9.",
"9.9.9.9.9.9.. . . @ u +.:.4.4.1.1.2.5.5.5.5.3.3.3.3.3.5.3.5.3.3.5.3.3.3.3.5.3.4.1.,.*.h %   . . 9.9.",
"9.9.9.9.9.X . . . g ,.8.7.7.7.7.6.7.7.5.7.6.7.7.7.7.6.6.7.7.6.6.7.6.7.7.6.7.6.8.7.7.7.6.X.% . . X 9.",
"9.9.9.9.. . . . # g x z z z z z z z z z z z z z z z z z z z z z z z x | -.6.7.6.7.6.6.6.7.{ @ . . 9.",
"9.. . . . . X . . .       .         . . .         .     .     .   . . . 6 @.6.7.6.6.7.6.7.-.6 . . . ",
". . . . . . .   . . . @ @   . X . . . . X . . .   @ @ . .   @ . . . . .   r ,.7.7.7.6.7.7.4.u   . . ",
". . . 6 T } } } } } } } { { {  .{ { { { } } { { { { } } { { B h h h u . . % *.7.6.6.7.6.7.,.u   . X ",
". .   u 4.8.7.7.7.7.7.8.7.7.8.7.8.7.7.7.7.8.8.8.7.7.8.7.7.8.<.&.&.&.l . . % *.7.7.6.6.7.7.4.u   . . ",
". .   u 4.7.6.6.7.7.8.8.7.7.7.7.7.8.8.7.8.8.7.7.7.7.8.7.7.7.<.&.&.&.l . . % *.7.6.7.6.6.7.4.p   @ . ",
". . . u ,.7.6.*. . . . .R R R R  . . . . . .R R  . . .;.7.7.<.&.&.&.h . . % *.8.7.6.6.6.7.<.u . . . ",
"@ . . u 4.7.6.h : 3 2 3 2 3 3 3 3 3 3 3 3 : 3 3 2 3 3 #.7.7.<.&.&.&.h . . % *.7.6.7.7.6.7.4.u   . . ",
". .   u 4.6.6.n 3 3 3 3 3 3 3 3 3 3 3 3 3 3 3 3 3 3 4 #.7.7.<.&.&.&.h   . % *.8.7.7.6.7.7.<.u . . . ",
". . . u ,.6.6.B 2 3 3 3 3 3 3 3 3 3 3 3 3 3 3 3 3 3 3 #.7.7.4.&.&.&.l .   % *.7.6.6.7.6.7.4.u   . . ",
". . . u 4.6.6.%.R #.R #.R ..#.R o.o.o.o.o.o.....o.....;.7.7.<.&.&.&.h . . % *.8.6.7.6.7.6.1.u   X . ",
". . . u 4.6.6.7.7.7.7.7.7.7.7.7.7.7.7.7.7.7.7.7.7.7.7.7.7.7.<.&.&.&.h .   % *.7.7.6.7.6.7.1.u . . . ",
"@ . . u 4.7.7.7.7.7.5.7.7.7.5.7.7.7.7.6.7.7.7.5.7.7.7.7.7.7.<.&.&.&.l . . % *.7.6.7.6.7.7.1.u . . . ",
". .   u 4.7.7.7.7.7.7.5.7.7.7.7.7.7.7.7.7.7.7.7.7.7.7.7.7.7.<.&.&.&.l .   % *.7.7.7.7.7.6.1.u   . . ",
". @ . = d d f f d f f f f f f f f f f f f f f f f f f f f f d s s s 7 . @ ; ! >.[ [ >.>.>.[ t . . . ",
". . . .                                                             . . . 8 ` ' ] ] ] ] ' _ 5 . . X ",
"9.. . . . . . . X X . . . . . . . . . . . @ . .   . @ . . . . . . . . @ 5 C ] ] ] ] ] ] ] _ 5 . . . ",
"9.9.9.9.. .   @ s M M M M M M M M M M M M M M M M M M M M M M M M M m V ) ] ] ] ] ] ] ] ] ) 5 . @ . ",
"9.9.9.9.9.. X @ M ] ] ] ] ] ] ] ] ] ] ] ] ] ] ] ] ] ] ] ] ] ] ] ] ] ] ] ] ] ] ] ] ] ] ] ] ) 5 . . . ",
"9.9.9.9.9.. . X N ] ] ] ] ] ] ] ] ] ] ] ] ] ] ] ] ] ] ] ] ] ] ] ] ] ] ] ] ] ] ] ] ` ] ] ] ) 5   . . ",
"9.9.9.9.9.. X X N ] ] ] ] ] ] ] ] ] ] ` ] ] ] ] ] ] ] ] ' ] ' ] ] ] ] ] ] ] ] ] ] ] ] ] ] ) 5 . . . ",
"9.9.9.9.9.. . @ N ] ] ] ] ] ] ] ] ] ] ] ] ] ] ] ] ] ] ] ' ' ' ] ] ] ] ] ] ] ] ] ] ] ] ] ] ) 5   . . ",
"9.9.9.9.9.. . X M ] ] ] ] ] ] ] ] ] ] ] ] ] ] ] ] ] ] ] ] ] ] ] ] ] ] ] ] ] ] ] ] ] ] ] ] ` 5 . . @ ",
"9.9.9.9.9.. . @ M ] ] ] ] ] ] ] ] ] ] ] ] ] ] ] ] ] ] ] ] ] ] ] ] ] ] ] ] ] ] ] ] ] ] ] ] ` 5 . . . ",
"9.9.9.9.9.X . X M ] ] ] ] ] ] ] ] ] ] ] ] ] ] ] ] ] ] ] ] ] ] ] ] ] ] ] ] ] ] ] ] ] ] ] ] ` 5   . . ",
"9.9.9.9.9.. . @ m ` ) ) ) ) ) ` ) ) ) ) ) ) ) ) ` ` ` ` ) ) ) ) ` ) ) ) ) ) ) ) ) ) ) ) ) Q 4 . . X ",
"9.9.9.9.9.. . X ; 1 4 4 4 4 4 4 4 4 4 4 4 4 4 4 4 4 4 4 4 4 4 1 4 4 4 4 4 4 4 4 4 4 4 4 4 1 #   . . ",
"9.9.9.9.9.. . . . . . . . . . . . X   . . . . . . . . . . . . .   . .   . . .   . . . . . . . . . 9.",
"9.9.9.9.9.9.. . . . . . . . . . X X X @ . @ X X . . . . . . . . . . X X @ X @ @ . @ .   @ . . . 9.9.",
"9.9.9.9.9.9.9.9.9.9.9.9.. . . # < < : 3 < < : X . . . 9.9.9.9.. . . O : : : 2 2 < < $ @ . . 9.9.9.9.",
"9.9.9.9.9.9.9.9.9.9.9.9.. . . # 3 3 3 3 3 3 3 O . . . 9.9.9.9.. . . # 3 3 3 3 3 3 3 ; . . . 9.9.9.9.",
"9.9.9.9.9.9.9.9.9.9.9.9.. . X O 3 3 3 3 3 3 3 O . . . 9.9.9.9.X . . # < 3 3 3 3 3 3 $ . . . 9.9.9.9.",
"9.9.9.9.9.9.9.9.9.9.9.9.. @ X O : : : ; : : : # @ . . 9.9.9.9.. . . @ ; : : : : : : O . @ . 9.9.9.9.",
"9.9.9.9.9.9.9.9.9.9.9.9..   X . . . X @ . @ . . . . . 9.9.9.9.. . @ . . X . . X X X . . . . 9.9.9.9.",
"9.9.9.9.9.9.9.9.9.9.9.9.9.X . . X . . X . . . . . . 9.9.9.9.9.9.. . . . X   @   . . . . . 9.9.9.9.9.",
"9.9.9.9.9.9.9.9.9.9.9.9.9.9.. . . . . . . . @ . . 9.9.9.9.9.9.9.9.. X X   @ . @ . . . X 9.9.9.9.9.9."
};
