/* XPM */
static char *_2976_7a768f42fcda62a5a8fd123c1d9c6a02932e418f518f6054e733f79c3b30f839[] = {
/* columns rows colors chars-per-pixel */
"50 50 117 2 ",
"   c #2B1E2C",
".  c #2E222F",
"X  c #2E2332",
"o  c #2C2935",
"O  c #2F273A",
"+  c #2C2E39",
"@  c #312633",
"#  c #332834",
"$  c #312C3E",
"%  c #2A333C",
"&  c #33303A",
"*  c #3B323D",
"=  c #2E2E4F",
"-  c #302C45",
";  c #312E48",
":  c #293C43",
">  c #353740",
",  c #373C43",
"<  c #31314C",
"1  c #35384E",
"2  c #323253",
"3  c #363A50",
"4  c #433B45",
"5  c #443E49",
"6  c #244F52",
"7  c #235556",
"8  c #3C4B67",
"9  c #3D4E6C",
"0  c #1F6663",
"q  c #1C7770",
"w  c #1B7B73",
"e  c #4B454D",
"r  c #4F4A53",
"t  c #504B53",
"y  c #4E545A",
"u  c #4D586C",
"i  c #575660",
"p  c #575F63",
"a  c #5E5C61",
"s  c #53586F",
"d  c #555A70",
"f  c #67676B",
"g  c #68686C",
"h  c #696D76",
"j  c #6A6E78",
"k  c #76797B",
"l  c #198178",
"z  c #178B7F",
"x  c #436185",
"c  c #486E97",
"v  c #486E99",
"b  c #4A75A2",
"n  c #4C79A7",
"m  c #4C7CAB",
"M  c #168D81",
"N  c #159285",
"B  c #149789",
"V  c #149889",
"C  c #299B8D",
"Z  c #0DAF9B",
"A  c #10AB98",
"S  c #0FB09C",
"D  c #3DA195",
"F  c #26B4A0",
"G  c #28B4A0",
"H  c #37BAA7",
"J  c #37BBA9",
"K  c #38BAA8",
"L  c #559489",
"P  c #7C8083",
"I  c #7F8A94",
"U  c #5BA395",
"Y  c #5EAC9C",
"T  c #4F84B6",
"R  c #5086B9",
"E  c #5089BF",
"W  c #6E91AD",
"Q  c #4BBDAB",
"!  c #64BEAA",
"~  c #75B6A7",
"^  c #65C1AC",
"/  c #7AC5B3",
"(  c #538EC5",
")  c #5390C7",
"_  c #5497D2",
"`  c #5698D3",
"'  c #828887",
"]  c #838888",
"[  c #888F8E",
"{  c #808B95",
"}  c #848F98",
"|  c #859098",
" . c #919997",
".. c #98A29F",
"X. c #919EA3",
"o. c #94A2A5",
"O. c #9DA8A4",
"+. c #9BAAAB",
"@. c #9BADB3",
"#. c #9EB0B7",
"$. c #A5B2AC",
"%. c #A9B6B0",
"&. c #AEBCB5",
"*. c #B4C4BD",
"=. c #80B1D2",
"-. c #B4C5C0",
";. c #BCCEC5",
":. c #BCCFC9",
">. c #BFD1C7",
",. c #BED2CA",
"<. c #BDD9CE",
"1. c #C3D5CC",
"2. c #C2DACF",
"3. c #C7DBD0",
"4. c #C9DDD2",
"5. c #CBE0D4",
"6. c None",
/* pixels */
"6.6.6.6.6.6.6.6.6.6.6.6.6.6.6.6.. X . . . . . . . . . . . . . . . 6.6.6.6.6.6.6.6.6.6.6.6.6.6.6.6.6.",
"6.6.6.6.6.6.6.6.6.6.6.6.6.6.6.. . . . . . . . . . . . . . . . . . . . 6.6.6.6.6.6.6.6.6.6.6.6.6.6.6.",
"6.6.6.6.6.6.6.6.6.6.6.6.6.6.. X . X $ & & & + + + + + + + + o . . . . . . 6.6.6.6.6.6.6.6.6.6.6.6.6.",
"6.6.6.6.6.6.6.6.6.6.6.6.6.6.. . . * L U U U C V V V V V V B z q 7 % . . . X . 6.6.6.6.6.6.6.6.6.6.6.",
"6.6.6.6.6.6.6.6.6.6.6.6.6.6.X . . 6 Y ^ ^ ^ G S S S S S S S S S Z V 0 + . . . . 6.6.6.6.6.6.6.6.6.6.",
"6.6.6.6.6.6.6.6.6.6.6.6.6.6.. . . * Y ^ ^ ^ G Z S S S S S S S S S S Z z : . . . . 6.6.6.6.6.6.6.6.6.",
"6.6.6.6.6.6.6.6.6.6.6.6.6.6.. . . * Y ^ ^ ! F Z S S S S S S S S S S S S N : . . . 6.6.6.6.6.6.6.6.6.",
"6.6.6.6.6.6.6.6.6.6.6.6.6.6.. . . * Y ^ ^ ! F Z S S S S S S S S S S S S S l o . . @ 6.6.6.6.6.6.6.6.",
"6.6.6.6.6.6.6.6.6.6.6.6.6.6.. . . , Y ^ ! ! G S S S S S S S S S S A S S S A 6 . . . 6.6.6.6.6.6.6.6.",
"6.6.6.6.6.6.6.6.6.6.. X . . . . . , Y ^ ! ! G S S S S S S S S S S S S S S S w X @ . . . 6.6.6.6.6.6.",
"6.6.6.6.6.6.6.6.. . . . . .   .   > U ^ ! ! G Z Z S Z S Z S Z Z Z Z Z Z S S N o     . . . . 6.6.6.6.",
"6.6.6.6.6.6.6.. . . . # 4 r t t r p ~ / / / Q K H H H H H K H H K K K K K J D y t e * . . . . . 6.6.",
"6.6.6.6.6.6.. . . @ a ..*.>.1.>.>.,.<.2.2.2.<.<.<.2.<.2.2.<.<.<.2.<.<.<.<.<.,.1.1.;.%.k > . X X 6.6.",
"6.6.6.6.6.. . . # k 1.5.3.3.4.3.4.4.4.4.4.4.4.4.4.4.3.4.3.4.4.4.4.4.4.4.4.4.3.4.3.4.4.3.O.5   . . 6.",
"6.6.6.X . . . . * h k k k k k k k k k k k k k k k k k k k k k k k k k [ &.3.4.3.4.4.4.4.4. .O   . . ",
"6.. . . . X . . .   . . . .       .   .       .               .       . 4  .3.4.3.3.4.3.4.;.r   . X ",
". . X . . . . X . . . . X   X X . . .   . . . . . X . . @ . . . X . . X   4 &.4.4.4.4.4.4.3.f   . . ",
". X   t ] ] ] ] ] ] ] ] ] ] ] ] ' ' ' ' ' ' ] ' ' ' ] ] ' ' c h h h r   . O %.4.4.4.4.3.3.4.g   . . ",
"X .   g 4.4.5.4.4.4.5.5.4.4.4.5.5.5.4.4.4.5.5.5.4.4.5.4.4.4.4.%.@.#.h . . # $.4.3.4.3.4.4.4.g   X . ",
". .   g 4.4.3.4.5.5.4.5.5.4.5.4.4.4.5.5.5.5.4.4.4.4.5.4.4.3.1.$.@.@.h   . # $.4.4.3.4.3.3.3.g   . . ",
". X   f 4.3.1.X.{ { { { { { { { { { { { { { { { { { } -.4.4.1.O.@.@.h   . # %.4.3.3.4.3.4.4.g   . . ",
". .   f 4.4.1.s ; 2 2 2 2 2 < < 2 2 < 2 = 2 2 2 2 2 2 +.4.4.1.@.@.@.h   . # $.4.3.4.3.4.3.4.g   . . ",
". X   f 3.4.1.d 2 2 2 2 2 2 2 2 2 2 2 2 2 2 2 2 2 2 2 +.4.3.1.+.@.@.h   . # $.4.4.3.4.3.4.4.g   . . ",
". .   g 3.1.1.s 2 < 2 2 2 2 2 2 2 2 2 2 2 2 2 2 2 2 2 +.4.3.;.@.@.@.h . . # %.4.3.4.3.4.3.4.g   . X ",
". .   f 4.4.1.X.} } } | | | | | | | } } | | } } } } | -.4.4.1.@.@.@.h     # $.4.3.4.3.3.3.3.f   . . ",
". .   g 4.4.4.4.4.4.4.4.4.4.4.4.4.4.4.4.4.4.4.4.4.4.4.4.4.4.1.@.@.@.h   . # %.4.4.3.4.4.4.3.f   . . ",
". .   g 4.4.4.4.4.4.4.4.4.4.4.3.4.4.4.4.4.4.4.4.3.4.3.3.3.3.;.@.@.@.h   . # $.4.3.4.4.3.3.4.f   X . ",
"X .   g 4.4.4.4.4.4.4.4.4.4.4.4.4.4.4.4.4.4.4.4.4.4.4.4.3.3.:.@.@.#.h   X # $.4.4.4.4.4.4.4.h   . . ",
". . . 4 f f f f g f f f f f f f f f f f f f f f f f f f g g f i i i 4 . . # W =.=.=.=.=./ =.s   . . ",
". . . .                                                             . . . 2 E _ _ _ _ _ _ _ 9   . . ",
"6.. @ . . . . X . . . . . . . . . . . . . . . . . . . . . .   X . . . @ 3 n ` ` ` ` _ _ ` ` 9 . . @ ",
"6.6.6.6.. . X # x v c c c c c c c c c c c c c c c v c c c v v v v v v b ( ` ` ` ` ` _ _ ` ` 9 . . . ",
"6.6.6.6.. . . $ R ` ` ` ` ` ` ` ` ` ` ` ` ` ` ` ` ` ` ` ` ` ` ` ` ` ` ` ` ` ` ` ) ` ` ` ` ` u   . . ",
"6.6.6.6.. . . * R ` ` ` ` ` ` ` ` ` ` ` ` ` ` ` ` ` ` ` ` ` ` ` ` ` ` ` ` ` ` ` ` ` ` ` ` ` 8   . . ",
"6.6.6.6.. . . - R ` ` ` ` ` ` ` ` ` ` _ ` ` ` ` ` ` ` ` ` ` ` ` ` ` ` ` ` ` ` ` ` ` ` ` ` ` 8   . . ",
"6.6.6.6.. . . $ R ` ` ` ` ` ` ` ` ` ` ` ` ` ` ` ` ` ` ` ` ` ` ` ` ` ` ` ` ` ` ` ` ` ` ` ` _ 9   . . ",
"6.6.6.6.. . . $ R ` ` ` ` ` ` ` ` ` ` ` ` ` ` ` ` ` ` ` ` ` ` ` ` ` ` ` ` ` ` ` _ ` ` _ ` ` 9   . @ ",
"6.6.6.6.@ . . $ R ` ` ` ` ` ` ` ` ` ` ` ` ` ` ` ` ` ` ` ` ` ` ` ` ` ` ` ` ` ` ` ` ` ` _ ` ` 9 . . . ",
"6.6.6.6.. . . $ T ` ` ` ` ` ` ` ` ` ` ` ` ` ` ` ` ` ` ` ` ` ` ` ` ` ` ` ` ` ` ` ` ` _ _ _ _ 9   . . ",
"6.6.6.6.. . . $ m ) ( ( ) ( ( ( ( ( ( ( ( ( ( ( ) ( ) ( ( ( ( ( ) ) ) ) ( ( ( ( ( ( ( ( ( ( u   . . ",
"6.6.6.6.6..   @ 1 1 1 1 3 1 3 3 1 3 3 1 3 3 3 3 3 3 3 3 1 1 3 1 3 3 3 3 3 3 3 3 1 1 1 1 1 1 $ . . X ",
"6.6.6.6.6.. . . . . . . . . . . . X . . . . . . . . . . . . . . . .   X .   . . . . .   . . . . . . ",
"6.6.6.6.6.6.@ . . . . . . . . . X X X X @ X X X . . . . . . X . . . X X @ X @ X @ @ X . . . . . 6.6.",
"6.6.6.6.6.6.6.6.6.6.6.6.. . . $ < < < < ; < ; X . . . 6.6.6.6.. . . X ; ; ; ; 2 ; < - . . . 6.6.6.6.",
"6.6.6.6.6.6.6.6.6.6.6.6.. . . $ 2 2 2 2 2 2 2 O . . . 6.6.6.6.. . . X 2 2 2 2 2 2 2 - . . . 6.6.6.6.",
"6.6.6.6.6.6.6.6.6.6.6.6.. . . $ 2 2 2 2 2 2 2 @ . . . 6.6.6.6.. . . @ < 2 2 2 2 2 2 - . . @ 6.6.6.6.",
"6.6.6.6.6.6.6.6.6.6.6.6.. . . O ; ; ; ; < ; ; @ @ . . 6.6.6.6.. . . X - ; ; ; ; ; ; $ . . . 6.6.6.6.",
"6.6.6.6.6.6.6.6.6.6.6.6.. .   @ X . . @ . . . . . . . 6.6.6.6.X . X . X . @   X X X . . @ . 6.6.6.6.",
"6.6.6.6.6.6.6.6.6.6.6.6.6.. X . . . @ . . . . . . . 6.6.6.6.6.6.. . . . . . . X . . . . . . 6.6.6.6.",
"6.6.6.6.6.6.6.6.6.6.6.6.6.6.. . . . . . . . . . . 6.6.6.6.6.6.6.6.. X . . . . . . . X . 6.6.6.6.6.6."
};
