/* XPM */
static char *_1665_c0e41d187bc251eeb7a87e867aea12a6194ce56e5e6075d12a81e5d4b83c9e79[] = {
/* columns rows colors chars-per-pixel */
"50 50 121 2 ",
"   c #2C1F2C",
".  c #2E222F",
"X  c #2E2432",
"o  c #2D2B36",
"O  c #2F2739",
"+  c #2C2E3A",
"@  c #302735",
"#  c #312A36",
"$  c #352D38",
"%  c #382E3A",
"&  c #2A343D",
"*  c #33303A",
"=  c #3C333E",
"-  c #2E2E4F",
";  c #302C44",
":  c #312E49",
">  c #293840",
",  c #343347",
"<  c #31304C",
"1  c #35384E",
"2  c #2F3051",
"3  c #323253",
"4  c #363A50",
"5  c #383F57",
"6  c #403742",
"7  c #433C45",
"8  c #453F4B",
"9  c #26464A",
"0  c #235455",
"q  c #20615F",
"w  c #1E6D68",
"e  c #1C7770",
"r  c #4B454D",
"t  c #424557",
"y  c #4F4B55",
"u  c #534E56",
"i  c #4F5258",
"p  c #545057",
"a  c #53545A",
"s  c #575660",
"d  c #41597B",
"f  c #646367",
"g  c #67676B",
"h  c #68686C",
"j  c #6B6E76",
"k  c #666D7E",
"l  c #6B7079",
"z  c #76797B",
"x  c #787B7D",
"c  c #16867B",
"v  c #18857B",
"b  c #51887F",
"n  c #486E97",
"m  c #486F99",
"M  c #49719C",
"N  c #7B7F82",
"B  c #4B77A4",
"V  c #4B78A6",
"C  c #4D7CAA",
"Z  c #178C80",
"A  c #149789",
"S  c #149889",
"D  c #2C9B8D",
"F  c #0DAF9B",
"G  c #11A795",
"H  c #10AE9A",
"J  c #0FB09C",
"K  c #3DA094",
"L  c #2CB5A1",
"P  c #37BAA7",
"I  c #37BBA9",
"U  c #38BAA8",
"Y  c #589D8F",
"T  c #599D90",
"R  c #7D8182",
"E  c #7F8A94",
"W  c #5AA395",
"Q  c #71AB9F",
"!  c #5087BB",
"~  c #6E92AF",
"^  c #4EBDAB",
"/  c #63BEAA",
"(  c #65C0AB",
")  c #7AC5B3",
"_  c #538EC5",
"`  c #5390C7",
"'  c #5491C8",
"]  c #5497D2",
"[  c #5698D3",
"{  c #7BA8C7",
"}  c #828887",
"|  c #838888",
" . c #89908F",
".. c #808B95",
"X. c #848F98",
"o. c #8F9795",
"O. c #859098",
"+. c #8D999F",
"@. c #919A97",
"#. c #98A29E",
"$. c #8E9AA0",
"%. c #99A7AA",
"&. c #9CAAAC",
"*. c #9BACB3",
"=. c #A3AFAA",
"-. c #A5B2AC",
";. c #ADBDBA",
":. c #B0BFB8",
">. c #B3C3BB",
",. c #81B2D2",
"<. c #BBCCC3",
"1. c #BACDC8",
"2. c #BED0C6",
"3. c #BED3C9",
"4. c #BDD9CE",
"5. c #C0D2C9",
"6. c #C4DACF",
"7. c #C7DBD0",
"8. c #C9DDD2",
"9. c #CBE0D4",
"0. c None",
/* pixels */
"0.0.0.0.0.0.0.0.0.0.0.0.0.0.0.0.. X . . . . . . . . . . . . . . . 0.0.0.0.0.0.0.0.0.0.0.0.0.0.0.0.0.",
"0.0.0.0.0.0.0.0.0.0.0.0.0.0.0.. . . . . . . . . . .   . . . . . . . . 0.0.0.0.0.0.0.0.0.0.0.0.0.0.0.",
"0.0.0.0.0.0.0.0.0.0.0.0.0.0.0.. . . $ * $ * & + o & o & & + o . . . . . . 0.0.0.0.0.0.0.0.0.0.0.0.0.",
"0.0.0.0.0.0.0.0.0.0.0.0.0.0.0.X . $ b W W W D S S S S S A S c e 0 & . . . X . 0.0.0.0.0.0.0.0.0.0.0.",
"0.0.0.0.0.0.0.0.0.0.0.0.0.0.0.. . $ W / ( / L J J J J J H J J J J S q o . . . . 0.0.0.0.0.0.0.0.0.0.",
"0.0.0.0.0.0.0.0.0.0.0.0.0.0.0.. . o Y ( / / L J J J J J H J J J J J J v & . . . 0.0.0.0.0.0.0.0.0.0.",
"0.0.0.0.0.0.0.0.0.0.0.0.0.0.0.. . $ Y ( / / L J J J J J J J J J J J J J Z & . . . 0.0.0.0.0.0.0.0.0.",
"0.0.0.0.0.0.0.0.0.0.0.0.0.0.0.. . $ Y ( / / L J J J J J J J J J J J J J J e o . . . 0.0.0.0.0.0.0.0.",
"0.0.0.0.0.0.0.0.0.0.0.0.0.0.. . . $ T ( / / L J J J J J J J J J J F H J J G 9 . X . 0.0.0.0.0.0.0.0.",
"0.0.0.0.0.0.0.0.0.0.. X . . . . . $ T / / / L F J J J J F H J J J J J J J J w . . . . . 0.0.0.0.0.0.",
"0.0.0.0.0.0.0.0.. . . . . . . .   o Y / / / L F J J J J F F F F F F F F J J c . .   . . . . 0.0.0.0.",
"0.0.0.0.0.0.0.. . . . @ 7 u r r y a Q ) ) ) ^ P U U U U U U U U U U U P U I K i y r % . . . . 0.0.0.",
"0.0.0.0.0.0.. . . . u @.>.5.5.5.2.2.6.6.6.6.4.4.4.6.4.4.4.4.4.4.4.4.4.6.4.4.3.5.<.<.-.j % . . . 0.0.",
"0.0.0.0.0.X . . @ h <.8.9.8.8.8.8.8.8.8.8.8.8.8.7.8.8.8.8.8.8.8.8.8.8.8.8.8.8.8.8.8.8.7.@.= . . X 0.",
"0.0.0.0.. . . . # h x x x x x z z z z z x z z z z z z z z x x z z z x  .:.7.7.8.8.7.8.8.8.x . . . 0.",
"0.. . . . . X . .                     .                             . . 7 #.8.8.7.7.8.7.8.:.6 . . . ",
". . . . . . . . . . . . . . . . . X . . . . . . . . . . . . . . . . X X   r <.8.8.7.8.7.7.5.u   . . ",
". . . 7 R | | | | } } } | } } | R | } } } } } } } } | | } } N j j j y . . % -.8.7.8.7.8.7.5.u   . @ ",
". .   p 5.9.8.8.8.8.8.9.8.9.8.8.8.9.9.9.9.9.9.9.8.9.9.9.9.9.1.*.*.*.l . . % =.8.7.8.8.7.8.5.u . . . ",
". .   u 5.8.7.8.9.9.9.9.9.9.8.8.9.9.8.9.8.9.8.8.8.8.8.8.8.8.1.*.*.*.l . . $ =.8.7.7.8.8.7.5.p   . . ",
". .   u 5.7.7.%.......................................:.8.8.1.*.&.*.l   . % =.9.8.7.7.8.8.1.p   . . ",
"@ . . p 5.7.6.k : 2 2 2 3 3 3 3 - 3 3 3 2 3 3 3 2 3 3 $.8.8.1.*.*.*.l . . % =.8.7.8.8.7.8.1.u   . . ",
". .   u 5.7.5.k 3 3 3 3 3 3 3 3 3 3 3 3 3 3 3 3 3 3 4 $.8.8.1.*.*.*.j . . % =.9.8.7.8.7.8.5.u   . . ",
". . . u 1.7.6.N 3 3 3 3 3 3 3 3 3 3 3 3 3 3 3 3 3 3 3 $.8.8.5.*.*.*.l .   % =.8.7.8.7.8.8.5.u   @ . ",
". .   u 5.7.7.&.O.O.O.O.O.O.O.O.O.O.O.O.O.O.O.O.X.X.O.:.8.8.1.*.*.*.j . . % =.8.8.7.8.7.8.2.u . . . ",
". . . p 5.7.7.8.8.8.8.8.8.8.8.8.8.8.8.8.8.8.8.8.8.8.8.8.8.8.1.*.*.*.l     % =.8.7.8.7.8.8.2.u   . . ",
". .   u 5.8.8.7.8.7.7.7.8.8.8.8.8.8.8.8.8.8.7.7.7.8.8.7.8.8.1.*.*.*.l . . % =.8.7.8.8.7.8.2.u . . . ",
"@ . . u 5.8.8.8.8.8.8.7.8.8.8.8.8.8.8.8.8.8.8.7.8.8.8.8.8.8.1.*.*.*.l .   % =.8.8.7.8.8.8.<.u   . . ",
". . . = f g g g g g g g g g g g g g g g g g g g g g g g h h f s s s 8 . . ; ~ ,.,.,.,.,.,.{ t . . . ",
". . .                                                                 X . 9 _ ] ] ] ] ] ] ` 5 . . . ",
"0.. @ . . . . . @ . . . . . . . . . . . . . . .   .   @ X   . . . . . O 8 C [ [ [ [ ' [ [ ` 5 . . . ",
"0.0.0.0.. .   @ d n n n n n n n n n n n n n n n n n n n n n m m n n n V ' [ [ [ [ [ [ [ [ _ 5   @ . ",
"0.0.0.0.0.. @ @ V [ [ [ [ [ [ [ [ [ [ [ [ [ [ [ [ [ [ [ [ [ [ [ [ [ [ [ [ [ [ [ [ [ [ [ [ _ 5   . . ",
"0.0.0.0.0.. . @ C [ [ [ [ [ [ [ [ [ [ [ [ [ [ [ [ [ [ [ [ [ [ [ [ [ [ [ [ [ [ [ [ [ [ [ [ _ 8   . . ",
"0.0.0.0.0.. . @ V [ [ [ [ [ [ [ ] [ [ ] [ [ [ [ [ [ [ [ ' [ [ [ [ [ [ [ [ [ [ [ ' [ [ [ [ _ 5 . . . ",
"0.0.0.0.0.. . @ V [ [ [ [ [ [ [ [ [ [ ] [ [ [ [ [ [ [ [ [ [ [ [ [ [ [ [ [ [ [ [ [ [ [ [ [ ' 5 . . . ",
"0.0.0.0.0.. . @ C [ [ [ [ [ [ [ [ [ [ ] [ [ [ [ [ [ [ [ [ [ [ [ [ [ [ [ [ [ [ [ [ [ [ [ [ ` 5 . . . ",
"0.0.0.0.0.. . @ V [ [ [ [ [ [ [ [ [ [ ] [ [ [ [ [ [ [ [ [ [ [ [ [ [ [ [ [ [ [ [ [ [ [ [ [ ' 5 . . . ",
"0.0.0.0.0.@ . @ V [ [ [ [ [ [ [ [ [ [ [ [ [ [ [ [ [ [ [ [ [ [ [ [ [ [ [ [ [ [ [ [ [ [ [ [ ' 5   . . ",
"0.0.0.0.0.. . @ M ' _ _ _ _ _ ' _ _ _ _ _ _ _ _ ' ' ' _ _ _ _ _ ' ' _ _ _ _ _ _ _ _ _ _ ` ! 4 . . @ ",
"0.0.0.0.0.. . X , 4 4 4 4 4 4 4 4 4 4 4 4 1 4 4 4 4 4 4 4 4 4 1 4 4 4 1 4 4 4 4 3 4 4 4 4 1 @ @ . . ",
"0.0.0.0.0.. . . . . . . . .   . .   . . . . .   . . . . . . . .   . . . . .   . . .     . . .   . 0.",
"0.0.0.0.0.0.. . . . . . . . . . @ X @ @ @ @ X . . . . . . . . . . . X X @ . @ X @ X X X . . . . 0.0.",
"0.0.0.0.0.0.0.0.0.0.0.0.. . . # : : : 3 : : : O . . . 0.0.0.0.X . . O : : : : : : : # X @ . 0.0.0.0.",
"0.0.0.0.0.0.0.0.0.0.0.0.. . @ O 3 3 3 3 3 3 3 O . . . 0.0.0.0.. . . @ 3 3 3 3 3 3 3 # . . . 0.0.0.0.",
"0.0.0.0.0.0.0.0.0.0.0.0.. . @ O 3 3 3 3 3 3 3 O . . . 0.0.0.0.. . . @ ; ; ; : ; : : O . . . 0.0.0.0.",
"0.0.0.0.0.0.0.0.0.0.0.0.. . . @ ; : ; : : : : @ @ . . 0.0.0.0.. . . . . . @ . . X   . . . . 0.0.0.0.",
"0.0.0.0.0.0.0.0.0.0.0.0.@ . . . . . @ . @ . . . . . . 0.0.0.0.0.. . . . . . . .   @ . @ . 0.0.0.0.0.",
"0.0.0.0.0.0.0.0.0.0.0.0.0.@ . . . . . . . . . . . . 0.0.0.0.0.0.0.0.. . . @ . . . . . @ 0.0.0.0.0.0.",
"0.0.0.0.0.0.0.0.0.0.0.0.0.0.. . . X . . . @ . . . 0.0.0.0.0.0.0.0.0.0.0.0.0.0.0.0.0.0.0.0.0.0.0.0.0."
};
