/* XPM */
static char *_4156_192b146b71e20a8a1cd5fb1bcee5380bc7fe6f9b1b56e7a114853d277478fe66[] = {
/* columns rows colors chars-per-pixel */
"50 50 158 2 ",
"   c #2D202B",
".  c #2D202C",
"X  c #2D212C",
"o  c #2D212D",
"O  c #2E212D",
"+  c #2E212E",
"@  c #2E222E",
"#  c #2E222F",
"$  c #2E2230",
"%  c #2E2330",
"&  c #2E2331",
"*  c #2F2432",
"=  c #2F2433",
"-  c #2F2533",
";  c #2F2535",
":  c #2F2634",
">  c #302534",
",  c #302535",
"<  c #302536",
"1  c #302636",
"2  c #312737",
"3  c #312738",
"4  c #312739",
"5  c #302939",
"6  c #31283B",
"7  c #31293C",
"8  c #322A3E",
"9  c #332B3F",
"0  c #322D3E",
"q  c #332D43",
"w  c #342E46",
"e  c #362F46",
"r  c #342F48",
"t  c #333042",
"y  c #333043",
"u  c #363049",
"i  c #373049",
"p  c #37314A",
"a  c #37314B",
"s  c #35324C",
"d  c #36324D",
"f  c #35374C",
"g  c #38324D",
"h  c #363350",
"j  c #373451",
"k  c #373452",
"l  c #373552",
"z  c #373553",
"x  c #393451",
"c  c #3A3654",
"v  c #3A3755",
"b  c #383756",
"n  c #3A3756",
"m  c #3B3756",
"M  c #373E55",
"N  c #373E56",
"B  c #3B3856",
"V  c #3B3857",
"C  c #393859",
"Z  c #39395A",
"A  c #39395B",
"S  c #3C3A5B",
"D  c #393A5C",
"F  c #3A3B5E",
"G  c #3C3A5C",
"H  c #3A3C5F",
"J  c #3D3C5E",
"K  c #3A3C60",
"L  c #3B3C61",
"P  c #3B3D61",
"I  c #3B3D62",
"U  c #3B3D63",
"Y  c #3E3D60",
"T  c #3C3F67",
"R  c #3C4067",
"E  c #3C4068",
"W  c #3D426C",
"Q  c #3E436E",
"!  c #3E446F",
"~  c #3F4571",
"^  c #3F4673",
"/  c #3F5576",
"(  c #42436C",
")  c #42446E",
"_  c #42456E",
"`  c #434570",
"'  c #404774",
"]  c #444874",
"[  c #454875",
"{  c #464A78",
"}  c #464B79",
"|  c #424C7F",
" . c #424D7F",
".. c #474C7C",
"X. c #474D7D",
"o. c #434D81",
"O. c #434E81",
"+. c #434E82",
"@. c #484E80",
"#. c #484F81",
"$. c #494F81",
"%. c #445086",
"&. c #495082",
"*. c #495083",
"=. c #495084",
"-. c #495184",
";. c #4A5185",
":. c #425E82",
">. c #435F84",
",. c #445188",
"<. c #455289",
"1. c #46548D",
"2. c #46558E",
"3. c #475691",
"4. c #475692",
"5. c #485895",
"6. c #485997",
"7. c #495A98",
"8. c #495A99",
"9. c #495B99",
"0. c #495B9A",
"q. c #4A5D9E",
"w. c #436085",
"e. c #476C95",
"r. c #4B5EA1",
"t. c #4B5FA1",
"y. c #4C61A5",
"u. c #4C61A6",
"i. c #4D62A8",
"p. c #4D63A8",
"a. c #4D63A9",
"s. c #4D63AA",
"d. c #4D64AA",
"f. c #4D64AB",
"g. c #4E64AB",
"h. c #4E65AC",
"j. c #4E65AD",
"k. c #4E65AE",
"l. c #4E66AE",
"z. c #4E66AF",
"x. c #4F66AF",
"c. c #4B78A6",
"v. c #4C7BA9",
"b. c #4C7BAA",
"n. c #4F67B0",
"m. c #4F84B7",
"M. c #5085B8",
"N. c #5086B9",
"B. c #5595CD",
"V. c #5596CF",
"C. c #5596D0",
"Z. c #5698D2",
"A. c #5699D4",
"S. c #5799D4",
"D. c #579AD4",
"F. c #579AD5",
"G. c #579BD6",
"H. c None",
/* pixels */
"H.H.H.H.H.H.H.H.H.H.H.H.H.H.H.H.H.H.H.H.H.H.H.H.H.H.H.H.H.H.H.H.H.H.H.H.H.H.H.H.H.H.H.H.H.H.H.H.H.H.",
"H.H.H.H.H.H.H.H.H.H.H.H.H.H.H.H.H.H.H.H.H.H.H.H.H.H.H.H.H.H.H.H.H.H.H.H.H.H.H.H.H.H.H.H.H.H.H.H.H.H.",
"H.H.H.H.H.H.H.H.H.H.H.H.H.H.H.H.H.H.H.H.H.H.H.H.H.H.H.H.H.H.H.H.H.H.H.H.H.H.H.H.H.H.H.H.H.H.H.H.H.H.",
"H.H.H.H.H.H.H.H.H.H.H.H.H.H.H.H.H.H.H.H.H.H.H.H.H.H.H.H.H.H.H.H.H.H.H.H.H.H.H.H.H.H.H.H.H.H.H.H.H.H.",
"H.H.H.H.H.H.H.H.H.H.H.H.H.H.H.H.H.H.H.H.H.H.H.H.H.H.H.H.H.H.H.H.H.H.H.H.H.H.H.H.H.H.H.H.H.H.H.H.H.H.",
"H.H.H.H.H.H.H.H.H.H.H.H.H.H.H.H.H.H.H.H.H.H.H.H.H.H.H.H.H.H.H.H.H.H.H.H.H.H.H.H.H.H.H.H.H.H.H.H.H.H.",
"H.H.H.H.H.H.H.H.H.H.H.H.H.H.H.H.H.H.H.H.H.H.H.H.H.H.H.H.H.H.H.H.H.H.H.H.H.H.H.H.H.H.H.H.H.H.H.H.H.H.",
"H.H.H.H.H.H.H.H.H.H.H.H.H.H.H.H.H.H.H.H.H.H.H.H.H.H.H.H.H.H.H.H.H.H.H.H.H.H.H.H.H.H.H.H.H.H.H.H.H.H.",
"H.H.H.H.H.H.H.H.H.H.H.H.H.H.H.H.H.H.H.H.H.H.H.H.H.H.H.H.H.H.H.H.H.H.H.H.H.H.H.H.H.H.H.H.H.H.H.H.H.H.",
"H.H.H.H.H.H.H.H.H.H.H.H.H.H.H.H.H.H.H.H.H.H.H.H.H.H.H.H.H.H.H.H.H.H.H.H.H.H.H.H.H.H.H.H.H.H.H.H.H.H.",
"H.H.H.H.H.H.H.H.H.H.H.H.H.H.H.H.H.H.H.H.H.H.H.H.H.H.H.H.H.H.H.H.H.H.H.H.H.H.H.H.H.H.H.H.H.H.H.H.H.H.",
"H.H.H.H.H.H.H.H.H.H.H.H.H.H.H.H.H.H.H.H.H.H.H.H.H.H.H.H.H.H.H.H.H.H.H.H.H.H.H.H.H.H.H.H.H.H.H.H.H.H.",
"H.H.H.H.H.H.H.H.H.H.H.H.H.H.H.H.H.H.H.H.H.H.H.H.H.H.H.H.H.H.H.H.H.H.H.H.H.H.H.H.H.H.H.H.H.H.H.H.H.H.",
"H.H.H.H.H.H.H.H.H.H.H.H.H.H.H.H.H.H.H.H.H.H.H.H.H.H.H.H.H.H.H.H.H.H.H.H.H.H.H.H.H.H.H.H.H.H.H.H.H.H.",
"H.H.H.H.H.H.H.H.H.H.H.H.H.H.H.H.H.H.H.H.H.H.H.H.H.H.H.H.H.H.H.H.H.H.H.H.H.H.H.H.H.H.H.H.H.H.H.H.H.H.",
"H.H.H.H.H.H.H.H.H.H.H.H.H.H.H.H.H.H.H.H.H.H.H.H.H.H.H.H.H.H.H.H.H.H.H.H.H.H.H.H.H.H.H.H.H.H.H.H.H.H.",
"H.H.H.H.H.H.H.H.H.H.H.H.H.H.H.H.H.H.H.H.H.H.H.H.H.H.H.H.H.H.H.H.H.H.H.H.H.H.H.H.H.H.H.H.H.H.H.H.H.H.",
"H.H.H.H.H.H.H.H.H.H.H.H.H.H.H.H.H.H.H.H.H.H.H.H.H.H.H.H.H.H.H.H.H.H.H.H.H.H.H.H.H.H.H.H.H.H.H.H.H.H.",
"H.H.H.H.H.H.H.H.H.H.H.H.H.H.H.H.H.H.H.H.H.H.H.H.H.H.H.H.H.H.H.H.H.H.H.H.H.H.H.H.H.H.H.H.H.H.H.H.H.H.",
"# # # # # # # # # # # # # # # # # # # # # # # # # # # # # # # # # # # # # # # # # # # # # # # # # H.",
"# # # % : : : : : : : : : : : : : : : : : : : : : : : : : : : : : : : : : : : : : : : : : - $ # # # ",
"# # O f c.v.v.v.v.v.v.v.v.v.v.v.v.v.v.v.v.v.v.v.v.v.v.v.v.v.v.v.v.v.v.v.v.v.v.v.v.v.v.v.b.e.0 + # # ",
"# # . N C.F.D.D.D.D.D.D.D.D.D.D.D.D.D.D.D.D.D.D.D.D.D.D.D.D.D.D.D.D.D.D.D.D.D.D.D.D.D.D.G.N.y + # # ",
"# # . M B.Z.Z.Z.Z.Z.Z.Z.Z.Z.Z.Z.Z.Z.Z.Z.Z.Z.Z.Z.Z.Z.Z.Z.Z.Z.Z.Z.Z.Z.Z.Z.Z.Z.Z.Z.Z.Z.Z.Z.A.m.t + # # ",
"# # . N V.D.S.S.S.S.S.S.S.S.S.S.S.S.S.S.S.S.S.S.S.S.S.S.S.S.S.S.S.S.S.S.S.S.S.S.S.S.S.S.G.M.y + # # ",
"# # + y :.>.>.>.>.>.>.>.>.>.>.>.>.>.>.>.>.>.>.>.>.>.>.>.>.>.>.>.>.>.>.>.>.>.>.>.>.>.>.>.w./ 5 @ # # ",
"# # # + . . . . . . . . . . . . . . . . . . . . . . . . . . . . . . . . . . . . . . . .   . # # # # ",
"# # @ 6 K P P P P P P P P P P P P P P P P P P P P P P P P P P P P P P P P P P P P P P P I C , # # # ",
"# # O s a.j.j.j.j.j.j.j.j.j.j.j.j.j.j.j.j.j.j.j.j.j.j.j.j.j.j.j.j.j.j.j.j.j.j.j.j.j.j.j.l.7.8 + # # ",
"# # O s s.j.j.j.j.j.j.j.j.j.j.j.j.j.j.j.j.j.j.j.j.j.j.j.j.j.j.j.j.j.j.j.j.j.j.j.j.j.j.j.l.7.8 + # # ",
"# # O s a.j.j.j.j.j.j.j.j.j.j.j.j.j.j.j.l.x.l.j.h.h.j.z.z.l.j.j.j.j.j.j.j.j.j.j.j.j.j.j.l.7.8 + # # ",
"# # O s a.j.j.j.j.j.j.j.j.j.j.j.j.k.l.i.5.| W L F F I ! +.8.d.z.j.j.j.j.j.j.j.j.j.j.j.j.l.7.8 + # # ",
"# # O s a.j.j.j.j.j.j.j.j.j.j.j.l.u. .z 4 # . . . . . X % 7 Z ,.a.k.j.j.j.j.j.j.j.j.j.j.l.7.8 + # # ",
"# # O s a.j.j.j.j.j.j.j.j.j.j.k.7.b * o @ 3 i V G S v e , O o ; U r.k.j.j.j.j.j.j.j.j.j.l.7.8 + # # ",
"# # O s a.j.j.j.j.j.j.j.j.j.k.q.d O @ = c [ #.=.-.-.=.@.` a % @ @ D u.j.j.j.j.j.j.j.j.j.l.7.8 + # # ",
"# # O s a.j.j.j.j.j.j.j.j.j.k.' # # # v $.-.*.*.*.*.*.*.-.X.p @ # = %.z.j.j.j.j.j.j.j.j.l.7.8 + # # ",
"# # O s a.j.j.j.j.j.j.j.j.j.h.H + # = ( -.*.*.*.*.*.*.*.*.;.Y $ # @ ~ k.j.j.j.j.j.j.j.j.l.7.8 + # # ",
"# # O s a.j.j.j.j.j.j.j.j.j.j.Q + # % S *.=.*.*.*.*.*.*.=.#.x @ # & O.l.j.j.j.j.j.j.j.j.l.7.8 + # # ",
"# # O s a.j.j.j.j.j.j.j.j.j.l.7.q O @ 1 J ..*.*.*.*.*.&.{ B = # O h t.k.j.j.j.j.j.j.j.j.l.7.8 + # # ",
"# # O s a.j.j.j.j.j.j.j.j.j.j.k.1.r # @ % e } =.*.*.=.] 9 # # & k 6.l.j.j.j.j.j.j.j.j.j.l.7.8 + # # ",
"# # O s a.j.j.j.j.j.j.j.j.j.j.j.l.0.w + @ 2 [ =.*.*.-.) > @ + k r.l.j.j.j.j.j.j.j.j.j.j.l.7.8 + # # ",
"# # O s a.j.j.j.j.j.j.j.j.j.j.j.j.p.j O @ 3 [ ;.=.=.;._ > # O F f.j.j.j.j.j.j.j.j.j.j.j.l.7.8 + # # ",
"# # O s a.j.j.j.j.j.j.j.j.j.j.j.j.s.D X @ * g m n n m u % @ O W j.j.j.j.j.j.j.j.j.j.j.j.l.7.8 + # # ",
"# # O s a.j.j.j.j.j.j.j.j.j.j.j.j.k.5.l = + . . . . . . + , A q.k.j.j.j.j.j.j.j.j.j.j.j.l.7.8 + # # ",
"# # O s a.j.j.j.j.j.j.j.j.j.j.j.j.j.l.y.<.~ R R R R T E ^ 1.i.k.j.j.j.j.j.j.j.j.j.j.j.j.l.7.8 + # # ",
"# # O s a.j.j.j.j.j.j.j.j.j.j.j.j.j.j.k.z.z.k.k.k.k.k.k.z.z.j.j.j.j.j.j.j.j.j.j.j.j.j.j.l.7.8 + # # ",
"# # O d g.z.z.z.z.z.z.z.z.z.z.z.z.z.z.z.z.z.z.z.z.z.z.z.z.z.z.z.z.z.z.z.z.z.z.z.z.z.z.z.n.9.8 + # # ",
"# # O w 2.3.3.3.3.3.3.3.3.3.3.3.3.3.3.3.3.3.3.3.3.3.3.3.3.3.3.3.3.3.3.3.3.3.3.3.3.3.3.3.4.o.6 @ # # ",
"# # # & < 1 1 1 1 1 1 1 1 1 1 1 1 1 1 1 1 1 1 1 1 1 1 1 1 1 1 1 1 1 1 1 1 1 1 1 1 1 1 1 1 ; $ # # # ",
"# # # # # @ @ @ @ @ @ @ @ @ @ @ @ @ @ @ @ @ @ @ @ @ @ @ @ @ @ @ @ @ @ @ @ @ @ @ @ @ @ @ @ # # # # # "
};
