/* XPM */
static char *_2354_1b52c681bcbd69a79e539e3c5659965349edf252696460b3f3294ad5439ef3ed[] = {
/* columns rows colors chars-per-pixel */
"100 128 18 1 ",
"  c #2E222F",
". c #3B303C",
"X c #483E49",
"o c #554B56",
"O c #625963",
"+ c #6F6770",
"@ c #7C757D",
"# c #89838A",
"$ c #979197",
"% c #A49EA4",
"& c #B1ACB1",
"* c #BEBABE",
"= c #CBC8CB",
"- c #D8D6D8",
"; c #E5E3E5",
": c #F2F1F2",
"> c white",
", c None",
/* pixels */
",,,,,,,,,,,,,,,,,,,,,,,,,,,,,,,,,,,,,,,,,,,,,          ,,,,,,,,,,,,,,,,,,,,,,,,,,,,,,,,,,,,,,,,,,,,,",
",,,,,,,,,,,,,,,,,,,,,,,,,,,,,,,,,,,,,,,                      ,,,,,,,,,,,,,,,,,,,,,,,,,,,,,,,,,,,,,,,",
",,,,,,,,,,,,,,,,,,,,,,,,,,,,,,,,,,,,                             ,,,,,,,,,,,,,,,,,,,,,,,,,,,,,,,,,,,",
",,,,,,,,,,,,,,,,,,,,,,,,,,,,,,,,,                                   ,,,,,,,,,,,,,,,,,,,,,,,,,,,,,,,,",
",,,,,,,,,,,,,,,,,,,,,,,,,,,,,,                                        ,,,,,,,,,,,,,,,,,,,,,,,,,,,,,,",
",,,,,,,,,,,,,,,,,,,,,,,,,,,,                                            ,,,,,,,,,,,,,,,,,,,,,,,,,,,,",
",,,,,,,,,,,,,,,,,,,,,,,,,,                                                ,,,,,,,,,,,,,,,,,,,,,,,,,,",
",,,,,,,,,,,,,,,,,,,,,,,,                                                    ,,,,,,,,,,,,,,,,,,,,,,,,",
",,,,,,,,,,,,,,,,,,,,,,,                      XOOO##OOOX                      ,,,,,,,,,,,,,,,,,,,,,,,",
",,,,,,,,,,,,,,,,,,,,,                   O$*->>>>>>>>>>>>;*$O                   ,,,,,,,,,,,,,,,,,,,,,",
",,,,,,,,,,,,,,,,,,,,                .@*>>>>>>>>>>>>>>>>>>>>>>*#X                ,,,,,,,,,,,,,,,,,,,,",
",,,,,,,,,,,,,,,,,,,               +*>>>>>>>>>>>>>>>>>>>>>>>>>>>>*+               ,,,,,,,,,,,,,,,,,,,",
",,,,,,,,,,,,,,,,,,              @;>>>>>>>>>>>>>>>>>>>>>>>>>>>>>>>>;#.             ,,,,,,,,,,,,,,,,,,",
",,,,,,,,,,,,,,,,              @;>>>>>>>>>>>>>>>>>>>>>>>>>>>>>>>>>>>>:@              ,,,,,,,,,,,,,,,,",
",,,,,,,,,,,,,,,             O->>>>>>>>>>>>>>>>>>>>>>>>>>>>>>>>>>>>>>>>;O             ,,,,,,,,,,,,,,,",
",,,,,,,,,,,,,,            .%>>>>>>>>>>>>>>>>>>>>>>>>>>>>>>>>>>>>>>>>>>>>%.            ,,,,,,,,,,,,,,",
",,,,,,,,,,,,,,           o->>>>>>>>>>>>>>>>>>>>>>>>>>>>>>>>>>>>>>>>>>>>>>;o            ,,,,,,,,,,,,,",
",,,,,,,,,,,,,           @>>>>>>>>>>>>>>>>>>>>>>>>>>>>>>>>>>>>>>>>>>>>>>>>>>#           ,,,,,,,,,,,,,",
",,,,,,,,,,,,           &>>>>>>>>>>>>>>>>>>>>>>>>>>>>>>>>>>>>>>>>>>>>>>>>>>>>&           ,,,,,,,,,,,,",
",,,,,,,,,,,           &>>>>>>>>>>>>>>>>>>>>>>>>>>>>>>>>>>>>>>>>>>>>>>>>>>>>>>*.          ,,,,,,,,,,,",
",,,,,,,,,,           &>>>>>>>>>>>>>>>>>>>>>>>>>>>>>>>>>>>>>>>>>>>>>>>>>>>>>>>>-.          ,,,,,,,,,,",
",,,,,,,,,,          &>>>>>>>>>>>>>>>>>>>>>>>>>>>>>>>>>>>>>>>>>>>>>>>>>>>>>>>>>>-.          ,,,,,,,,,",
",,,,,,,,,          &>>>>>>>>>>>>>>>>>>>>>>>>>>>>>>>>>>>>>>>>>>>>>>>>>>>>>>>>>>>>&          ,,,,,,,,,",
",,,,,,,,          $>>>>>>>>>>>>>>>>>>>>>>>>>>>>>>>>>>>>>>>>>>>>>>>>>>>>>>>>>>>>>>%          ,,,,,,,,",
",,,,,,,,         +>>>>>>>>>>>>>>>>>>>>>>>>>>>>>>>>>>>>>>>>>>>>>>>>>>>>>>>>>>>>>>>>@          ,,,,,,,",
",,,,,,,         X:>>>>>>>>>>>>>>>>>>>>>>>>>>>>>>>>>>>>>>>>>>>>>>>>>>>>>>>>>>>>>>>>:o         ,,,,,,,",
",,,,,,          =>>>>>>>>>>>>>>>>>>>>>>>>>>>>>>>>>>>>>>>>>>>>>>>>>>>>>>>>>>>>>>>>>>-          ,,,,,,",
",,,,,,         #>>>>>>>>>>>>>>>>>>>>>>>>>>>>>>>>>>>>>>>>>>>>>>>>>>>>>>>>>>>>>>>>>>>>$         ,,,,,,",
",,,,,         .:>>>>>>>>>>>>>>>>>>>>>>>>>>>>>>>>>>>>>>>>>>>>>>>>>>>>>>>>>>>>>>>>>>>>>X         ,,,,,",
",,,,,         &>>>>>>>>>>>>>>>>>>>>>>>>>>>>>>>>>>>>>>>>>>>>>>>>>>>>>>>>>>>>>>>>>>>>>>=         ,,,,,",
",,,,,        X>>>>>>>>>>>>>>>>>>>>>>>>>>>>>>>>>>>>>>>>>>>>>>>>>>>>>>>>>>>>>>>>>>>>>>>>O         ,,,,",
",,,,         *>>>>>>>>>>>>>>>>>>>>>>>>>>>>>>>>>>>>>>>>>>>>>>>>>>>>>>>>>>>>>>>>>>>>>>>>=         ,,,,",
",,,,        X>>>>>>>>>>>=.&>>>>>>>>>>>>>>>>>>>>>>>>>>>>>>>>>>>>>>:#X>>>>>>>>>>>>>>>>>>>O        ,,,,",
",,,         &>>>>>>>>>>>@  O=>>>>>>>>>>>>>>>>>>>>>>>>>>>>>>>>>>>%.  *>>>>>>>>>>>>>>>>>>*         ,,,",
",,,        .:>>>>>>>>>>>X    @;>>>>>>>>>>>>>>>>>>>>>>>>>>>>>>>=X    $>>>>>>>>>>>>>>>>>>>X        ,,,",
",,,        @>>>>>>>>>>>>      .$:>>>>>>>>>>>>>>>>>>>>>>>>>>>;O      +>>>>>>>>>>>>>>>>>>>#        ,,,",
",,,        ->>>>>>>>>>>>        X*>>>>>>>>>>>>>>>>>>>>>>>>:$        +>>>>>>>>>>>>>>>>>>>;         ,,",
",,        X>>>>>>>>>>>>>.         O->>>>>>>>>>>>>>>>>>>>>&.         $>>>>>>>>>>>>>>>>>>>>o        ,,",
",,        @>>>>>>>>>>>>>+           @:>>>>>>>>>>>>>>>>>=o           *>>>>>>>>>>>>>>>>>>>>#        ,,",
",,        &>>>>>>>>>>>>>=            .%>>>>>>>>>>>>>>;+            X>>>>>>>>>>>>>>>>>>>>>=        ,,",
",,        ;>>>>>>>>>>>>>>O            o>>>>>>>>>>>>>>=             *>>>>>>>>>>>>>>>>>>>>>>         ,",
",        X>>>>>>>>>>>>>>>:o          .->>>>>>>>>>>>>>>&           @>>>>>>>>>>>>>>>>>>>>>>>o        ,",
",        O>>>>>>>>>>>>>>>>:O        o->>>>>>>>>>>>>>>>>&.        $>>>>>>>>>>>>>>>>>>>>>>>>@        ,",
",        $>>>>>>>>>>>>>>>>>>&+    o&>>>>>>>>>>>>>>>>>>>>;#X   .@;>>>>>>>>>>>>>>>>>>>>>>>>>$        ,",
",        %>>>>>>>>>>>>>>>>>>>>>>>>>>>>>>>>>>>>>>>>>>>>>>>>>>>>>>>>>>>>>>>>>>>>>>>>>>>>>>>>=        ,",
",        =>>>>>>>>>>>>>>>>>>>>>>>>>>>>>>>>>>>>>>>>>>>>>>>>>>>>>>>>>>>>>>>>>>>>>>>>>>>>>>>>=        ,",
",        =>>>>>>>>>>>>>>>>>>>>>>>>>>>>>>>>>>>>>>>>>>>>>>>>>>>>>>>>>>>>>>>>>>>>>>>>>>>>>>>>:        ,",
",        ;>>>>>>>>>>>>>>>>>>>>>>>>>>>>>>>>>>>>>>>>>>>>>>>>>>>>>>>>>>>>>>>>>>>>>>>>>>>>>>>>>        ,",
",        >>>>>>>>>>>>>>>>>>>>>>>>>>>>>>>>>>>>>>>>>>>>>>>>>>>>>>>>>>>>>>>>>>>>>>>>>>>>>>>>>>        ,",
",        >>>>>>>>>>>>>>>>>>>>>>>>>>>>>>>>>;=*$$$==:>>>>>>>>>>>>>>>>>>>>>>>>>>>>>>>>>>>>>>>>        ,",
",        >>>>>>>>>>>>>>>>>>>>>>>>>>>>>;%+.         X@*>>>>>>>>>>>>>>>>>>>>>>>>>>>>>>>>>>>>>        ,",
",        >>>>>>>>>>>>>>>>>>>>>>>>>>>=O                .#;>>>>>>>>>>>>>>>>>>>>>>>>>>>>>>>>>>        ,",
",        >>>>>>>>>>>>>>>>>>>>>>>>>=O                     @:>>>>>>>>>>>>>>>>>>>>>>>>>>>>>>>>        ,",
",        >>>>>>>>>>>>>>>>>>>>>>>:#                        .*>>>>>>>>>>>>>>>>>>>>>>>>>>>>>>>        ,",
",        >>>>>>>>>>>>>>>>>>>>>>-X                           @>>>>>>>>>>>>>>>>>>>>>>>>>>>>>>        ,",
",        >>>>>>>>>>>>>>>>>>>>>=.                             o:>>>>>>>>>>>>>>>>>>>>>>>>>>>>        ,",
",        >>>>>>>>>>>>>>>>>>>>&                                o:>>>>>>>>>>>>>>>>>>>>>>>>>>>        ,",
",        >>>>>>>>>>>>>>>>>>>-.                                 o:>>>>>>>>>>>>>>>>>>>>>>>>>>        ,",
",        >>>>>>>>>>>>>>>>>>:.                                   @>>>>>>>>>>>>>>>>>>>>>>>>>>        ,",
",        >>>>>>>>>>>>>>>>>>O                                     &>>>>>>>>>>>>>>>>>>>>>>>>>        ,",
",        >>>>>>>>>>>>>>>>>%                                      .:>>>>>>>>>>>>>>>>>>>>>>>>        ,",
",        >>>>>>>>>>>>>>>>:.                                       @>>>>>>>>>>>>>>>>>>>>>>>>        ,",
",        >>>>>>>>>>>>>>>>$                                         ;>>>>>>>>>>>>>>>>>>>>>>>        ,",
",        >>>>>>>>>>>>>>>:.                                         @>>>>>>>>>>>>>>>>>>>>>>>        ,",
",        >>>>>>>>>>>>>>>&                                          .:>>>>>>>>>>>>>>>>>>>>>>        ,",
",        >>>>>>>>>>>>>>>+                                           &>>>>>>>>>>>>>>>>>>>>>>        ,",
",        >>>>>>>>>>>>>>>                                            @>>>>>>>>>>>>>>>>>>>>>>        ,",
",        >>>>>>>>>>>>>>=                                            .>>>>>>>>>>>>>>>>>>>>>>        ,",
",        >>>>>>>>>>>>>>$                                             ;>>>>>>>>>>>>>>>>>>>>>        ,",
",        >>>>>>>>>>>>>>@                                             =>>>>>>>>>>>>>>>>>>>>>        ,",
",        >>>>>>>>>>>>>>O                                             &>>>>>>>>>>>>>>>>>>>>>        ,",
",        >>>>>>>>>>>>>>O                                             $>>>>>>>>>>>>>>>>>>>>>        ,",
",        >>>>>>>>>>>>>>O                                             $>>>>>>>>>>>>>>>>>>>>>        ,",
",        >>>>>>>>>>>>>>>>>>>>>>>>>>>>>>>>>>>>>>>>>>>>>>>>>>>>>>>>>>>>>>>>>>>>>>>>>>>>>>>>>>        ,",
",        >>>>>>>>>>>>>>>>>>>>>>>>>>>>>>>>>>>>>>>>>>>>>>>>>>>>>>>>>>>>>>>>>>>>>>>>>>>>>>>>>>        ,",
",        >>>>>>>>>>>>>>>>>>>>>>>>>>>>>>>>>>>>>>>>>>>>>>>>>>>>>>>>>>>>>>>>>>>>>>>>>>>>>>>>>>        ,",
",        >>>>>>>>>>>>>>>>>>>>>>>>>>>>>>>>>>>>>>>>>>>>>>>>>>>>>>>>>>>>>>>>>>>>>>>>>>>>>>>>>>        ,",
",        >>>>>>>>>>>>>>>>>>>>>>>>>>>>>>>>>>>>>>>>>>>>>>>>>>>>>>>>>>>>>>>>>>>>>>>>>>>>>>>>>>        ,",
",        >>>>>>>>>>>>>>>>>>>>>>>>>>>>>>>>>>>>>>>>>>>>>>>>>>>>>>>>>>>>>>>>>>>>>>>>>>>>>>>>>>        ,",
",        >>>>>>>>>>>>>>>>>>>>>>>>>>>>>>>>>>>>>>>>>>>>>>>>>>>>>>>>>>>>>>>>>>>>>>>>>>>>>>>>>>        ,",
",        >>>>>>>>>>>>>>>>>>>>>>>>>>>>>>>>>>>>>>>>>>>>>>>>>>>>>>>>>>>>>>>>>>>>>>>>>>>>>>>>>>        ,",
",        >>>>>>>>>>>>>>>>>>>>>>>>>>>>>>>>>>>>>>>>>>>>>>>>>>>>>>>>>>>>>>>>>>>>>>>>>>>>>>>>>>        ,",
",        >>>>>>>>>>>>>>>>>>>>>>>>>>>>>>>>>>>>>>>>>>>>>>>>>>>>>>>>>>>>>>>>>>>>>>>>>>>>>>>>>>        ,",
",        >>>>>>>>>>>>>>>>>>>>>>>>>>>>>>>>>>>>>>>>>>>>>>>>>>>>>>>>>>>>>>>>>>>>>>>>>>>>>>>>>>        ,",
",        >>>>>>>>>>>>>>>>>>>>>>>>>>>>>>>>>>>>>>>>>>>>>>>>>>>>>>>>>>>>>>>>>>>>>>>>>>>>>>>>>>        ,",
",        >>>>>>>>>>>>>>>>>>>>>>>>>>>>>>>>>>>>>>>>>>>>>>>>>>>>>>>>>>>>>>>>>>>>>>>>>>>>>>>>>>        ,",
",        >>>>>>>>>>>>>>>>>>>>>>>>>>>>>>>>>>>>>>>>>>>>>>>>>>>>>>>>>>>>>>>>>>>>>>>>>>>>>>>>>>        ,",
",        >>>>>>>>>>>>>>>>>>>>>>>>>>>>>>>>>>>>>>>>>>>>>>>>>>>>>>>>>>>>>>>>>>>>>>>>>>>>>>>>>>        ,",
",        >>>>>>>>>>>>>>>>>>>>>>>>>>>>>>>>>>>>>>>>>>>>>>>>>>>>>>>>>>>>>>>>>>>>>>>>>>>>>>>>>>        ,",
",        >>>>>>>>>>>>>>>>>>>>>>>>>>>>>>>>>>>>>>>>>>>>>>>>>>>>>>>>>>>>>>>>>>>>>>>>>>>>>>>>>>        ,",
",        >>>>>>>>>>>>>>>>>>>>>>>>>>>>>>>>>>>>>>>>>>>>>>>>>>>>>>>>>>>>>>>>>>>>>>>>>>>>>>>>>>        ,",
",        >>>>>>>>>>>>>>>>>>>>>>>>>>>>>>>>>>>>>>>>>>>>>>>>>>>>>>>>>>>>>>>>>>>>>>>>>>>>>>>>>>        ,",
",        >>>>>>>>>>>>>>>>>>>>>>>>>>>>>>>>>>>>>>>>>>>>>>>>>>>>>>>>>>>>>>>>>>>>>>>>>>>>>>>>>>        ,",
",        >>>>>>>>>>>>>>>>>>>>>>>>>>>>>>>>>>>>>>>>>>>>>>>>>>>>>>>>>>>>>>>>>>>>>>>>>>>>>>>>>>        ,",
",        >>>>>>>>>>>>>>>>>>>>>>>>>>>>>>>>>>>>>>>>>>>>>>>>>>>>>>>>>>>>>>>>>>>>>>>>>>>>>>>>>>        ,",
",        >>>>>>>>>>>>>>>>>>>>>>>>>>>>>>>>>>>>>>>>>>>>>>>>>>>>>>>>>>>>>>>>>>>>>>>>>>>>>>>>>>        ,",
",        >>>>>>>>>>>>>>>>>>>>>>>>>>>>>>>>>>>>>>>>>>>>>>>>>>>>>>>>>>>>>>>>>>>>>>>>>>>>>>>>>>        ,",
",        >>>>>>>>>>>>>>>>>>>>>>>>>>>>>>>>>>>>>>>>>>>>>>>>>>>>>>>>>>>>>>>>>>>>>>>>>>>>>>>>>>        ,",
",        >>>>>>>>>>>>>>>>>>>>>>>>>>>>>>>>>>>>>>>>>>>>>>>>>>>>>>>>>>>>>>>>>>>>>>>>>>>>>>>>>>        ,",
",        >>>>>>>>>>>>>>>>>>>>>>>>>>>>>>>>>>>>>>>>>>>>>>>>>>>>>>>>>>>>>>>>>>>>>>>>>>>>>>>>>>        ,",
",        >>>>>>>>>>>>>>>>>>>>>>>>>>>>>>>>>>>>>>>>>>>>>>>>>>>>>>>>>>>>>>>>>>>>>>>>>>>>>>>>>>        ,",
",        >>>>>>>>>>>>>>>>>>>>>>>>>>>>>>>>>>>>>>>>>>>>>>>>>>>>>>>>>>>>>>>>>>>>>>>>>>>>>>>>>>        ,",
",        >>>>>>>>>>>>>>>>>>>>>>>>>>>>>>>>>>>>>>>>>>>>>>>>>>>>>>>>>>>>>>>>>>>>>>>>>>>>>>>>>>        ,",
",        >>>>>>>>>>>>>>>>>>>>>>>>>>>>>>>>>>>>>>>>>>>>>>>>>>>>>>>>>>>>>>>>>>>>>>>>>>>>>>>>>>        ,",
",        >>>>>>>>>>>>>>>>>>>>>>>>>>>>>>>>>>>>>>>>>>>>>>>>>>>>>>>>>>>>>>>>>>>>>>>>>>>>>>>>>>        ,",
",        >>>>>>>>>>>>>>>>>>>>>*$$$$$*:>>>>>>>>>>>>>>>>>>>>>>>>>*$$$$$*>>>>>>>>>>>>>>>>>>>>>        ,",
",        >>>>>>>>>>>>>>>>>>>*X       .$>>>>>>>>>>>>>>>>>>>>>>%.       .%>>>>>>>>>>>>>>>>>>>        ,",
",        >>>>>>>>>>>>>>>>>>@           O:>>>>>>>>>>>>>>>>>>>@           @>>>>>>>>>>>>>>>>>>        ,",
",        >>>>>>>>>>>>>>>>>%             @>>>>>>>>>>>>>>>>>>#             $>>>>>>>>>>>>>>>>>        ,",
",        >>>>>>>>>>>>>>>>:.              =>>>>>>>>>>>>>>>>;               ;>>>>>>>>>>>>>>>>        ,",
",        >>>>>>>>>>>>>>>>%               @>>>>>>>>>>>>>>>>#               %>>>>>>>>>>>>>>>>        ,",
",        >>>>>>>>>>>>>>>>+               o>>>>>>>>>>>>>>>>O               O>>>>>>>>>>>>>>>>        ,",
",        >>>>>>>>>>>>>>>>O                >>>>>>>>>>>>>>>>O               O>>>>>>>>>>>>>>>>        ,",
",        :>>>>>>>>>>>>>>>O                >>>>>>>>>>>>>>>>                X>>>>>>>>>>>>>>>>        ,",
",        *>>>>>>>>>>>>>>>                 ->>>>>>>>>>>>>>;                 :>>>>>>>>>>>>>>=        ,",
",        @>>>>>>>>>>>>>>&        ,        #>>>>>>>>>>>>>>$        ,        &>>>>>>>>>>>>>>@        ,",
",         ->>>>>>>>>>>>>X        ,        .;>>>>>>>>>>>>:.        ,        X:>>>>>>>>>>>>;         ,",
",,        o:>>>>>>>>>>>@         ,         o:>>>>>>>>>>>O         ,         +>>>>>>>>>>>:o         ,",
",,         X=>>>>>>>>:+         ,,,         o;>>>>>>>>;o         ,,,         O;>>>>>>>>-o         ,,",
",,           +&====*#.          ,,,           @*====*@           ,,,          .@*====&@           ,,",
",,,                             ,,,,                            ,,,,,                            ,,,",
",,,                            ,,,,,                            ,,,,,                            ,,,",
",,,,                          ,,,,,,,                          ,,,,,,,                          ,,,,",
",,,,,                        ,,,,,,,,,                        ,,,,,,,,,                        ,,,,,",
",,,,,,                      ,,,,,,,,,,,                      ,,,,,,,,,,,                      ,,,,,,",
",,,,,,,                    ,,,,,,,,,,,,,                    ,,,,,,,,,,,,,                    ,,,,,,,",
",,,,,,,,,                ,,,,,,,,,,,,,,,,,                ,,,,,,,,,,,,,,,,,                ,,,,,,,,,",
",,,,,,,,,,,,           ,,,,,,,,,,,,,,,,,,,,,,          ,,,,,,,,,,,,,,,,,,,,,,,          ,,,,,,,,,,,,"
};
