/* XPM */
static char *_101_0813336109237fd0450ad7f4763efa6f023ec35862a9aa3037b273dcace0e27d[] = {
/* columns rows colors chars-per-pixel */
"50 50 209 2 ",
"   c #2B1E2C",
".  c #2B1F2C",
"X  c #2C1F2C",
"o  c #2C1F2D",
"O  c #2C202D",
"+  c #2D202D",
"@  c #2D202E",
"#  c #2D212E",
"$  c #2E212E",
"%  c #2E212F",
"&  c #2E222F",
"*  c #2E232F",
"=  c #2E2330",
"-  c #2F2330",
";  c #2F2430",
":  c #2F2431",
">  c #302431",
",  c #302531",
"<  c #302532",
"1  c #312532",
"2  c #312633",
"3  c #322834",
"4  c #332835",
"5  c #332935",
"6  c #342935",
"7  c #342A36",
"8  c #352A36",
"9  c #342A37",
"0  c #352A37",
"q  c #362B37",
"w  c #352B38",
"e  c #362C38",
"r  c #372C38",
"t  c #362C39",
"y  c #372D39",
"u  c #372D3A",
"i  c #382E39",
"p  c #382F3B",
"a  c #3A303B",
"s  c #39303C",
"d  c #3B313C",
"f  c #3B323F",
"g  c #3C333F",
"h  c #3D343E",
"j  c #3C3440",
"k  c #3D3441",
"l  c #3D3541",
"z  c #3E3640",
"x  c #3E3642",
"c  c #3F3743",
"v  c #403842",
"b  c #413943",
"n  c #413945",
"m  c #423A44",
"M  c #423B45",
"N  c #433B45",
"B  c #423B47",
"V  c #433C45",
"C  c #443C46",
"Z  c #443D46",
"A  c #46404C",
"S  c #46414D",
"D  c #48424B",
"F  c #49424B",
"G  c #4A4651",
"H  c #4B4652",
"J  c #4B4752",
"K  c #4F4951",
"L  c #4C4854",
"P  c #4E4B56",
"I  c #4F4C57",
"U  c #504C53",
"Y  c #504D58",
"T  c #514E59",
"R  c #52505B",
"E  c #53505B",
"W  c #555158",
"Q  c #565359",
"!  c #53505C",
"~  c #53515C",
"^  c #54525D",
"/  c #58545B",
"(  c #59565C",
")  c #59565D",
"_  c #5A575D",
"`  c #575560",
"'  c #585862",
"]  c #595963",
"[  c #5C5A60",
"{  c #5E5C61",
"}  c #5C5D67",
"|  c #605E64",
" . c #615F64",
".. c #626166",
"X. c #636166",
"o. c #636267",
"O. c #646367",
"+. c #646368",
"@. c #68686C",
"#. c #69696D",
"$. c #6A6B6E",
"%. c #656771",
"&. c #656872",
"*. c #666973",
"=. c #676A74",
"-. c #696D77",
";. c #6F7073",
":. c #6D717B",
">. c #6F757E",
",. c #767D86",
"<. c #7B7F80",
"1. c #7C8182",
"2. c #7D8282",
"3. c #7E8384",
"4. c #7F8484",
"5. c #7A828B",
"6. c #7A838C",
"7. c #7C858E",
"8. c #7C868E",
"9. c #7D868E",
"0. c #7D868F",
"q. c #7D878F",
"w. c #7E8790",
"e. c #7E8890",
"r. c #828888",
"t. c #888E8D",
"y. c #89908E",
"u. c #808992",
"i. c #808A93",
"p. c #808B93",
"a. c #818C94",
"s. c #838E96",
"d. c #8A9190",
"f. c #859098",
"g. c #87939B",
"h. c #88949C",
"j. c #88959D",
"k. c #89959D",
"l. c #89969E",
"z. c #8A979E",
"x. c #8A979F",
"c. c #949D9A",
"v. c #99A39F",
"b. c #8B98A0",
"n. c #8B99A0",
"m. c #8C99A0",
"M. c #8C99A1",
"N. c #8F9DA5",
"B. c #9BA5A1",
"V. c #9CA7A3",
"C. c #9EA9A4",
"Z. c #9EA9A5",
"A. c #9FAAA6",
"S. c #94A3AA",
"D. c #94A4AB",
"F. c #96A6AD",
"G. c #97A7AE",
"H. c #98A8AF",
"J. c #98A9B0",
"K. c #99A9B0",
"L. c #99AAB1",
"P. c #9AABB2",
"I. c #9AACB2",
"U. c #9AACB3",
"Y. c #9BACB3",
"T. c #9BADB3",
"R. c #9BADB4",
"E. c #9CADB4",
"W. c #A1ADA8",
"Q. c #A3AFAA",
"!. c #A3B0AA",
"~. c #A3B0AB",
"^. c #A4B0AB",
"/. c #A9B7B1",
"(. c #AAB7B1",
"). c #AAB8B2",
"_. c #ADBBB5",
"`. c #B0BFB8",
"'. c #B1C0B9",
"]. c #B1C1B9",
"[. c #B2C1B9",
"{. c #B2C1BA",
"}. c #B2C2BA",
"|. c #B3C3BB",
" X c #B4C3BB",
".X c #B4C3BC",
"XX c #B4C4BC",
"oX c #B6C6BE",
"OX c #BED0C6",
"+X c #BED0C7",
"@X c #C0D2C8",
"#X c #C1D4CA",
"$X c #C2D5CB",
"%X c #C3D5CB",
"&X c #C4D7CD",
"*X c #C5D8CD",
"=X c #C5D8CE",
"-X c #C6D9CE",
";X c #C6D9CF",
":X c #C6DACF",
">X c #C8DCD1",
",X c #C9DDD2",
"<X c #C9DED2",
"1X c #C9DED3",
"2X c #CADED3",
"3X c #CADFD3",
"4X c #CADFD4",
"5X c #CBDFD4",
"6X c None",
/* pixels */
"6X& & & & & & & & & & & & & & & & & & & & & & & & & & & & & & & & & & & & & & & & & & & & & & & & 6X",
"& & & & & & & & & & & & & & & & & & & & & & & & & & & & & & & & & & & & & & & & & & & & & & & & & & ",
"& & & & & & # + + + + + + + + + + + + + # & & & & & & & & # O O O O O O O O O O O O O @ & & & & & & ",
"& & & & & # u G R E R R R R R R R R ! Y n < $ & & & & & & v _ ....................X.[ V * & & & & & ",
"& & & & & G i.F.J.J.J.J.J.J.J.J.J.J.J.J.N.=.9 # & & & 1 @._.&X;X-X-X-X-X-X-X-X-X-X;X*X'.$., & & & & ",
"& & & # B k.E.P.P.P.P.P.P.P.P.P.P.P.P.P.Y.K.%.: & & O { OX2X>X>X>X>X>X>X>X>X>X>X>X>X>X2X+X .# & & & ",
"& & & & *.Y.P.P.P.P.P.P.P.P.P.P.P.P.P.P.P.Y.M.x # # 7 v.3X>X>X>X>X>X>X>X>X>X>X>X>X>X>X>X3XA.q % & & ",
"& & & : 6.E.P.P.P.P.P.P.P.P.P.P.P.P.P.P.P.P.F.H + @ b ].,X>X>X>X>X>X>X>X>X>X>X>X>X>X>X>X<X'.m # & & ",
"& & & : 8.E.P.P.P.P.P.P.P.P.P.P.P.P.P.P.P.P.F.L + + N .X,X>X>X>X>X>X>X>X>X>X>X>X>X>X>X>X<X[.V @ & & ",
"& & & : 7.E.P.P.P.P.P.P.P.P.P.P.P.P.P.P.P.P.F.L + + M |.,X>X>X>X>X>X>X>X>X>X>X>X>X>X>X>X<X].N @ & & ",
"& & & : 7.E.P.P.P.P.P.P.P.P.P.P.P.P.P.P.P.P.F.L + + M |.,X>X>X>X>X>X>X>X>X>X>X>X>X>X>X>X<X].N @ & & ",
"& & & : 7.E.P.P.P.P.P.P.P.P.P.P.P.P.P.P.P.P.F.L + + M |.,X>X>X>X>X>X>X>X>X>X>X>X>X>X>X>X<X].N @ & & ",
"& & & : 7.E.P.P.P.P.P.P.P.P.P.P.P.P.P.P.P.P.F.L + + M |.,X>X>X>X>X>X>X>X>X>X>X>X>X>X>X>X<X].N @ & & ",
"& & & : 7.E.P.P.P.P.P.P.P.P.P.P.P.P.P.P.P.P.F.L + + M |.,X>X>X>X>X>X>X>X>X>X>X>X>X>X>X>X<X].N @ & & ",
"& & & : 7.E.P.P.P.P.P.P.P.P.P.P.P.P.P.P.P.P.F.L + + M |.,X>X>X>X>X>X>X>X>X>X>X>X>X>X>X>X<X].N @ & & ",
"& & & : 7.E.P.P.P.P.P.P.P.P.P.P.P.P.P.P.P.P.F.L + + M |.,X>X>X>X>X>X>X>X>X>X>X>X>X>X>X>X<X].N @ & & ",
"& & & : 7.E.P.P.P.P.P.P.P.P.P.P.P.P.P.P.P.P.F.L + + M |.,X>X>X>X>X>X>X>X>X>X>X>X>X>X>X>X<X].N @ & & ",
"& & & : 7.E.P.P.P.P.P.P.P.P.P.P.P.P.P.P.P.P.F.L + + M |.,X>X>X>X>X>X>X>X>X>X>X>X>X>X>X>X<X].N @ & & ",
"& & & : 9.E.P.P.P.P.P.P.P.P.P.P.P.P.P.P.P.P.F.L + + N  X,X>X>X>X>X>X>X>X>X>X>X>X>X>X>X>X<X{.V @ & & ",
"& & & - ,.E.P.P.P.P.P.P.P.P.P.P.P.P.P.P.P.P.D.S + # h ).2X>X>X>X>X>X>X>X>X>X>X>X>X>X>X>X2X_.z # & & ",
"& & & # ` J.I.P.P.P.P.P.P.P.P.P.P.P.P.P.P.E.u.t # & - r.1X>X>X>X>X>X>X>X>X>X>X>X>X>X>X>X2Xt.> & & & ",
"& & & % 0 >.L.E.R.R.R.R.R.R.R.R.R.R.R.R.E.b.J # & & # m W.,X3X3X3X3X3X3X3X3X3X3X3X3X3X,XW.C # & & & ",
"& & & & # w } 0.f.f.f.f.f.f.f.f.f.f.f.s.>.A & & & & & # m 1.~.(./././././././././.(.!.4.N # & & & & ",
"& & & & & $ & 2 4 4 4 4 4 4 4 4 4 4 4 3 : # & & & & & & # - 6 8 8 8 8 8 8 8 8 8 8 8 6 - # & & & & & ",
"& & & & & & & & & & & & & & & & & & & & & & & & & & & & & & & & & & & & & & & & & & & & & & & & & & ",
"& & & & & & # o                       . + & & & & & & & & # O X X X X X X X X X X X O # & & & & & & ",
"& & & & & # d / o.O.O.O.O.O.O.O.O.O.+.| F , # & & & & & & j P ^ ^ ^ ^ ^ ^ ^ ^ ^ ^ ^ I j & & & & & & ",
"& & & & & Q Q.#X>X,X,X,X,X,X,X,X,X,X,X:XoX3.i # & & & > ' h.G.Y.U.U.U.U.U.U.U.U.U.Y.H.j.] > & & & & ",
"& & & @ D `.5X,X>X>X>X>X>X>X>X>X>X>X>X>X1X:X<.> & & # T S.R.P.P.P.P.P.P.P.P.P.P.P.P.P.R.S.~ # & & & ",
"& & & & 2.,X>X>X>X>X>X>X>X>X>X>X>X>X>X>X>X<XXXZ + & 4 5.E.P.P.P.P.P.P.P.P.P.P.P.P.P.P.P.E.0.4 & & & ",
"& & & > B.4X>X>X>X>X>X>X>X>X>X>X>X>X>X>X>X>X%X/ O # f l.Y.P.P.P.P.P.P.P.P.P.P.P.P.P.P.P.Y.z.j # & & ",
"& & & > Z.5X>X>X>X>X>X>X>X>X>X>X>X>X>X>X>X>X$X) O # j m.Y.P.P.P.P.P.P.P.P.P.P.P.P.P.P.P.Y.x.l # & & ",
"& & & > C.5X>X>X>X>X>X>X>X>X>X>X>X>X>X>X>X>X$X( O # j n.Y.P.P.P.P.P.P.P.P.P.P.P.P.P.P.P.Y.x.l # & & ",
"& & & > C.5X>X>X>X>X>X>X>X>X>X>X>X>X>X>X>X>X$X( O # j n.Y.P.P.P.P.P.P.P.P.P.P.P.P.P.P.P.Y.x.l # & & ",
"& & & > C.5X>X>X>X>X>X>X>X>X>X>X>X>X>X>X>X>X$X( O # j n.Y.P.P.P.P.P.P.P.P.P.P.P.P.P.P.P.Y.x.l # & & ",
"& & & > C.5X>X>X>X>X>X>X>X>X>X>X>X>X>X>X>X>X$X( O # j n.Y.P.P.P.P.P.P.P.P.P.P.P.P.P.P.P.Y.x.l # & & ",
"& & & > C.5X>X>X>X>X>X>X>X>X>X>X>X>X>X>X>X>X$X( O # j n.Y.P.P.P.P.P.P.P.P.P.P.P.P.P.P.P.Y.x.l # & & ",
"& & & > C.5X>X>X>X>X>X>X>X>X>X>X>X>X>X>X>X>X$X( O # j n.Y.P.P.P.P.P.P.P.P.P.P.P.P.P.P.P.Y.x.l # & & ",
"& & & > C.5X>X>X>X>X>X>X>X>X>X>X>X>X>X>X>X>X$X( O # j n.Y.P.P.P.P.P.P.P.P.P.P.P.P.P.P.P.Y.x.l # & & ",
"& & & > C.5X>X>X>X>X>X>X>X>X>X>X>X>X>X>X>X>X$X( O # j n.Y.P.P.P.P.P.P.P.P.P.P.P.P.P.P.P.Y.x.l # & & ",
"& & & > C.5X>X>X>X>X>X>X>X>X>X>X>X>X>X>X>X>X$X( O # j n.Y.P.P.P.P.P.P.P.P.P.P.P.P.P.P.P.Y.x.l # & & ",
"& & & > Z.5X>X>X>X>X>X>X>X>X>X>X>X>X>X>X>X>X%X) O # j M.Y.P.P.P.P.P.P.P.P.P.P.P.P.P.P.P.Y.x.l # & & ",
"& & & - c.3X>X>X>X>X>X>X>X>X>X>X>X>X>X>X>X,X@XU O # p f.T.P.P.P.P.P.P.P.P.P.P.P.P.P.P.P.T.g.s # & & ",
"& & & # #.=X,X>X>X>X>X>X>X>X>X>X>X>X>X>X>X3XW.a # & = -.Y.P.P.P.P.P.P.P.P.P.P.P.P.P.P.P.Y.:.- & & & ",
"& & & # e y.;X4X3X3X3X3X3X3X3X3X3X3X3X3X3X}.W # & & # k w.U.E.R.R.R.R.R.R.R.R.R.R.R.E.Y.a.c # & & & ",
"& & & & # y ;.V.^.^.^.^.^.^.^.^.^.^.^.Q.d.K & & & & & # g &.q.p.i.i.i.i.i.i.i.i.i.p.e.*.l # & & & & ",
"& & & & & # # 5 i i i i i i i i i i i r ; @ & & & & & & # & 4 0 0 0 0 0 0 0 0 0 0 0 4 & # & & & & & ",
"& & & & & & & & # # # # # # # # # # # # & & & & & & & & & & & $ $ $ $ $ $ $ $ $ $ $ & & & & & & & & ",
"6X& & & & & & & & & & & & & & & & & & & & & & & & & & & & & & & & & & & & & & & & & & & & & & & & & ",
"6X6X& & & & & & & & & & & & & & & & & & & & & & & & & & & & & & & & & & & & & & & & & & & & & & & 6X"
};
