/* XPM */
static char *_919_ccc0d400a75b165c0e926b3092058ae7b04ffd661c436626086b4fb622e9db12[] = {
/* columns rows colors chars-per-pixel */
"50 50 119 2 ",
"   c #2C1F2C",
".  c #2E222F",
"X  c #2E2432",
"o  c #2D2A35",
"O  c #2F273A",
"+  c #2B2F39",
"@  c #302734",
"#  c #332937",
"$  c #352D39",
"%  c #2B323B",
"&  c #33313B",
"*  c #3B323D",
"=  c #2E2E4F",
"-  c #302C43",
";  c #312E49",
":  c #293840",
">  c #343347",
",  c #31304C",
"<  c #35384E",
"1  c #2F3051",
"2  c #323253",
"3  c #363A50",
"4  c #383F57",
"5  c #383A58",
"6  c #423B45",
"7  c #453F4A",
"8  c #274348",
"9  c #38415A",
"0  c #235354",
"q  c #21605F",
"w  c #1E6C68",
"e  c #1C746E",
"r  c #1C7670",
"t  c #49424B",
"y  c #424557",
"u  c #4F4A53",
"i  c #534E56",
"p  c #4F5056",
"a  c #545057",
"s  c #54575D",
"d  c #575660",
"f  c #41597B",
"g  c #646367",
"h  c #67676B",
"j  c #69696D",
"k  c #6A6D75",
"l  c #666D7E",
"z  c #6B7079",
"x  c #76797B",
"c  c #797C7E",
"v  c #168379",
"b  c #19847A",
"n  c #178B7F",
"m  c #486E97",
"M  c #486F99",
"N  c #49719C",
"B  c #7B7F82",
"V  c #4B77A5",
"C  c #4B78A6",
"Z  c #4C7AA8",
"A  c #149688",
"S  c #149889",
"D  c #2C9B8D",
"F  c #3E9E92",
"G  c #0DAF9B",
"H  c #11A694",
"J  c #10AD9A",
"K  c #0FB09C",
"L  c #2CB5A1",
"P  c #37BAA7",
"I  c #37BBA9",
"U  c #38BAA8",
"Y  c #559388",
"T  c #7D8182",
"R  c #7F8A94",
"E  c #5AA395",
"W  c #5DAB9B",
"Q  c #4E80B0",
"!  c #5087BB",
"~  c #6E94B1",
"^  c #4EBDAB",
"/  c #63BEAA",
"(  c #75B6A7",
")  c #65C1AC",
"_  c #79C5B3",
"`  c #538EC5",
"'  c #5390C7",
"]  c #5491C8",
"[  c #5497D2",
"{  c #5698D3",
"}  c #7BA8C7",
"|  c #828887",
" . c #838888",
".. c #808B95",
"X. c #848F98",
"o. c #8C9492",
"O. c #859098",
"+. c #929B98",
"@. c #9AA5A1",
"#. c #99A7AA",
"$. c #9BA9AB",
"%. c #9BACB3",
"&. c #A3AFAA",
"*. c #A7B4AE",
"=. c #AEBDB6",
"-. c #B3C3BC",
";. c #81B2D2",
":. c #B4C5C0",
">. c #BBCCC3",
",. c #BACDC8",
"<. c #BED0C6",
"1. c #BFD2C8",
"2. c #BDD9CE",
"3. c #C0D2C9",
"4. c #C4DACF",
"5. c #C7DBD0",
"6. c #C9DDD2",
"7. c #CBE0D4",
"8. c None",
/* pixels */
"8.8.8.8.8.8.8.8.8.8.8.8.8.8.8.8.. . X . . . . . . . . . . . . . . 8.8.8.8.8.8.8.8.8.8.8.8.8.8.8.8.8.",
"8.8.8.8.8.8.8.8.8.8.8.8.8.8.8.X . . . . . . . . . . . . . . . . . . . 8.8.8.8.8.8.8.8.8.8.8.8.8.8.8.",
"8.8.8.8.8.8.8.8.8.8.8.8.8.8.8.. . . $ & & $ + + + % + + + + o . . . . . . 8.8.8.8.8.8.8.8.8.8.8.8.8.",
"8.8.8.8.8.8.8.8.8.8.8.8.8.8.. . . $ Y E E E D S S S A S S A n e 0 % . X . @ . 8.8.8.8.8.8.8.8.8.8.8.",
"8.8.8.8.8.8.8.8.8.8.8.8.8.8.. . . & W ) ) / L K K K K K K K K K G A 0 o . . . . 8.8.8.8.8.8.8.8.8.8.",
"8.8.8.8.8.8.8.8.8.8.8.8.8.8.@ . . & W ) / / L K K K K K K K K K K K K n % . . . 8.8.8.8.8.8.8.8.8.8.",
"8.8.8.8.8.8.8.8.8.8.8.8.8.8.. . . & W ) / / L G K K K K K K K K K K K K A % . . . 8.8.8.8.8.8.8.8.8.",
"8.8.8.8.8.8.8.8.8.8.8.8.8.8.. . . & W ) / / L K K K K K K K K K K K K G K e X . . . 8.8.8.8.8.8.8.8.",
"8.8.8.8.8.8.8.8.8.8.8.8.8.8.. . . & W / / / L G K K K K K J K K K K K K K H 8 . . X 8.8.8.8.8.8.8.8.",
"8.8.8.8.8.8.8.8.8.8.X . . . . .   & W / / / L G K K K K K K K K J G K K K K w X . . . . 8.8.8.8.8.8.",
"8.8.8.8.8.8.8.8.. . . .   . .     & W / / / L G G G G G G G G G G G G G K K v . . . . . . . 8.8.8.8.",
"8.8.8.8.8.8.8.. . . . @ 6 u u u u s ( _ _ _ ^ P U U U U U U U U U U U P U I F p u t $ . . . . 8.8.8.",
"8.8.8.8.8.8.. . . . i +.-.3.3.3.<.1.4.4.4.4.4.2.2.2.2.2.2.2.2.2.2.2.2.4.2.2.2.<.<.>.&.j $ . . . 8.8.",
"8.8.8.8.8.X . . @ j >.6.6.6.6.6.6.6.6.6.6.6.5.6.6.6.6.6.6.6.6.6.6.6.6.6.6.6.5.6.6.6.6.6.o.* . . X 8.",
"8.8.8.8.. . . . # j c c c c x x x x x x c x x x x x x x x c c x c x c o.=.6.5.6.6.6.6.6.6.c . . . 8.",
"8.. . . . . X . . .               .                                   . 7 @.6.6.5.6.4.6.6.=.* . . . ",
". . . .     @   @ . . . . . . X . . .   . . . . . . . . . . @   @   . .   u >.6.6.5.6.5.6.>.i . . . ",
". . . 6 |  . . . .| | | | | |  .| |  . .| | | |  . .| | |  .B k k k i . . $ *.6.6.6.5.6.6.<.i   . . ",
". .   i 3.6.6.6.6.6.7.7.6.6.7.6.7.6.6.7.7.6.7.6.6.6.7.6.6.6.,.%.%.%.z . . $ &.6.5.6.6.6.6.<.i   . . ",
". @   i 3.6.6.6.6.6.6.7.6.7.6.6.6.7.7.6.7.6.7.6.6.7.7.6.6.6.3.%.%.%.z . . $ &.6.6.5.6.5.6.<.i . . . ",
". .   i 3.6.5.#.....................................X.:.6.6.,.%.%.%.z . . $ *.6.5.6.5.6.6.>.i . . . ",
". . . i 3.6.4.l ; 1 2 1 2 2 , 2 1 2 2 2 1 2 2 2 1 2 2 $.6.6.,.%.%.%.z . . $ &.7.6.5.6.5.6.>.i   . . ",
". .   i ,.6.1.l 2 2 2 2 2 2 2 2 2 2 2 2 2 2 2 2 2 2 5 $.6.6.,.%.%.%.k . . $ &.6.5.6.6.6.6.3.i . @ . ",
". . . a ,.5.4.B 1 2 2 2 2 2 2 2 2 2 2 2 2 2 2 2 2 2 5 &.6.6.,.%.$.%.k .   $ &.6.6.5.4.6.6.3.i   . . ",
". . . i >.6.5.$.X.O.O.O.O.O.X.O.O.O.X.O.O.O.O.X.X.X.O.:.6.6.,.%.%.%.z .   $ &.6.6.5.6.5.6.<.i   . . ",
". . . i 3.6.6.6.6.6.6.6.6.6.6.6.6.6.6.6.6.6.6.6.6.6.6.6.6.6.,.%.%.%.z   . $ *.7.5.6.5.6.6.<.i . . . ",
". .   i <.6.6.5.6.5.5.6.6.6.6.6.6.6.5.6.6.6.5.6.6.6.6.6.6.6.,.%.%.%.z   . $ &.6.6.5.6.5.6.<.i . . . ",
"@ . . i 3.6.6.6.6.6.6.6.6.6.6.6.6.6.6.6.6.6.6.6.6.6.6.6.6.6.,.%.%.%.z . . $ &.6.5.6.6.5.6.<.i   . . ",
". X . * g h h h h h h h h h h h h h h h h h h h h h h h h h g d d d 7 . X $ ~ ;.;.} ;.;.;.} y   . . ",
". . . .                                                               X   9 ] [ { { [ { { ` 4 . . . ",
"8.. . . . . . . . . . . . . . . . . . . . . . . . . . X . . . . . . X # 9 Z { { { { { { { ] 4 . @ . ",
"8.8.8.8.. . . X f m m m m m m m m m m m m m m m m m m m m m m m m m m Z ] { { { [ [ { { { ` 4 . . . ",
"8.8.8.8.8.. . @ Z { { { { { { { { { { { { { { { { { { { { { { { { { { { { { { { { { { { { ` 4   . @ ",
"8.8.8.8.8.. X @ Z { { { { { { { { { { { { { { { { { { { { { { { { { { { { { { { { { { { { ` 4   . . ",
"8.8.8.8.8.. X @ Z { { { { { { { { { { { { { { { { { { { { ] { { { { { { { { [ { { { { { { ] 4   . . ",
"8.8.8.8.8.. . @ Z { { { { { { { { { { { { { { { { { { { { { { { { { { { [ { { { { ] { { { ] 4   . . ",
"8.8.8.8.8.. . @ Z { { { { { { { { { { { { { { { { { { { { { { { { { { { { { { { { { { { { ] 4   . . ",
"8.8.8.8.8.. . @ Z { { { { { { { { { { ] { { { { { { { { { { { { { { { { { { { { { { { { { ] 4 . . . ",
"8.8.8.8.8.@ . @ Z { { { { { { { { { { { { { { { { { { { { { { { { { { { { { { { { { { { { ] 4 . . . ",
"8.8.8.8.8.. . @ N ' ` ` ` ` ` ] ` ` ` ` ` ` ` ` ] ] ] ` ` ` ` ` ] ] ] ] ` ` ` ` ` ` ` ` ` ! 3 . . @ ",
"8.8.8.8.8.. . X > 3 < 3 3 3 < 3 3 3 3 < < 3 < < 3 3 3 3 3 3 3 < 3 3 3 3 3 3 3 2 3 3 < 3 3 < @ . . . ",
"8.8.8.8.8.. . . . . . . . . . . . . . . . . . . . . . . . . . . . . .   . . . X . . . . . . . . . 8.",
"8.8.8.8.8.8.. . . . . . . . . . X X X @ @ . X X . . . . . . . . . . @ X . @ @ X . @ . . . @ . . 8.8.",
"8.8.8.8.8.8.8.8.8.8.8.8.. . . # , , , , , , , @ . . . 8.8.8.8.. . . @ - , , ; 2 , , # . . . 8.8.8.8.",
"8.8.8.8.8.8.8.8.8.8.8.8.X . . # 2 2 2 2 2 2 2 # . . . 8.8.8.8.X . . @ , 2 2 2 2 2 2 - . . . 8.8.8.8.",
"8.8.8.8.8.8.8.8.8.8.8.8.. . X O - - - - - - - @ . . . 8.8.8.8.. . . @ , 2 2 2 2 2 2 O . . . 8.8.8.8.",
"8.8.8.8.8.8.8.8.8.8.8.8.. . . . . . . . X X . . . . . 8.8.8.8.. . . @ ; ; ; ; ; ; ; # . . . 8.8.8.8.",
"8.8.8.8.8.8.8.8.8.8.8.8.8.. . X X . . . . . . . @ . 8.8.8.8.8.. @ .   @ . . . X X X . . @ . 8.8.8.8.",
"8.8.8.8.8.8.8.8.8.8.8.8.8.8.. X . . . . . X . . 8.8.8.8.8.8.8.8.  . . . @ . . . . . . . . 8.8.8.8.8.",
"8.8.8.8.8.8.8.8.8.8.8.8.8.8.8.8.8.8.8.8.8.8.8.8.8.8.8.8.8.8.8.8.8.. . .   . . . @ . . . 8.8.8.8.8.8."
};
