/* XPM */
static char *_723_ee596e701a7fdccad72355b2a6de5123f01df06c7aeeed4833f703297d23781e[] = {
/* columns rows colors chars-per-pixel */
"50 50 105 2 ",
"   c #2A1F2F",
".  c #2E222F",
"X  c #34232F",
"o  c #37292F",
"O  c #3C2D2F",
"+  c #2E2331",
"@  c #2F2739",
"#  c #2F283C",
"$  c #362332",
"%  c #3A2430",
"&  c #37243E",
"*  c #30293E",
"=  c #41312F",
"-  c #48372F",
";  c #4F3C2F",
":  c #503D2F",
">  c #412230",
",  c #562331",
"<  c #642332",
"1  c #742432",
"2  c #7C2433",
"3  c #56422F",
"4  c #5A452F",
"5  c #66472F",
"6  c #6B462A",
"7  c #674F2E",
"8  c #6A522F",
"9  c #70562F",
"0  c #7E612E",
"q  c #3D2547",
"w  c #312D45",
"e  c #3D2548",
"r  c #312F4A",
"t  c #31314E",
"y  c #2F3154",
"u  c #323353",
"i  c #41254E",
"p  c #563C40",
"a  c #422651",
"s  c #4E2864",
"d  c #52296B",
"f  c #552970",
"g  c #842433",
"h  c #8F2434",
"j  c #912434",
"k  c #9E3237",
"l  c #AF2535",
"z  c #A32C36",
"x  c #B12535",
"c  c #BC3639",
"v  c #C72D38",
"b  c #C82F38",
"n  c #C13739",
"m  c #E93C3C",
"M  c #885727",
"N  c #8B5827",
"B  c #895928",
"V  c #AE4732",
"C  c #BF4733",
"Z  c #BF4833",
"A  c #82642E",
"S  c #8A662D",
"D  c #8C6C2E",
"F  c #9D7A2E",
"G  c #B26F24",
"H  c #A07C2E",
"J  c #B47024",
"K  c #C04833",
"L  c #D34F36",
"P  c #CE5637",
"I  c #EC5A39",
"U  c #845954",
"Y  c #8E7541",
"T  c #907741",
"R  c #A66F61",
"E  c #AA7162",
"W  c #AE872E",
"Q  c #B0882E",
"!  c #B88E2E",
"~  c #BB902E",
"^  c #A9883C",
"/  c #BE9838",
"(  c #F5961E",
")  c #F5991F",
"_  c #F8981E",
"`  c #C1962E",
"'  c #D0A12D",
"]  c #DCAB2D",
"[  c #CCA236",
"{  c #D0A435",
"}  c #DAAC33",
"|  c #E1AF2D",
" . c #E5B22D",
".. c #ECB72D",
"X. c #EDB82D",
"o. c #F4BB2D",
"O. c #F8B92B",
"+. c #FBC32D",
"@. c #5F2B82",
"#. c #632C87",
"$. c #672D8D",
"%. c #682D8F",
"&. c #662B90",
"*. c #692D90",
"=. c None",
/* pixels */
"=.=.=.=.=.=.=.=.=.=.=.=.=.=.=.=.. . . . . . . . . . . . . . . . =.=.=.=.=.=.=.=.=.=.=.=.=.=.=.=.=.=.",
"=.=.=.=.=.=.=.=.=.=.=.=.=.=.=.. $ . . . . . . . . . . . . . . X . . + =.=.=.=.=.=.=.=.=.=.=.=.=.=.=.",
"=.=.=.=.=.=.=.=.=.=.=.=.=.=.=.. . . X % % % $ $ X X X $ X X X . . . . . . =.=.=.=.=.=.=.=.=.=.=.=.=.",
"=.=.=.=.=.=.=.=.=.=.=.=.=.=.=.. . % k c c c z j j h j j h h g 1 , % . . . X . =.=.=.=.=.=.=.=.=.=.=.",
"=.=.=.=.=.=.=.=.=.=.=.=.=.=.=.. . % n m m m b l x x x x x x x x l j < % . . . . =.=.=.=.=.=.=.=.=.=.",
"=.=.=.=.=.=.=.=.=.=.=.=.=.=.=.. . % v m m m v l l l x l l l l x l x l g > . . . =.=.=.=.=.=.=.=.=.=.",
"=.=.=.=.=.=.=.=.=.=.=.=.=.=.=.. . % n m m m v l l x l l l l l l l l l x j > . . . =.=.=.=.=.=.=.=.=.",
"=.=.=.=.=.=.=.=.=.=.=.=.=.=.=.. . % n I m m v l l l x l l x l l l l l l l g X . . . =.=.=.=.=.=.=.=.",
"=.=.=.=.=.=.=.=.=.=.=.=.=.=.. . + % n m m m b l l l l l l l l l l l l l l l , . . . =.=.=.=.=.=.=.=.",
"=.=.=.=.=.=.=.=.=.=.=.. . . + . + % n m m m b l l x l l l l l x l l x l l l 2   . . . . =.=.=.=.=.=.",
"=.=.=.=.=.=.=.=.=.. . . . . . .   % c m m m b l l l l l l l l l l l l x l l j X + . . . + . =.=.=.=.",
"=.=.=.=.=.=.=.. . + . . O ; 4 4 4 5 P I I I L K Z Z Z Z Z Z Z Z C C C K C Z V 5 3 - o . . . . =.=.=.",
"=.=.=.=.=.=.. . . . ; F '  .X.X.X.o.o.O.O.O.o.o.o.O.o.o.o.o.o.o.o.o.o.o.X.o.o. ...] ` 0 O . . . =.=.",
"=.=.=.=.=.=.. . . 7 ] +.+.+.+.+.+.+.+.+.+.+.+.+.+.+.+.+.+.+.+.+.+.+.+.+.+.+.+.+.+.+.+.+.Q O . . + =.",
"=.=.=.=.=.. + . X 0 F F H F F F F F H H F F F F H H F F F F H F F F F W ] +.+.+.o.+.+.+.+.F . . . . ",
"=.. . . . . . X . . . . + . . .     + +     +     +   .   .   . .   . $ ; ! +.+.+.+.+.+.+.| ; . . . ",
"=.+ . .       + . . . .   . . .   +     X . . .     . . . . .   . . . .   ; | +.+.+.+.+.+...7 . . . ",
". . . O A D D D D D D D D D D D D D D D D D D D D D D D D D S M N N 6 . . X ` +.+.+.+.+.+.+.8 . . + ",
". . . ;  .+.+.+.+.+.+.+.+.+.+.+.+.+.+.+.+.+.+.+.+.+.+.+.+.+.O.) ( _ J . . . ~ +.+.+.o.+.+.X.8 . . + ",
". . . ;  .+.+.o.+.+.+.+.+.+.+.+.+.+.+.+.+.+.+.+.+.+.+.+.+.+.O.) ( _ G . . . ~ +.X.+.+.+.+.+.9 . . . ",
". X . ;  .+.+.[ ^ ^ ^ ^ ^ ^ ^ ^ ^ ^ ^ ^ ^ ^ ^ ^ ^ ^ ^ | +.+.O.) ( _ G . . o ~ +.+.+.+.+.+...8 . X . ",
". . + ;  .+.+.Y u u u u u u u u u u u u u u u t u u u ^ +.+.O.) ( _ G . + X ~ +.+.+.+.+.+.X.8 . . . ",
". . . ;  .+.o.Y u u u u u u u u u u u u u u u u u u u ^ +.+.O.) ) _ J . . + ~ +.+.+.X.+.+.X.8 . . + ",
". . . ;  .+.+.Y y t u u u y u u u u u u u u u u u u t ^ +.+.O.) ) ) J . . + ~ +.+.+.+.+.+.+.9 . . . ",
". . . ;  .+.+./ Y Y Y Y Y Y Y Y Y Y Y Y Y Y Y D D T T [ +.+.o.) ( _ G . . . ~ +.+.+.+.+.+.o.9   . . ",
". . . ; | +.+.+.+.+.+.+.+.+.+.+.+.+.+.+.+.+.+.+.+.+.+.+.+.+.o.) ( _ G . . X ~ +.+.+.X.+.+.o.9   . . ",
". . . ; ] +.+.+.+.+.o.+.+.+.+.o.+.+.+.+.+.+.+.+.+.+.+.+.+.+.o.) ( _ G . . + ~ +.+.+.+.+.+.o.9 . . . ",
". + . ;  .+.+.+.+.+.+.+.+.+.+.+.+.+.+.+.+.+.+.+.+.+.+.+.+.+.O.) ( _ G . . . ~ +.+.+.+.+.+.+.8   . . ",
". . . O A S D D D D D D D S D D A D D D D D D D D S D D D S S B M M 6 . + $ U E R R R E E R 3 + . + ",
"=.. + . . + . . . +     .       + +     . .     .     . + +   + . . . . . w @.&.@.&.&.&.$.$.e @ . X ",
"=.. . . . . . . + + . . . . . . . . + + . . . . . . . . . . . . . . . . & d $.$.$.$.*.&.$.$.i . . . ",
"=.=.=.=.. . . + e s s s s s s s s s s s s s s s s s s s s s s s s s s d @.%.$.$.$.$.$.*.$.#.i . . . ",
"=.=.=.=.=.. . + d *.%.%.%.%.%.%.*.*.*.*.$.*.*.*.*.*.*.$.*.*.*.*.*.*.$.*.$.$.$.$.%.$.$.$.%.$.i o . . ",
"=.=.=.=.=.. . $ d %.%.$.$.$.$.%.$.$.$.$.$.$.$.$.$.$.$.$.$.$.$.$.$.$.$.$.%.$.%.$.$.$.$.%.$.$.e . . + ",
"=.=.=.=.=.. . + d %.%.%.%.$.$.$.$.*.*.$.$.$.$.*.*.$.$.*.*.$.$.*.$.$.$.$.%.$.%.%.%.$.%.$.$.$.e + . . ",
"=.=.=.=.=.. . + d %.%.%.$.$.$.%.$.$.$.$.$.*.$.$.$.$.$.$.$.$.$.$.%.$.$.*.%.%.%.$.$.$.$.$.$.$.e + . . ",
"=.=.=.=.=.. . $ d %.$.%.$.$.$.%.$.$.$.$.$.$.$.$.$.$.$.$.$.$.$.$.%.%.$.$.%.%.$.$.$.$.$.$.$.$.e + X . ",
"=.=.=.=.=.. . + d *.$.$.$.%.$.$.$.$.$.$.$.$.$.$.$.$.$.$.$.$.$.$.%.%.$.$.%.%.$.$.$.$.$.$.$.$.e . . . ",
"=.=.=.=.=.X . + d *.%.%.%.%.$.%.$.$.$.$.$.$.$.$.*.$.$.$.$.$.$.$.%.%.%.$.%.%.%.$.$.$.$.$.$.$.i + . + ",
"=.=.=.=.=.. . + d $.$.#.#.$.#.#.#.$.$.#.$.$.#.#.$.$.#.$.$.$.#.$.#.#.#.$.#.#.$.#.$.$.$.#.$.#.e . . . ",
"=.=.=.=.=.. . . * q q e e q q e q q q q q q q q q q e e e q e e q q q q q q q q q q q q q q o + . + ",
"=.=.=.=.=.$ . . . . . . . . . . . . . . . . . . . . . . . . . . . . . . . . . . . . . . . . . + . . ",
"=.=.=.=.=.=.. . . . . . . . . . + + + + . . + . . . . . . . . . . . . + + + + + + + . . . . . + =.=.",
"=.=.=.=.=.=.=.=.=.=.=.=.. . . @ r r r t r r r @ . . . =.=.=.=.. . . + w r r r t r r * . . . =.=.=.=.",
"=.=.=.=.=.=.=.=.=.=.=.=.. . . @ u u u u u u u @ + X . =.=.=.=.. . . + t u u u u u u w . + . =.=.=.=.",
"=.=.=.=.=.=.=.=.=.=.=.=.. . X @ u u u u u u u * . . . =.=.=.=.. . . @ t u u u u u u w + . . =.=.=.=.",
"=.=.=.=.=.=.=.=.=.=.=.=.. . . @ r r r r t r t @ . . . =.=.=.=.. . . + w r r r t t r # + . + =.=.=.=.",
"=.=.=.=.=.=.=.=.=.=.=.=.. . . . + + + + + . + + . + . =.=.=.=.X . . . + + + . + + . X . . . =.=.=.=.",
"=.=.=.=.=.=.=.=.=.=.=.=.=.. . . . + . . . . . . . . =.=.=.=.=.=.. . . . . . . o . . . . . . =.=.=.=.",
"=.=.=.=.=.=.=.=.=.=.=.=.=.=.. . X . . . . . + . . =.=.=.=.=.=.=.=.. + + . . . . . . + . + =.=.=.=.=."
};
