/* XPM */
static char *_6422_31749ad63660f25fcfdaddc08ba7ff3cb58b9a65183a3692f798db9db0a601ea[] = {
/* columns rows colors chars-per-pixel */
"50 50 147 2 ",
"   c #2B222F",
".  c #2C222F",
"X  c #2D222F",
"o  c #2E222F",
"O  c #2F222F",
"+  c #33212F",
"@  c #30222F",
"#  c #31222F",
"$  c #32222F",
"%  c #33222F",
"&  c #34212E",
"*  c #35212E",
"=  c #34212F",
"-  c #37212E",
";  c #34222F",
":  c #35222F",
">  c #36222F",
",  c #37222F",
"<  c #38212E",
"1  c #39212E",
"2  c #3A212E",
"3  c #3B212E",
"4  c #38222F",
"5  c #3D2230",
"6  c #3C2430",
"7  c #481F2D",
"8  c #4D1F2D",
"9  c #501F2D",
"0  c #541E2C",
"q  c #561E2C",
"w  c #571E2C",
"e  c #581E2C",
"r  c #5A1E2C",
"t  c #5E1E2C",
"y  c #621D2B",
"u  c #691D2B",
"i  c #6A1C2B",
"p  c #6E1C2A",
"a  c #711C2A",
"s  c #731C2A",
"d  c #741C2A",
"f  c #761C2A",
"g  c #781B2A",
"h  c #7A1B2A",
"j  c #7B1B2A",
"k  c #7D1B29",
"l  c #7E1B29",
"z  c #7C1B2A",
"x  c #42202D",
"c  c #43202D",
"v  c #41202E",
"b  c #402230",
"n  c #412330",
"m  c #422330",
"M  c #442230",
"N  c #452230",
"B  c #442330",
"V  c #462330",
"C  c #4C2330",
"Z  c #4D2330",
"A  c #4F2331",
"S  c #4F2731",
"D  c #502331",
"F  c #512331",
"G  c #522331",
"H  c #532331",
"J  c #552331",
"K  c #562331",
"L  c #572331",
"P  c #582331",
"I  c #5B2331",
"U  c #5C2331",
"Y  c #5D2331",
"T  c #5E2331",
"R  c #602331",
"E  c #622331",
"W  c #632332",
"Q  c #652332",
"!  c #6C2432",
"~  c #6E2432",
"^  c #6F2432",
"/  c #702432",
"(  c #742432",
")  c #752432",
"_  c #772432",
"`  c #782432",
"'  c #782433",
"]  c #742C34",
"[  c #782C34",
"{  c #7C2D35",
"}  c #811B29",
"|  c #851A29",
" . c #861A29",
".. c #891A29",
"X. c #8A1A29",
"o. c #8D1A28",
"O. c #8F1A28",
"+. c #8E1A29",
"@. c #951928",
"#. c #961928",
"$. c #971928",
"%. c #981928",
"&. c #991928",
"*. c #9A1928",
"=. c #802433",
"-. c #822433",
";. c #832433",
":. c #842433",
">. c #882433",
",. c #8B2433",
"<. c #8E2433",
"1. c #8F2434",
"2. c #802D35",
"3. c #902434",
"4. c #912434",
"5. c #932434",
"6. c #952434",
"7. c #972434",
"8. c #982534",
"9. c #992534",
"0. c #9B2534",
"q. c #9E2534",
"w. c #9F2534",
"e. c #A02534",
"r. c #A12535",
"t. c #A22535",
"y. c #A32535",
"u. c #A42535",
"i. c #A52535",
"p. c #A62535",
"a. c #A72535",
"s. c #A82535",
"d. c #A92535",
"f. c #AA2535",
"g. c #AB2535",
"h. c #AC2535",
"j. c #AD2535",
"k. c #AE2535",
"l. c #AF2535",
"z. c #B02535",
"x. c #B12535",
"c. c #D53A3B",
"v. c #D63A3B",
"b. c #E73C3C",
"n. c #E83C3C",
"m. c #E93C3C",
"M. c None",
/* pixels */
"M.o o o o o o o o o o o o o o o o o o o o o o o o o o o o o o o o o o o o o o o o o o o o o o o o M.",
"o o o o o o o o o o o o o o o o o o o o o o o o o o o o o o o o o o o o o o o o o o o o o o o o o o ",
"o o o o . . . . . . . . . . . . . . . . . . . . . . . . . . . . . . . . . . . . . . . . . . o o o o ",
"o o X 6 [ 2.2.2.2.2.2.2.2.2.2.2.2.2.2.2.2.2.2.2.2.2.2.2.2.2.2.2.2.2.2.2.2.2.2.2.2.2.2.2.2.[ 6 X o o ",
"o o . S v.m.n.n.n.n.n.n.n.n.n.n.n.n.n.n.n.n.n.n.n.n.n.n.n.n.n.n.n.n.n.n.n.n.n.n.n.n.n.n.m.v.S . o o ",
"o o . S v.m.n.n.n.n.n.n.n.n.n.n.n.n.n.n.n.n.n.n.n.n.n.n.n.n.n.n.n.n.n.n.n.n.n.n.n.n.n.n.m.v.S . o o ",
"o o . S v.m.n.n.n.n.n.n.n.n.n.n.n.n.n.n.n.n.n.n.n.n.n.n.n.n.n.n.n.n.n.n.n.n.n.n.n.n.n.n.m.v.S . o o ",
"o o . S v.m.n.n.n.n.n.n.n.n.n.n.n.n.n.n.n.n.n.n.n.n.n.n.n.n.n.n.n.n.n.n.n.n.n.n.n.n.n.n.m.v.S . o o ",
"o o . S v.m.n.n.n.n.n.n.n.n.n.n.n.n.n.n.n.n.n.n.n.n.n.n.n.n.n.n.n.n.n.n.n.n.n.n.n.n.n.n.m.v.S . o o ",
"o o . S c.n.b.b.b.b.b.b.b.b.b.b.b.b.b.b.b.b.b.b.b.b.b.b.b.b.b.b.b.b.b.b.b.b.b.b.b.b.b.b.n.c.S . o o ",
"o o X 6 ] { { { { { { { { { { { { { { { { { { { { { { { { { { { { { { { { { { { { { { { { ] 6 X o o ",
"o o o X                                                                                     X o o o ",
"o o o o . . . . . . . . . . . . . . . . . . . . . . . . . . . . . . . . . . . . . . . . . . o o o o ",
"o o o ; A H G G G G G G G G G G G G G G G G G G G G G G G G G G G G G G G G G G G G G G H A ; o o o ",
"o o X M w.g.g.g.g.g.g.g.g.g.g.g.g.g.g.g.g.g.g.g.g.g.g.g.g.g.g.g.g.g.g.g.g.g.g.g.g.g.g.g.g.w.M X o o ",
"o o X N y.z.l.l.l.l.l.l.l.l.l.l.l.l.l.l.l.l.l.l.l.l.l.l.l.l.l.l.l.l.l.l.l.l.l.l.l.l.l.l.z.y.N X o o ",
"o o X N t.z.l.l.l.l.l.l.l.l.l.l.l.l.l.l.l.l.l.l.l.l.l.l.l.l.l.l.l.l.l.l.l.l.l.l.l.l.l.l.z.t.N X o o ",
"o o X N t.z.l.l.l.l.l.l.l.l.l.l.l.l.l.l.l.l.l.l.l.l.l.l.l.l.l.l.l.l.l.l.l.l.l.l.l.l.l.l.z.t.N X o o ",
"o o X N t.z.l.l.l.l.l.l.l.l.l.l.l.l.l.l.l.l.z.x.x.x.x.z.l.l.l.l.l.l.l.l.l.l.l.l.l.l.l.l.z.t.N X o o ",
"o o X N t.z.l.l.l.l.l.l.l.l.l.l.l.l.l.z.x.h.w.4.,.,.4.q.h.z.z.l.l.l.l.l.l.l.l.l.l.l.l.l.z.t.N X o o ",
"o o X N t.z.l.l.l.l.l.l.l.l.l.l.l.l.z.s.:.I n : @ @ : b L -.s.z.l.l.l.l.l.l.l.l.l.l.l.l.z.t.N X o o ",
"o o X N t.z.l.l.l.l.l.l.l.l.l.l.l.z.7.P % . X X o o X X . $ J 6.z.l.l.l.l.l.l.l.l.l.l.l.z.t.N X o o ",
"o o X N t.z.l.l.l.l.l.l.l.l.l.l.z.3.B . o X X @ + = # X X o . B <.z.l.l.l.l.l.l.l.l.l.l.z.t.N X o o ",
"o o X N t.z.l.l.l.l.l.l.l.l.l.z.0.V . o X - w s } } f r < X o . B 8.z.l.l.l.l.l.l.l.l.l.z.t.N X o o ",
"o o X N t.z.l.l.l.l.l.l.l.l.l.j.W X o X v h @.&.%.%.&.#.z x X o . Y g.l.l.l.l.l.l.l.l.l.z.t.N X o o ",
"o o X N t.z.l.l.l.l.l.l.l.l.z.9.5 X X < j %.$.$.$.$.$.$.%.l 3 X X 4 5.z.l.l.l.l.l.l.l.l.z.t.N X o o ",
"o o X N t.z.l.l.l.l.l.l.l.l.x.=.O o X e #.$.$.$.$.$.$.$.$.$.t X o o ` z.l.l.l.l.l.l.l.l.z.t.N X o o ",
"o o X N t.z.l.l.l.l.l.l.l.l.l.^ X o @ p &.$.$.$.$.$.$.$.$.&.d # o X Q l.l.l.l.l.l.l.l.l.z.t.N X o o ",
"o o X N t.z.l.l.l.l.l.l.l.l.l.! X o # a &.$.$.$.$.$.$.$.$.%.g $ o X E k.l.l.l.l.l.l.l.l.z.t.N X o o ",
"o o X N t.z.l.l.l.l.l.l.l.l.z._ o o X y %.$.$.$.$.$.$.$.$.%.u O o X / z.l.l.l.l.l.l.l.l.z.t.N X o o ",
"o o X N t.z.l.l.l.l.l.l.l.l.x.1.: o X c ..%.$.$.$.$.$.$.%.o.7 X o $ >.x.l.l.l.l.l.l.l.l.z.t.N X o o ",
"o o X N t.z.l.l.l.l.l.l.l.l.l.a.G . o o 0 o.%.$.$.$.$.$.O.r O o . C u.z.l.l.l.l.l.l.l.l.z.t.N X o o ",
"o o X N t.z.l.l.l.l.l.l.l.l.l.z.>., X o o 8 X.%.$.$.%.+.9 O o X ; ;.z.l.l.l.l.l.l.l.l.l.z.t.N X o o ",
"o o X N t.z.l.l.l.l.l.l.l.l.l.l.j.) ; o X & k %.$.$.%.| 1 X o $ ~ h.l.l.l.l.l.l.l.l.l.l.z.t.N X o o ",
"o o X N t.z.l.l.l.l.l.l.l.l.l.l.z.d.J . X * k %.$.$.%. .2 X X C p.z.l.l.l.l.l.l.l.l.l.l.z.t.N X o o ",
"o o X N t.z.l.l.l.l.l.l.l.l.l.l.l.j.T . X * k %.$.$.%. .2 X . F f.l.l.l.l.l.l.l.l.l.l.l.z.t.N X o o ",
"o o X N t.z.l.l.l.l.l.l.l.l.l.l.l.h.Y . X * k *.%.%.&. .1 X . D d.l.l.l.l.l.l.l.l.l.l.l.z.t.N X o o ",
"o o X N t.z.l.l.l.l.l.l.l.l.l.l.l.j.E . o @ q i u u i r $ o . P g.l.l.l.l.l.l.l.l.l.l.l.z.t.N X o o ",
"o o X N t.z.l.l.l.l.l.l.l.l.l.l.l.z.=.# X o o o o o o o o o O ' z.l.l.l.l.l.l.l.l.l.l.l.z.t.N X o o ",
"o o X N t.z.l.l.l.l.l.l.l.l.l.l.l.z.s.R O . X X X X X X . o U i.z.l.l.l.l.l.l.l.l.l.l.l.z.t.N X o o ",
"o o X N t.z.l.l.l.l.l.l.l.l.l.l.l.l.z.p.` Z m m m m m m C ( i.z.l.l.l.l.l.l.l.l.l.l.l.l.z.t.N X o o ",
"o o X N t.z.l.l.l.l.l.l.l.l.l.l.l.l.l.z.z.s.e.e.e.e.e.e.a.z.z.l.l.l.l.l.l.l.l.l.l.l.l.l.z.t.N X o o ",
"o o X N t.z.l.l.l.l.l.l.l.l.l.l.l.l.l.l.l.l.z.z.z.z.z.z.l.l.l.l.l.l.l.l.l.l.l.l.l.l.l.l.z.t.N X o o ",
"o o X N t.z.l.l.l.l.l.l.l.l.l.l.l.l.l.l.l.l.l.l.l.l.l.l.l.l.l.l.l.l.l.l.l.l.l.l.l.l.l.l.z.t.N X o o ",
"o o X N y.z.l.l.l.l.l.l.l.l.l.l.l.l.l.l.l.l.l.l.l.l.l.l.l.l.l.l.l.l.l.l.l.l.l.l.l.l.l.l.z.y.N X o o ",
"o o X N r.k.k.k.k.k.k.k.k.k.k.k.k.k.k.k.k.k.k.k.k.k.k.k.k.k.k.k.k.k.k.k.k.k.k.k.k.k.k.k.k.r.N X o o ",
"o o X > K I I I I I I I I I I I I I I I I I I I I I I I I I I I I I I I I I I I I I I I I K > X o o ",
"o o o o . . . . . . . . . . . . . . . . . . . . . . . . . . . . . . . . . . . . . . . . . . o o o o ",
"o o o o o o o o o o o o o o o o o o o o o o o o o o o o o o o o o o o o o o o o o o o o o o o o o o ",
"M.o o o o o o o o o o o o o o o o o o o o o o o o o o o o o o o o o o o o o o o o o o o o o o o o M."
};
