/* XPM */
static char *_2844_44ce26e96b43fbd84a6587284985cfe0c181e743c0fb9976951aa9e618e8257e[] = {
/* columns rows colors chars-per-pixel */
"50 50 223 2 ",
"   c #2C1F2C",
".  c #2C202D",
"X  c #2D202D",
"o  c #2E212D",
"O  c #2D202E",
"+  c #2D212E",
"@  c #2E212E",
"#  c #2E222E",
"$  c #2E222F",
"%  c #2E2230",
"&  c #2E2330",
"*  c #2F2330",
"=  c #2F2430",
"-  c #2F2431",
";  c #2F2533",
":  c #302431",
">  c #302532",
",  c #312532",
"<  c #312632",
"1  c #312633",
"2  c #322733",
"3  c #322734",
"4  c #322834",
"5  c #332835",
"6  c #302837",
"7  c #342936",
"8  c #352A36",
"9  c #342A37",
"0  c #352A37",
"q  c #352B37",
"w  c #302838",
"e  c #302939",
"r  c #312B3B",
"t  c #362B38",
"y  c #362C39",
"u  c #372D39",
"i  c #372D3A",
"p  c #312C3C",
"a  c #312C3D",
"s  c #392E3B",
"d  c #39303B",
"f  c #3A303B",
"g  c #3B323E",
"h  c #3D333F",
"j  c #3D3541",
"k  c #3E3541",
"l  c #3D3542",
"z  c #3D3642",
"x  c #3E3642",
"c  c #36394F",
"v  c #363A50",
"b  c #403743",
"n  c #413945",
"m  c #423945",
"M  c #423A46",
"N  c #433A46",
"B  c #423C48",
"V  c #433D49",
"C  c #443C48",
"Z  c #453D48",
"A  c #463F4A",
"S  c #473F4B",
"D  c #39415A",
"F  c #3B4964",
"G  c #3D4D6A",
"H  c #3D4E6C",
"J  c #3D4F6D",
"K  c #4D4850",
"L  c #555158",
"P  c #565259",
"I  c #54525D",
"U  c #54535D",
"Y  c #565560",
"T  c #565660",
"R  c #575661",
"E  c #5A5660",
"W  c #5C5862",
"Q  c #595964",
"!  c #5A5A65",
"~  c #5B5C66",
"^  c #5C5C66",
"/  c #5D5D68",
"(  c #405677",
")  c #405678",
"_  c #415A7C",
"`  c #5F606B",
"'  c #62656F",
"]  c #63656F",
"[  c #656872",
"{  c #686B75",
"}  c #686C76",
"|  c #696C76",
" . c #696D77",
".. c #6A6E78",
"X. c #6C717A",
"o. c #6D727B",
"O. c #6D727C",
"+. c #76797A",
"@. c #435F83",
"#. c #436186",
"$. c #446287",
"%. c #446388",
"&. c #466991",
"*. c #466992",
"=. c #727982",
"-. c #747A84",
";. c #747B84",
":. c #757C85",
">. c #4A75A2",
",. c #4B76A4",
"<. c #4C7CAB",
"1. c #4D7DAD",
"2. c #7B8089",
"3. c #79818A",
"4. c #7A828B",
"5. c #7E8089",
"6. c #7C818A",
"7. c #7B848C",
"8. c #7D868E",
"9. c #7D868F",
"0. c #7D878F",
"q. c #7D8790",
"w. c #7E8891",
"e. c #7F8891",
"r. c #7F8991",
"t. c #7F8992",
"y. c #5087BA",
"u. c #5188BC",
"i. c #5492CA",
"p. c #5493CB",
"a. c #5697D0",
"s. c #5697D1",
"d. c #5698D1",
"f. c #5698D2",
"g. c #5698D3",
"h. c #5699D3",
"j. c #5699D4",
"k. c #5799D4",
"l. c #579AD4",
"z. c #579AD5",
"x. c #80828A",
"c. c #89908F",
"v. c #838E96",
"b. c #858D95",
"n. c #848F97",
"m. c #868E96",
"M. c #888C94",
"N. c #898D94",
"B. c #8A8E96",
"V. c #848F98",
"C. c #8A9190",
"Z. c #849098",
"A. c #87939B",
"S. c #8F939B",
"D. c #8A969E",
"F. c #8C959D",
"G. c #8C969E",
"H. c #8F989F",
"J. c #90959C",
"K. c #91969E",
"L. c #8B98A0",
"P. c #949AA1",
"I. c #919FA7",
"U. c #93A2A9",
"Y. c #94A3AA",
"T. c #95A5AC",
"R. c #9CA3A9",
"E. c #9CA3AA",
"W. c #9BA6AD",
"Q. c #9CA7AE",
"!. c #99A9B0",
"~. c #99A9B1",
"^. c #9BA9B0",
"/. c #99AAB1",
"(. c #99AAB2",
"). c #99ABB2",
"_. c #9AABB2",
"`. c #9DABB2",
"'. c #9AACB3",
"]. c #9BACB3",
"[. c #9BADB3",
"{. c #9BADB4",
"}. c #9CADB4",
"|. c #9CAEB5",
" X c #9DAEB5",
".X c #9DAFB6",
"XX c #A0A8AE",
"oX c #A1A9AF",
"OX c #A5B2AC",
"+X c #A8B5AF",
"@X c #AAB7B1",
"#X c #A8B2B7",
"$X c #A4B1B8",
"%X c #A6B3B9",
"&X c #A5B4BA",
"*X c #A6B5BB",
"=X c #A6B6BC",
"-X c #A7B6BC",
";X c #A7B7BD",
":X c #AAB3B9",
">X c #ABB5BB",
",X c #ACB5BB",
"<X c #ACB6BB",
"1X c #A8B7BD",
"2X c #A9B7BD",
"3X c #ADB7BD",
"4X c #A9B8BE",
"5X c #AAB9BF",
"6X c #AEB8BD",
"7X c #B9C5CA",
"8X c #B9C6CA",
"9X c #B9C6CB",
"0X c #BAC6CB",
"qX c #BAC7CC",
"wX c #BBC7CC",
"eX c #BBC8CC",
"rX c #C5D8CD",
"tX c #C7DACF",
"yX c #C8DCD1",
"uX c #CADED3",
"iX c #CADFD4",
"pX c #CCE1D6",
"aX c None",
/* pixels */
"aX$ $ $ $ $ $ $ $ $ $ $ $ $ $ $ $ $ $ $ $ $ $ $ $ $ $ $ $ $ $ $ $ $ $ $ $ $ $ $ $ $ $ $ $ $ $ $ $ aX",
"$ $ $ $ $ $ $ $ $ $ $ $ $ $ $ $ $ $ $ $ $ $ $ $ $ $ $ $ $ $ $ $ $ $ $ $ $ $ $ $ $ $ $ $ $ $ $ $ $ $ ",
"$ $ $ $ .                                                                                 . $ $ $ $ ",
"$ $ $ < K P L L L L L L L L L L L L L L L L L L L L L L L L L L L L L L L L L L L L L L P K < $ $ $ ",
"$ $ + d OXtXrXrXrXrXrXrXrXrXrXrXrXrXrXrXrXrXrXrXrXrXrXrXrXrXrXrXrXrXrXrXrXrXrXrXrXrXrXrXtXOXd + $ $ ",
"$ $ + f +XuXyXyXyXyXyXyXyXyXyXyXyXyXyXyXyXyXyXyXyXyXyXyXyXyXyXyXyXyXyXyXyXyXyXyXyXyXyXyXuX+Xf + $ $ ",
"$ $ + f +XuXyXyXyXyXyXyXyXyXyXyXyXyXyXyXyXyXyXyXyXyXyXyXyXyXyXyXyXyXyXyXyXyXyXyXyXyXyXyXuX+Xf + $ $ ",
"$ $ + f +XuXyXyXyXyXyXyXyXyXyXyXyXyXyXyXyXyXyXyXyXyXyXyXyXyXyXyXyXyXyXyXyXyXyXyXyXyXyXyXuX+Xf + $ $ ",
"$ $ + f +XuXyXyXyXyXyXyXyXyXyXyXyXyXyXyXyXyXyXyXyXyXyXyXyXyXyXyXyXyXyXyXyXyXyXyXyXyXyXyXuX+Xf + $ $ ",
"$ $ + f @XpXiXiXiXiXiXiXiXiXiXiXiXiXiXiXiXiXiXiXiXiXiXiXiXiXiXiXiXiXiXiXiXiXiXiXiXiXiXiXpX@Xf + $ $ ",
"$ $ $ 8 +.C.c.c.c.c.c.c.c.c.c.c.c.c.c.c.c.c.c.c.c.c.c.c.c.c.c.c.c.c.c.c.c.c.c.c.c.c.c.c.C.+.8 $ $ $ ",
"$ $ $ $ * * * * * * * * * * * * * * * * * * * * * * * * * * * * * * * * * * * * * * * * * * $ $ $ $ ",
"$ $ $ $ + . . . . . . . . . . . . . . . . . . . . . . . . . . . . . . . . . . . . . . . . + $ $ $ $ ",
"$ $ $ : k N M M M M M M M M M M M M M M M M M M M M M M M M M M M M M M M M M M M M M M N k : $ $ $ ",
"$ $ + u S.:X#X#X#X#X#X#X#X#X#X#X#X#X#X#X#X#X#X#X#X#X#X#X#X#X#X#X#X#X#X#X#X#X#X#X#X#X#X#X:XS.u + $ $ ",
"$ $ + s E.wX7X7X7X7X7X7X7X7X7X7X9X0X0X0X0X0X0X0X0X0X0X0X0X0X0X0X0X8X7X7X7X7X7X7X7X7X7X7XwXE.s + $ $ ",
"$ $ + i H.5X2X2X2X2X2X2X2X2X2X4X$XW.W.W.W.W.W.W.W.W.W.W.W.W.W.W.Q.%X4X2X2X2X2X2X2X2X2X2X5XH.i + $ $ ",
"$ $ @ y v.[._._._._._._._._._.I.T l z x x x x x x x x x x x x z x ! U._._._._._._._._._.[.v.y @ $ $ ",
"$ $ @ y v.{._._._._._._._._.}.3.1 X + + + + + + + + + + + + + + . 9 t.{._._._._._._._._.{.v.y @ $ $ ",
"$ $ @ y v.{._._._._._._._._.}.-.> $ $ & & & & & & & & & & & % $ @ 9 0.{._._._._._._._._.{.v.y @ $ $ ",
"$ $ @ y v.{._._._._._._._._.}.;.> $ @ F *.&.&.&.&.&.&.&.&.&.D @ + 9 q.{._._._._._._._._.{.v.y @ $ $ ",
"$ $ @ y V. X{.{.{.{.{.{.{.{..X:.> $ @ %.z.l.k.k.k.k.k.k.l.h.) o + 9 w. X{.{.{.{.{.{.{.{. XV.y @ $ $ ",
"$ $ $ 5 ` o.X.X.X.X.X.X.X.X.O.Y - $ @ $.h.f.f.f.f.f.f.f.f.s.( o $ 2 ^ o.X.X.X.X.X.X.X.X.o.` 5 $ $ $ ",
"$ $ $ $ $ $ $ $ $ $ $ $ $ $ $ $ $ $ @ $.h.f.f.f.f.f.f.f.f.s.( o $ $ $ $ $ $ $ $ $ $ $ $ $ $ $ $ $ $ ",
"$ $ $ $ + O O O O O O O O O O + $ $ @ $.h.f.f.f.f.f.f.f.f.s.( o $ $ + O O O O O O O O O O + $ $ $ $ ",
"$ $ $ : b Z C C C C C C C C Z h & $ @ $.h.f.f.f.f.f.f.f.f.s.( o $ = k Z C C C C C C C C Z b : $ $ $ ",
"$ $ + u J.>X:X:X:X:X:X:X:X:X<X5., $ @ $.h.f.f.f.f.f.f.f.f.s.( o + 0 N.>X:X:X:X:X:X:X:X:X>XJ.u + $ $ ",
"$ $ + s R.qX7X7X7X7X7X7X7X7XeXM.< $ @ $.h.f.f.f.f.f.f.f.f.s.( o + t P.qX7X7X7X7X7X7X7X7XqXR.s + $ $ ",
"$ $ @ i G.;X*X*X*X*X*X*X*X*X1X6., $ @ $.h.f.f.f.f.f.f.f.f.s.( o + q m.;X*X*X*X*X*X*X*X*X;XG.i @ $ $ ",
"$ $ @ y v.]._._._._._._._._.{.;.> $ @ $.h.f.f.f.f.f.f.f.f.s.( o + 9 0.]._._._._._._._._.].v.y @ $ $ ",
"$ $ @ y v.{._._._._._._._._.}.;.> $ @ $.h.f.f.f.f.f.f.f.f.s.( o + 9 q.{._._._._._._._._.{.v.y @ $ $ ",
"$ $ @ y v.{._._._._._._._._.}.;.> $ @ $.h.f.f.f.f.f.f.f.f.s.( o + 9 q.{._._._._._._._._.{.v.y @ $ $ ",
"$ $ @ y v.{._._._._._._._._.}.;.> $ @ $.h.f.f.f.f.f.f.f.f.s.( o + 9 q.{._._._._._._._._.{.v.y @ $ $ ",
"$ $ @ y Z..X}.}.}.}.}.}.}.}..X:.> $ @ $.h.f.f.g.j.j.g.f.f.s.( o + 9 e..X}.}.}.}.}.}.}.}..XZ.y @ $ $ ",
"$ $ $ 4 / .. . . . . . . . ...U - $ @ $.h.f.j.i.<.1.p.h.f.s.( o $ 1 Q .. . . . . . . . .../ 4 $ $ $ ",
"$ $ $ $ $ $ $ $ $ $ $ $ $ $ $ $ $ $ @ $.h.j.y.G 6 w H u.j.f.( o $ $ $ $ $ $ $ $ $ $ $ $ $ $ $ $ $ $ ",
"$ $ $ $ + . . . . . . . . . . + $ $ @ %.d.>.c @ # @ @ v ,.a.) o $ $ + . . . . . . . . . . + $ $ $ $ ",
"$ $ $ : n S A A A A A A A A S k * $ @ _ @.r o $ + + $ o a #.J @ $ - b S A A A A A A A A S n : $ $ $ ",
"$ $ + i K.3X,X,X,X,X,X,X,X,X6Xx., $ $ p ; @ $ + N m + $ @ ; e $ + q B.3X,X,X,X,X,X,X,X,X3XK.i + $ $ ",
"$ $ + s R.wX7X7X7X7X7X7X7X7XeXM.< $ $ @ $ + , W oXXXE : + $ # $ + t P.wX7X7X7X7X7X7X7X7XwXR.s + $ $ ",
"$ $ @ i F.=X&X&X&X&X&X&X&X&X-X2., $ $ $ + i | `.=X=X^.[ y + $ $ + q b.=X&X&X&X&X&X&X&X&X=XF.i @ $ $ ",
"$ $ @ y v.].).).).).).).).).{.;.> $ $ + V 7./._.(.)._.~.4.B + $ @ 7 9.].).).).).).).).).].v.y @ $ $ ",
"$ $ @ y v.{._._._._._._._._.].n.g . 1 R L.]._._._._._._.].D.I > . j A.]._._._._._._._._.{.v.y @ $ $ ",
"$ $ @ y v.{._._._._._._._._._.!.8.] :.T.]._._._._._._._._.].Y.=.' r./._._._._._._._._._.{.v.y @ $ $ ",
"$ $ @ y v.{._._._._._._._._._._.].].]._._._._._._._._._._._.'.].].]._._._._._._._._._._.{.v.y @ $ $ ",
"$ $ @ y n.|.].].].].].].].].].].].].].].].].].].].].].].].].].].].].].].].].].].].].].].|.n.y @ $ $ ",
"$ $ $ 3 ~ } { { { { { { { { { { { { { { { { { { { { { { { { { { { { { { { { { { { { { { } ~ 3 $ $ $ ",
"$ $ $ $ + + + + + + + + + + + + + + + + + + + + + + + + + + + + + + + + + + + + + + + + + + $ $ $ $ ",
"$ $ $ $ $ $ $ $ $ $ $ $ $ $ $ $ $ $ $ $ $ $ $ $ $ $ $ $ $ $ $ $ $ $ $ $ $ $ $ $ $ $ $ $ $ $ $ $ $ $ ",
"aX$ $ $ $ $ $ $ $ $ $ $ $ $ $ $ $ $ $ $ $ $ $ $ $ $ $ $ $ $ $ $ $ $ $ $ $ $ $ $ $ $ $ $ $ $ $ $ $ aX"
};
